<?xml version="1.0" encoding="utf-8"?>
<!-- Generator: Adobe Illustrator 26.0.3, SVG Export Plug-In . SVG Version: 6.00 Build 0)  -->
<svg version="1.1" id="Layer_1" xmlns="http://www.w3.org/2000/svg" xmlns:xlink="http://www.w3.org/1999/xlink" x="0px" y="0px"
	 viewBox="0 0 80 80" style="enable-background:new 0 0 80 80;" xml:space="preserve">
<style type="text/css">
	.st0{fill:#009BFF;}
</style>
<g>
	<path class="st0" d="M72.2,33.4h-4.1c-0.1,0-0.1,0-0.1-0.1c-0.7-2.9-1.9-5.8-3.5-8.3c0-0.1,0-0.1,0-0.2l2.9-2.9
		c0.4-0.4,0.6-0.9,0.6-1.5c0-0.6-0.2-1.1-0.6-1.5l-6.3-6.3c-0.4-0.4-0.9-0.6-1.5-0.6c-0.6,0-1.1,0.2-1.5,0.6l-2.9,2.9
		c0,0-0.1,0.1-0.2,0c-2.6-1.6-5.4-2.8-8.3-3.5c-0.1,0-0.1-0.1-0.1-0.1V7.8c0-1.2-1-2.1-2.1-2.1h-8.9c-1.2,0-2.1,1-2.1,2.1v4.1
		c0,0.1,0,0.1-0.1,0.1c-2.9,0.7-5.8,1.9-8.3,3.5c-0.1,0-0.1,0-0.2,0l-2.9-2.9c-0.4-0.4-0.9-0.6-1.5-0.6c-0.6,0-1.1,0.2-1.5,0.6
		l-6.3,6.3c-0.4,0.4-0.6,0.9-0.6,1.5c0,0.6,0.2,1.1,0.6,1.5l2.9,2.9c0,0,0.1,0.1,0,0.2c-1.6,2.6-2.8,5.4-3.5,8.3
		c0,0.1-0.1,0.1-0.1,0.1H7.8c-1.2,0-2.1,1-2.1,2.1v8.9c0,1.2,1,2.1,2.1,2.1h4.1c0.1,0,0.1,0,0.1,0.1c0.7,2.9,1.9,5.8,3.5,8.3
		c0,0.1,0,0.1,0,0.2l-2.9,2.9c-0.4,0.4-0.6,0.9-0.6,1.5c0,0.6,0.2,1.1,0.6,1.5l6.3,6.3c0.4,0.4,0.9,0.6,1.5,0.6
		c0.6,0,1.1-0.2,1.5-0.6l2.9-2.9c0,0,0.1-0.1,0.2,0c2.6,1.6,5.4,2.8,8.3,3.5c0.1,0,0.1,0.1,0.1,0.1v4.1c0,1.2,1,2.1,2.1,2.1h8.9
		c1.2,0,2.1-1,2.1-2.1v-4.1c0-0.1,0-0.1,0.1-0.1c2.9-0.7,5.8-1.9,8.3-3.5c0.1,0,0.1,0,0.2,0l2.9,2.9c0.4,0.4,0.9,0.6,1.5,0.6
		c0.6,0,1.1-0.2,1.5-0.6l1.5-1.5c0.4-0.4,0.4-1,0-1.4c-0.4-0.4-1-0.4-1.4,0l0,0L59.7,66c0,0-0.1,0-0.1,0c0,0-0.1,0-0.1,0l-2.9-2.9
		c-0.7-0.7-1.8-0.8-2.6-0.3c-2.4,1.5-5,2.6-7.8,3.2c-1,0.2-1.6,1.1-1.6,2.1v4.1c0,0.1-0.1,0.1-0.1,0.1h-8.9c-0.1,0-0.1-0.1-0.1-0.1
		v-4.1c0-1-0.7-1.9-1.6-2.1c-2.7-0.7-5.4-1.7-7.8-3.2c-0.9-0.5-1.9-0.4-2.6,0.3L20.5,66c0,0-0.1,0-0.1,0s-0.1,0-0.1,0L14,59.7
		c0,0,0-0.1,0-0.1c0,0,0-0.1,0-0.1l2.9-2.9c0.7-0.7,0.8-1.8,0.3-2.6c-1.5-2.4-2.6-5-3.2-7.8c-0.2-1-1.1-1.6-2.1-1.6H7.8
		c-0.1,0-0.1-0.1-0.1-0.1v-8.9c0-0.1,0.1-0.1,0.1-0.1h4.1c1,0,1.9-0.7,2.1-1.6c0.7-2.7,1.7-5.4,3.2-7.8c0.5-0.9,0.4-1.9-0.3-2.6
		L14,20.5c0,0,0-0.1,0-0.1s0-0.1,0-0.1l6.3-6.3c0,0,0.1,0,0.1,0s0.1,0,0.1,0l2.9,2.9c0.7,0.7,1.8,0.8,2.6,0.3c2.4-1.5,5-2.6,7.8-3.2
		c1-0.2,1.6-1.1,1.6-2.1V7.8c0-0.1,0.1-0.1,0.1-0.1h8.9c0.1,0,0.1,0.1,0.1,0.1v4.1c0,1,0.7,1.9,1.6,2.1c2.7,0.7,5.4,1.7,7.8,3.2
		c0.9,0.5,1.9,0.4,2.6-0.3l2.9-2.9c0,0,0.1,0,0.1,0c0,0,0.1,0,0.1,0l6.3,6.3c0,0,0,0.1,0,0.1s0,0.1,0,0.1l-2.9,2.9
		c-0.7,0.7-0.8,1.8-0.3,2.6c1.5,2.4,2.6,5,3.2,7.8c0.2,1,1.1,1.6,2.1,1.6h4.1c0.1,0,0.1,0.1,0.1,0.1v8.9c0,0.1-0.1,0.1-0.1,0.1h-4.1
		c-1,0-1.9,0.7-2.1,1.6c-0.7,2.7-1.7,5.4-3.2,7.8c-0.5,0.9-0.4,1.9,0.3,2.6l2.9,2.9c0,0,0,0.1,0,0.1c0,0,0,0.1,0,0.1l-1.5,1.5
		c-0.4,0.4-0.4,1,0,1.4c0.4,0.4,1,0.4,1.4,0l1.5-1.5c0.4-0.4,0.6-0.9,0.6-1.5c0-0.6-0.2-1.1-0.6-1.5l-2.9-2.9c0,0-0.1-0.1,0-0.2
		c1.6-2.6,2.8-5.4,3.5-8.3c0-0.1,0.1-0.1,0.1-0.1h4.1c1.2,0,2.1-1,2.1-2.1v-8.9C74.4,34.4,73.4,33.4,72.2,33.4L72.2,33.4z"/>
	<path class="st0" d="M19.8,36c-0.5-0.1-1.1,0.3-1.1,0.8c-0.2,1.1-0.2,2.1-0.2,3.2c0,11.9,9.7,21.5,21.5,21.5S61.5,51.9,61.5,40
		S51.9,18.5,40,18.5c-4.4,0-8.6,1.3-12.2,3.8c-3.5,2.4-6.2,5.8-7.8,9.8l0,0.1c-0.2,0.5,0,1.1,0.6,1.3c0.5,0.2,1.1,0,1.3-0.6l0-0.1
		c1.4-3.6,3.9-6.7,7.1-8.9c3.3-2.3,7.1-3.5,11.1-3.5c10.8,0,19.5,8.8,19.5,19.5S50.8,59.5,40,59.5S20.5,50.8,20.5,40
		c0-1,0.1-1.9,0.2-2.9C20.8,36.6,20.4,36.1,19.8,36C19.8,36,19.8,36,19.8,36z"/>
	<path class="st0" d="M37.1,50.4c0,0,0.1,0,0.1,0c1.2,0,2.3-0.5,3.1-1.4l11.3-12.2c0.8-0.9,1.2-2,1.1-3.1c0-1.2-0.5-2.2-1.4-3
		c-1.8-1.6-4.5-1.5-6.1,0.2L37,39.9l-2.4-2.3c-1.7-1.7-4.5-1.6-6.1,0.1s-1.6,4.5,0.1,6.1l5.5,5.4C34.9,50,36,50.4,37.1,50.4
		L37.1,50.4z M29.9,39.1c0.4-0.5,1-0.7,1.7-0.7c0.6,0,1.2,0.2,1.6,0.7l3.1,3c0.2,0.2,0.5,0.3,0.7,0.3c0.3,0,0.5-0.1,0.7-0.3l8.9-9.7
		c0.9-0.9,2.3-1,3.3-0.1c0.5,0.4,0.7,1,0.7,1.6c0,0.6-0.2,1.2-0.6,1.7L38.9,47.7c-0.4,0.5-1,0.7-1.6,0.7c-0.6,0-1.2-0.2-1.7-0.7
		L30,42.4C29.1,41.5,29,40,29.9,39.1L29.9,39.1z"/>
</g>
</svg>
