<?xml version="1.0" encoding="utf-8"?>
<!-- Generator: Adobe Illustrator 26.0.3, SVG Export Plug-In . SVG Version: 6.00 Build 0)  -->
<svg version="1.1" id="Layer_1" xmlns="http://www.w3.org/2000/svg" xmlns:xlink="http://www.w3.org/1999/xlink" x="0px" y="0px"
	 viewBox="0 0 80 80" style="enable-background:new 0 0 80 80;" xml:space="preserve">
<style type="text/css">
	.st0{fill:#FFFFFF;}
</style>
<g>
	<path class="st0" d="M70.9,33.7h-4c-0.1,0-0.1,0-0.1-0.1c-0.7-2.8-1.8-5.5-3.3-8c0-0.1,0-0.1,0-0.2l2.8-2.8
		c0.4-0.4,0.6-0.9,0.6-1.5c0-0.6-0.2-1.1-0.6-1.5l-6-6c-0.4-0.4-0.9-0.6-1.5-0.6c-0.6,0-1.1,0.2-1.5,0.6l-2.8,2.8c0,0-0.1,0.1-0.2,0
		c-2.5-1.5-5.2-2.6-8-3.3c-0.1,0-0.1-0.1-0.1-0.1v-4c0-1.1-0.9-2.1-2.1-2.1h-8.5c-1.1,0-2.1,0.9-2.1,2.1v4c0,0.1,0,0.1-0.1,0.1
		c-2.8,0.7-5.5,1.8-8,3.3c-0.1,0-0.1,0-0.2,0l-2.8-2.8c-0.4-0.4-0.9-0.6-1.5-0.6c-0.5,0-1.1,0.2-1.5,0.6l-6,6
		c-0.4,0.4-0.6,0.9-0.6,1.5c0,0.6,0.2,1.1,0.6,1.5l2.8,2.8c0,0,0.1,0.1,0,0.2c-1.5,2.5-2.6,5.2-3.3,8c0,0.1-0.1,0.1-0.1,0.1h-4
		c-1.1,0-2.1,0.9-2.1,2.1v8.5c0,1.1,0.9,2.1,2.1,2.1h4c0.1,0,0.1,0,0.1,0.1c0.7,2.8,1.8,5.5,3.3,8c0,0.1,0,0.1,0,0.2l-2.8,2.8
		c-0.4,0.4-0.6,0.9-0.6,1.5c0,0.6,0.2,1.1,0.6,1.5l6,6c0.4,0.4,0.9,0.6,1.5,0.6c0.6,0,1.1-0.2,1.5-0.6l2.8-2.8c0,0,0.1-0.1,0.2,0
		c2.5,1.5,5.2,2.6,8,3.3c0.1,0,0.1,0.1,0.1,0.1v4c0,1.1,0.9,2.1,2.1,2.1h8.5c1.1,0,2.1-0.9,2.1-2.1v-4c0-0.1,0-0.1,0.1-0.1
		c2.8-0.7,5.5-1.8,8-3.3c0.1,0,0.1,0,0.2,0l2.8,2.8c0.4,0.4,0.9,0.6,1.5,0.6c0.6,0,1.1-0.2,1.5-0.6l1.4-1.4c0.4-0.4,0.4-1,0-1.4
		c-0.4-0.4-1-0.4-1.4,0l0,0L59,65c0,0-0.1,0-0.1,0s-0.1,0-0.1,0L56,62.2c-0.7-0.7-1.7-0.8-2.5-0.3c-2.3,1.4-4.8,2.5-7.5,3.1
		c-0.9,0.2-1.6,1-1.6,2v4c0,0.1-0.1,0.1-0.1,0.1h-8.5c-0.1,0-0.1-0.1-0.1-0.1v-4c0-1-0.7-1.8-1.6-2c-2.6-0.6-5.1-1.7-7.5-3.1
		c-0.8-0.5-1.9-0.4-2.5,0.3L21.2,65c0,0-0.1,0-0.1,0c0,0-0.1,0-0.1,0l-6-6c0,0,0-0.1,0-0.1s0-0.1,0-0.1l2.8-2.8
		c0.7-0.7,0.8-1.7,0.3-2.5c-1.4-2.3-2.5-4.8-3.1-7.5c-0.2-0.9-1-1.6-2-1.6h-4c-0.1,0-0.1-0.1-0.1-0.1v-8.5c0-0.1,0.1-0.1,0.1-0.1h4
		c1,0,1.8-0.7,2-1.6c0.6-2.6,1.7-5.1,3.1-7.5c0.5-0.8,0.4-1.9-0.3-2.5L15,21.2c0,0,0-0.1,0-0.1c0,0,0-0.1,0-0.1l6-6c0,0,0.1,0,0.1,0
		c0,0,0.1,0,0.1,0l2.8,2.8c0.7,0.7,1.7,0.8,2.5,0.3c2.3-1.4,4.8-2.5,7.5-3.1c0.9-0.2,1.6-1,1.6-2v-4c0-0.1,0.1-0.1,0.1-0.1h8.5
		c0.1,0,0.1,0.1,0.1,0.1v4c0,1,0.7,1.8,1.6,2c2.6,0.6,5.1,1.7,7.5,3.1c0.8,0.5,1.9,0.4,2.5-0.3l2.8-2.8c0,0,0.1,0,0.1,0s0.1,0,0.1,0
		l6,6c0,0,0,0.1,0,0.1c0,0,0,0.1,0,0.1L62.2,24c-0.7,0.7-0.8,1.7-0.3,2.5c1.4,2.3,2.5,4.8,3.1,7.5c0.2,0.9,1,1.6,2,1.6h4
		c0.1,0,0.1,0.1,0.1,0.1v8.5c0,0.1-0.1,0.1-0.1,0.1h-4c-1,0-1.8,0.7-2,1.6c-0.6,2.6-1.7,5.1-3.1,7.5c-0.5,0.8-0.4,1.9,0.3,2.5
		l2.8,2.8c0,0,0,0.1,0,0.1s0,0.1,0,0.1l-1.4,1.4c-0.4,0.4-0.4,1,0,1.4c0.4,0.4,1,0.4,1.4,0l1.4-1.4c0.4-0.4,0.6-0.9,0.6-1.5
		c0-0.6-0.2-1.1-0.6-1.5l-2.8-2.8c0,0-0.1-0.1,0-0.2c1.5-2.5,2.6-5.2,3.3-8c0-0.1,0.1-0.1,0.1-0.1h4c1.1,0,2.1-0.9,2.1-2.1v-8.5
		C73,34.6,72.1,33.7,70.9,33.7L70.9,33.7z"/>
	<path class="st0" d="M20.6,36.1c-0.5-0.1-1,0.3-1.1,0.8c-0.1,1-0.2,2-0.2,3.1c0,11.4,9.3,20.7,20.7,20.7S60.7,51.4,60.7,40
		S51.4,19.3,40,19.3c-4.2,0-8.3,1.3-11.7,3.7c-3.4,2.3-6,5.6-7.5,9.4l0,0.1c-0.2,0.5,0,1.1,0.5,1.3c0.5,0.2,1.1,0,1.3-0.5l0-0.1
		c1.4-3.4,3.7-6.4,6.8-8.5c3.1-2.2,6.8-3.3,10.6-3.3c10.3,0,18.8,8.4,18.8,18.8S50.3,58.8,40,58.8S21.2,50.3,21.2,40
		c0-0.9,0.1-1.9,0.2-2.8C21.5,36.7,21.2,36.2,20.6,36.1C20.6,36.1,20.6,36.1,20.6,36.1z"/>
	<path class="st0" d="M37.3,50c0,0,0.1,0,0.1,0c1.1,0,2.2-0.5,2.9-1.3L51.1,37c0.8-0.8,1.1-1.9,1.1-3c0-1.1-0.5-2.1-1.3-2.9
		c-1.7-1.6-4.3-1.5-5.9,0.2l-7.9,8.6l-2.3-2.2c-1.7-1.6-4.3-1.5-5.9,0.1s-1.6,4.3,0.1,5.9l5.3,5.1C35.1,49.6,36.2,50,37.3,50
		L37.3,50z M30.3,39.2c0.4-0.4,1-0.7,1.6-0.7c0.6,0,1.1,0.2,1.6,0.6l3,2.9c0.2,0.2,0.4,0.3,0.7,0.3c0.3,0,0.5-0.1,0.7-0.3l8.6-9.3
		c0.8-0.9,2.3-1,3.2-0.1c0.4,0.4,0.7,1,0.7,1.6c0,0.6-0.2,1.2-0.6,1.6L38.9,47.4c-0.4,0.4-1,0.7-1.6,0.7c-0.6,0-1.2-0.2-1.6-0.6
		l-5.3-5.1C29.5,41.5,29.5,40,30.3,39.2L30.3,39.2z"/>
</g>
</svg>
