<?xml version="1.0" encoding="utf-8"?>
<!-- Generator: Adobe Illustrator 26.0.3, SVG Export Plug-In . SVG Version: 6.00 Build 0)  -->
<svg version="1.1" id="Layer_1" xmlns="http://www.w3.org/2000/svg" xmlns:xlink="http://www.w3.org/1999/xlink" x="0px" y="0px"
	 viewBox="0 0 80 80" style="enable-background:new 0 0 80 80;" xml:space="preserve">
<style type="text/css">
	.st0{fill:#00A7FF;}
</style>
<g>
	<path class="st0" d="M20.1,33c0,0.7-0.6,1.3-1.4,1.2c-0.7,0-1.3-0.6-1.2-1.4s0.6-1.3,1.4-1.2C19.6,31.7,20.2,32.3,20.1,33z
		 M72.2,54.7l-3.9,1.5c-0.3,0.1-0.7,0.2-1.1,0.2c-1.2,0-2.4-0.7-2.8-1.9L64,53.6L60.8,55c0.2,0.9,0,1.8-0.4,2.7
		c-0.5,1-1.4,1.7-2.5,2c0,0-0.1,0-0.1,0c0.3,1,0.3,2.2-0.3,3.3c-0.8,1.5-2.5,2.3-4.1,2.1c0.1,0.8-0.1,1.5-0.5,2.2
		c-0.5,1-1.4,1.7-2.5,2c-0.7,0.2-1.3,0.2-2,0.1c0,0.7-0.2,1.5-0.5,2.1c-0.5,1-1.4,1.7-2.5,2c-0.4,0.1-0.7,0.2-1.1,0.2
		c-0.7,0-1.4-0.2-2-0.5l-1.1-0.6c-0.5,0.8-1.3,1.3-2.2,1.6c-0.4,0.1-0.8,0.2-1.2,0.2c-0.7,0-1.4-0.2-2-0.5c-0.9-0.5-1.6-1.3-1.9-2.2
		c-1.1,0.5-2.5,0.5-3.6-0.2c-0.8-0.4-1.4-1.1-1.8-1.9c-1.2,0.7-2.7,0.7-4,0c-1.6-0.9-2.4-2.6-2.2-4.3c-0.7,0-1.4-0.2-2.1-0.5
		c-1-0.5-1.7-1.4-2-2.5c-0.3-1.1-0.2-2.2,0.3-3.2l1.1-2c-0.2-0.6-0.4-1.2-0.5-1.8c-0.2-1.1-0.4-1.8-0.8-1.9c-0.2-0.1-0.6-0.3-2.3-1
		l-0.4,1c-0.3,0.7-0.9,1.3-1.7,1.6c-0.3,0.1-0.7,0.2-1.1,0.2c-0.4,0-0.8-0.1-1.2-0.3L7.7,53c-1.5-0.7-2.2-2.5-1.5-4L15,29
		c0.3-0.7,0.9-1.3,1.7-1.6c0.8-0.3,1.6-0.3,2.3,0.1l3.8,1.7c0.7,0.3,1.3,0.9,1.6,1.7c0.3,0.8,0.3,1.6-0.1,2.3l-0.7,1.5l2.5,1.2
		c0,0,0.1,0,0.1,0c0.7,0.4,1.5,0.5,2.3,0.4c-2.7-3.2-4.1-7.1-4.1-11.4V13.2c0-0.4,0.3-0.8,0.7-1L39.6,6c0.3-0.1,0.6-0.1,0.9,0
		l14.5,6.2c0.4,0.2,0.7,0.6,0.7,1v11.7c0,4.4-1.5,8.5-4.3,11.7c1.6,0.6,2.7,0.9,3.7,0.4l2.2-1.2l-0.6-1.5c-0.6-1.6,0.2-3.3,1.7-3.9
		l3.9-1.5c1.6-0.6,3.3,0.2,3.9,1.7l7.9,20.3C74.5,52.4,73.7,54.1,72.2,54.7z M26.6,24.9c0,4.2,1.6,8,4.5,10.9c0.6-0.1,1.3-0.3,2-0.4
		c-3-2.6-4.8-6.3-4.8-10.5v-9.2c0-0.4,0.3-0.8,0.7-1l10.6-4.5c0.3-0.1,0.6-0.1,0.9,0L51,14.7c0.4,0.2,0.7,0.6,0.7,1v9.2
		c0,4-1.7,7.7-4.5,10.3c0.6,0.1,1.3,0.3,1.8,0.5c2.8-2.9,4.3-6.7,4.3-10.8v-11L40,8.2l-13.4,5.7L26.6,24.9z M43.6,35
		c3.7-2.2,5.9-5.9,5.9-10.2v-8.4L40,12.4l-9.5,4.1v8.4c0,5.6,3.7,10.2,9.4,11.6C41.2,35.7,42.5,35.2,43.6,35z M22.3,32.3
		c0.1-0.2,0.1-0.4,0-0.6c-0.1-0.2-0.2-0.4-0.4-0.5l-3.8-1.7c-0.4-0.2-0.9,0-1.1,0.4L8.2,49.9c-0.2,0.4,0,0.9,0.4,1.1l3.8,1.7
		c0.2,0.1,0.4,0.1,0.6,0c0.2-0.1,0.4-0.2,0.5-0.4L22.3,32.3z M23.4,62.4l2.5-4.4c0.4-1,0-2.1-0.9-2.6c-1-0.5-2.2-0.2-2.7,0.8
		l-1.9,3.6c-0.3,0.5-0.3,1-0.1,1.5c0.2,0.5,0.5,0.9,1,1.2C21.9,62.9,22.8,62.9,23.4,62.4z M28.2,66.6l2.8-5.4c0.2-0.9-0.2-1.7-1-2.2
		c-0.7-0.4-1.6-0.3-2.2,0.2l-3.1,5.5c-0.5,1-0.2,2.2,0.8,2.7C26.4,67.9,27.7,67.6,28.2,66.6L28.2,66.6z M33.8,68.8l2.5-4.7
		c0.2-0.9-0.2-1.7-1-2.2c-0.8-0.4-1.7-0.3-2.3,0.3l-2.7,5.2c-0.1,0.8,0.4,1.5,1,1.9C32.1,69.8,33.2,69.5,33.8,68.8L33.8,68.8z
		 M39.5,70.8l1.8-3.4c0.4-0.7,0.3-1.5-0.2-2.1c-0.2-0.2-0.4-0.4-0.7-0.6c-0.8-0.4-1.7-0.3-2.3,0.3l-2.4,4.6c-0.1,0.8,0.3,1.6,1,2
		c0.5,0.3,1,0.3,1.5,0.1C38.9,71.7,39.3,71.3,39.5,70.8L39.5,70.8z M45.2,67.7c-0.1,0-1.4-0.8-1.4-0.8c0,0.5-0.2,1.1-0.5,1.6l-1,2
		l1.1,0.6c0.4,0.2,0.9,0.3,1.4,0.2c0.5-0.1,0.9-0.5,1.2-0.9C46.5,69.4,46.1,68.2,45.2,67.7L45.2,67.7z M58.5,54.8
		c-0.2-0.4-0.5-0.7-0.8-0.9L47.3,48c-1.8-1-4-0.1-6.5,0.9c-1.9,0.8-4.1,1.6-6.2,1.6c-2.1,0-4.3-0.8-6.3-3.4c-0.5-0.6-0.4-1.6,0.3-2
		c0.1,0,0.1-0.1,0.2-0.1c2.9-1.7,5.4-3.6,7.4-5.6c0.5-0.5,1-1,1.5-1.4c-2.3-1-4.2-0.5-6.2-0.1c-2,0.5-4.1,1-6.2-0.2l-2.4-1.1
		l-6,13.5c1.5,0.7,2,0.9,2.2,1c1.5,0.6,1.9,2,2.1,3.1c1.3-1.3,3.3-1.6,4.9-0.7c1.2,0.7,2,1.8,2.2,3.1c0.9-0.2,1.9,0,2.7,0.4
		c1,0.5,1.7,1.4,2.1,2.5c1.1-0.3,2.3-0.2,3.3,0.3c1,0.5,1.7,1.4,2.1,2.5c1.1-0.3,2.3-0.2,3.3,0.3c0.5,0.3,0.9,0.6,1.3,1l5.5,3.1
		c0.4,0.2,0.9,0.3,1.4,0.2c0.5-0.1,0.9-0.5,1.2-0.9c0.5-0.9,0.2-2.1-0.8-2.6c-0.1,0-7.7-4.3-7.7-4.3c-0.5-0.3-0.7-1-0.4-1.5
		c0.3-0.5,1-0.7,1.5-0.4l9.4,5.3c0.9,0.5,2.1,0.2,2.6-0.8c0.5-0.9,0.2-2.1-0.8-2.6l0,0c-2.2-1.2-4.7-2.6-7.2-4
		c-0.5-0.3-0.7-1-0.4-1.5c0.3-0.5,1-0.7,1.5-0.4c2.4,1.4,4.9,2.8,7.2,4c0.4,0.2,0.9,0.3,1.4,0.2c0.5-0.1,0.9-0.5,1.2-0.9
		C58.8,56,58.8,55.4,58.5,54.8L58.5,54.8z M63.2,51.6l-5.3-13.8l-2,1c-2.1,1.1-4.2,0.3-6.2-0.5c-3.3-1.3-6.8-2.7-12.1,2.7
		c-1.9,1.9-4.3,3.8-7.1,5.5c2.8,3.1,5.9,1.8,9.4,0.4c2.8-1.1,5.8-2.3,8.4-0.8l10.4,5.9c0.4,0.2,0.8,0.6,1.1,0.9L63.2,51.6z
		 M71.9,51.6L64,31.3c-0.2-0.4-0.6-0.6-1.1-0.5L59,32.3c-0.4,0.2-0.6,0.6-0.5,1.1l7.9,20.3c0.2,0.4,0.6,0.6,1.1,0.5l3.9-1.5
		C71.8,52.5,72,52,71.9,51.6L71.9,51.6z M62,32.9c-0.7,0-1.3,0.6-1.3,1.3c0,0.7,0.6,1.3,1.3,1.3c0.7,0,1.3-0.6,1.3-1.3
		C63.3,33.5,62.7,32.9,62,32.9z M40.5,29.8c-0.5,0.5-1.3,0.8-2,0.8c-0.8,0-1.5-0.3-2-0.8l-3.9-3.9c-1.1-1.1-1.1-2.9,0-4.1
		c0.5-0.5,1.3-0.8,2-0.8c0.8,0,1.5,0.3,2,0.8l1.9,1.9l5-5.1c0.5-0.5,1.3-0.8,2-0.8h0c0.8,0,1.5,0.3,2,0.8c1.1,1.1,1.1,2.9,0,4
		c-0.9,0.9-1.7,1.8-2.6,2.6C43.5,26.8,42,28.4,40.5,29.8L40.5,29.8z M38.9,28.3c1.5-1.5,3-3,4.4-4.5c0.9-0.9,1.7-1.8,2.6-2.6
		c0.3-0.3,0.3-0.7,0-0.9c-0.1-0.1-0.3-0.2-0.5-0.2c-0.2,0-0.3,0.1-0.5,0.2l-5.8,5.8c-0.2,0.2-0.5,0.3-0.8,0.3h0
		c-0.3,0-0.6-0.1-0.8-0.3L35,23.4c-0.1-0.1-0.3-0.2-0.5-0.2s-0.3,0.1-0.5,0.2c-0.3,0.3-0.3,0.7,0,0.9l3.9,3.9
		c0.1,0.1,0.3,0.2,0.5,0.2C38.6,28.5,38.8,28.4,38.9,28.3L38.9,28.3z"/>
</g>
</svg>
