<?xml version="1.0" encoding="utf-8"?>
<!-- Generator: Adobe Illustrator 26.0.3, SVG Export Plug-In . SVG Version: 6.00 Build 0)  -->
<svg version="1.1" id="Layer_1" xmlns="http://www.w3.org/2000/svg" xmlns:xlink="http://www.w3.org/1999/xlink" x="0px" y="0px"
	 viewBox="0 0 80 80" style="enable-background:new 0 0 80 80;" xml:space="preserve">
<style type="text/css">
	.st0{fill:#FFFFFF;}
</style>
<g>
	<path class="st0" d="M17.9,32.2c0,0.8-0.7,1.4-1.5,1.4c-0.8,0-1.4-0.7-1.4-1.5c0-0.8,0.7-1.4,1.5-1.4
		C17.3,30.8,17.9,31.4,17.9,32.2z M75.8,56.4l-4.4,1.7c-0.4,0.1-0.8,0.2-1.2,0.2c-1.3,0-2.6-0.8-3.1-2.1l-0.4-1l-3.5,1.5
		c0.2,1,0,2-0.5,3c-0.6,1.1-1.6,1.9-2.8,2.2c0,0-0.1,0-0.1,0c0.4,1.2,0.3,2.5-0.3,3.6c-0.9,1.7-2.8,2.6-4.6,2.3
		c0.1,0.9-0.1,1.7-0.5,2.5c-0.6,1.1-1.6,1.8-2.7,2.2c-0.7,0.2-1.5,0.2-2.2,0.1c0,0.8-0.2,1.6-0.6,2.3c-0.6,1.1-1.6,1.9-2.8,2.2
		c-0.4,0.1-0.8,0.2-1.2,0.2c-0.8,0-1.5-0.2-2.2-0.6L41.3,76c-0.6,0.8-1.4,1.5-2.5,1.8c-0.4,0.1-0.9,0.2-1.4,0.2
		c-0.8,0-1.5-0.2-2.2-0.6c-1-0.5-1.8-1.4-2.2-2.4c-1.3,0.5-2.8,0.5-4-0.2c-0.9-0.5-1.6-1.2-2-2.1c-1.3,0.7-3,0.8-4.4,0
		c-1.8-1-2.7-2.9-2.4-4.8c-0.8,0-1.6-0.2-2.3-0.5c-1.1-0.6-1.9-1.6-2.3-2.8c-0.4-1.2-0.2-2.5,0.3-3.6l1.2-2.2
		c-0.3-0.6-0.4-1.3-0.5-2c-0.2-1.2-0.4-2-0.9-2.2c-0.2-0.1-0.7-0.3-2.5-1.1l-0.5,1.1c-0.4,0.8-1,1.4-1.9,1.8
		c-0.4,0.2-0.8,0.2-1.2,0.2c-0.5,0-0.9-0.1-1.4-0.3l-4.3-1.9c-1.7-0.7-2.5-2.7-1.7-4.4l9.8-22.2c0.4-0.8,1-1.4,1.9-1.8
		c0.8-0.3,1.7-0.3,2.6,0.1l4.3,1.9c0.8,0.4,1.4,1,1.8,1.9c0.3,0.8,0.3,1.7-0.1,2.6l-0.7,1.7l2.8,1.3c0,0,0.1,0,0.1,0
		c0.8,0.5,1.7,0.6,2.6,0.5c-3-3.5-4.6-7.9-4.6-12.7v-13c0-0.5,0.3-0.9,0.7-1.1l16.1-6.9c0.3-0.1,0.7-0.1,1,0l16.1,6.9
		c0.4,0.2,0.7,0.6,0.7,1.1v13c0,4.9-1.7,9.4-4.8,13c1.7,0.7,3,1,4.1,0.4l2.4-1.3l-0.7-1.7c-0.7-1.7,0.2-3.7,1.9-4.3l4.4-1.7
		c1.7-0.7,3.7,0.2,4.3,1.9L77.7,52C78.4,53.8,77.5,55.7,75.8,56.4z M25.1,23.2c0,4.6,1.8,8.9,5,12.2c0.7-0.2,1.4-0.3,2.2-0.4
		C29,32,27,27.9,27,23.2V13c0-0.5,0.3-0.9,0.7-1.1l11.8-5.1c0.3-0.1,0.7-0.1,1,0l11.8,5.1c0.4,0.2,0.7,0.6,0.7,1.1v10.2
		c0,4.5-1.8,8.5-5,11.4c0.7,0.2,1.4,0.4,2,0.6c3.1-3.2,4.8-7.4,4.8-12V11L40,4.6L25.1,11L25.1,23.2z M44.1,34.5
		c4.1-2.4,6.5-6.5,6.5-11.3v-9.4L40,9.3l-10.6,4.5v9.4c0,6.2,4.2,11.3,10.4,12.9C41.3,35.2,42.7,34.7,44.1,34.5z M20.3,31.4
		c0.1-0.2,0.1-0.5,0-0.7c-0.1-0.2-0.3-0.4-0.5-0.5l-4.3-1.9c-0.5-0.2-1,0-1.2,0.5L4.6,51c-0.2,0.5,0,1,0.5,1.2l4.3,1.9
		c0.2,0.1,0.5,0.1,0.7,0c0.2-0.1,0.4-0.3,0.5-0.5L20.3,31.4z M21.5,64.9l2.8-4.8c0.5-1.1,0-2.3-1-2.8c-1.1-0.6-2.4-0.2-3,0.9l-2.1,4
		c-0.3,0.5-0.3,1.1-0.2,1.7c0.2,0.6,0.6,1,1.1,1.3C19.9,65.5,20.8,65.4,21.5,64.9z M26.8,69.6l3.1-6c0.2-0.9-0.3-1.9-1.1-2.4
		c-0.8-0.4-1.7-0.3-2.4,0.2l-3.5,6.1c-0.6,1.1-0.2,2.4,0.9,3C24.9,71.1,26.3,70.6,26.8,69.6L26.8,69.6z M33.1,72l2.7-5.3
		c0.2-0.9-0.3-1.9-1.1-2.4c-0.9-0.5-1.9-0.3-2.6,0.4l-3,5.8c-0.1,0.9,0.4,1.7,1.2,2.1C31.2,73.1,32.4,72.9,33.1,72L33.1,72z
		 M39.5,74.3l2-3.8c0.4-0.8,0.3-1.7-0.2-2.4c-0.2-0.3-0.4-0.5-0.7-0.6c-0.9-0.5-1.9-0.3-2.6,0.4L35.3,73c-0.1,0.9,0.4,1.8,1.2,2.2
		c0.5,0.3,1.1,0.3,1.7,0.2C38.7,75.2,39.2,74.8,39.5,74.3L39.5,74.3z M45.8,70.8c-0.1,0-1.6-0.9-1.6-0.9c-0.1,0.6-0.2,1.2-0.5,1.8
		l-1.2,2.2l1.2,0.7c0.5,0.3,1,0.3,1.6,0.2c0.6-0.2,1-0.5,1.3-1C47.2,72.7,46.8,71.4,45.8,70.8L45.8,70.8z M60.6,56.5
		c-0.2-0.4-0.5-0.7-0.9-1l-11.6-6.6c-2-1.1-4.4-0.1-7.3,1c-2.1,0.9-4.5,1.8-6.9,1.8c-2.4,0-4.8-0.9-7-3.8c-0.6-0.7-0.4-1.7,0.3-2.3
		c0.1,0,0.1-0.1,0.2-0.1c3.3-1.9,6-4,8.2-6.2c0.6-0.6,1.1-1.1,1.7-1.6c-2.5-1.1-4.6-0.6-6.9-0.1c-2.2,0.5-4.5,1.1-6.9-0.2l-2.7-1.2
		l-6.6,15c1.6,0.7,2.2,1,2.4,1.1c1.6,0.6,2.1,2.2,2.4,3.5c1.4-1.4,3.6-1.8,5.5-0.8c1.4,0.7,2.2,2.1,2.4,3.5c1-0.2,2.1,0,3,0.5
		c1.1,0.6,1.9,1.6,2.3,2.8c1.2-0.4,2.5-0.3,3.6,0.3c1.1,0.6,1.9,1.6,2.3,2.8c1.2-0.4,2.5-0.3,3.6,0.3c0.5,0.3,1,0.7,1.4,1.2l6.1,3.4
		c0.5,0.3,1.1,0.3,1.6,0.2c0.6-0.2,1-0.5,1.3-1c0.6-1,0.2-2.3-0.8-2.9c-0.1,0-8.6-4.8-8.6-4.8c-0.6-0.3-0.8-1.1-0.5-1.7
		c0.3-0.6,1.1-0.8,1.7-0.5l10.5,5.9c1,0.6,2.3,0.2,2.9-0.8c0.6-1,0.2-2.3-0.8-2.9l0,0c-2.5-1.4-5.2-2.9-8-4.5
		c-0.6-0.3-0.8-1.1-0.5-1.7c0.3-0.6,1.1-0.8,1.7-0.5c2.7,1.6,5.5,3.1,8,4.5c0.5,0.3,1,0.3,1.6,0.2c0.6-0.2,1-0.5,1.3-1
		C60.9,57.8,60.9,57.1,60.6,56.5L60.6,56.5z M65.8,52.9l-5.9-15.3l-2.2,1.2C55.4,40,53,39,50.8,38.1c-3.7-1.5-7.5-3-13.5,3
		c-2.1,2.2-4.8,4.2-7.9,6.1c3.2,3.4,6.6,2,10.5,0.5c3.1-1.3,6.4-2.6,9.4-0.9l11.6,6.6c0.5,0.3,0.9,0.6,1.2,1L65.8,52.9z M75.4,52.9
		l-8.8-22.6c-0.2-0.5-0.7-0.7-1.2-0.5l-4.4,1.7c-0.5,0.2-0.7,0.7-0.5,1.2l8.8,22.6c0.2,0.5,0.7,0.7,1.2,0.5l4.4-1.7
		C75.4,53.9,75.6,53.4,75.4,52.9L75.4,52.9z M64.5,32.2c-0.8,0-1.5,0.7-1.5,1.5c0,0.8,0.7,1.5,1.5,1.5c0.8,0,1.5-0.7,1.5-1.5
		C65.9,32.8,65.3,32.2,64.5,32.2z M40.5,28.7c-0.6,0.6-1.4,0.9-2.3,0.9c-0.8,0-1.7-0.3-2.3-0.9l-4.4-4.4c-1.2-1.2-1.2-3.3,0-4.5
		c0.6-0.6,1.4-0.9,2.3-0.9c0.9,0,1.7,0.3,2.3,0.9l2.1,2.1l5.6-5.6c0.6-0.6,1.4-0.9,2.2-0.9h0c0.8,0,1.7,0.3,2.2,0.9
		c1.2,1.2,1.2,3.3,0,4.5c-1,1-1.9,2-2.9,2.9C43.8,25.4,42.2,27.1,40.5,28.7L40.5,28.7z M38.8,27c1.6-1.6,3.3-3.3,4.9-5
		c1-1,1.9-2,2.9-2.9c0.3-0.3,0.3-0.8,0-1c-0.1-0.1-0.3-0.2-0.5-0.2c-0.2,0-0.4,0.1-0.5,0.2l-6.4,6.5c-0.2,0.2-0.5,0.4-0.9,0.4h0
		c-0.3,0-0.6-0.1-0.9-0.4l-3-3c-0.1-0.1-0.3-0.2-0.5-0.2c-0.2,0-0.4,0.1-0.5,0.2c-0.3,0.3-0.3,0.8,0,1l4.4,4.4
		c0.1,0.1,0.3,0.2,0.5,0.2C38.5,27.2,38.7,27.1,38.8,27L38.8,27z"/>
</g>
</svg>
