<?xml version="1.0" encoding="utf-8"?>
<!-- Generator: Adobe Illustrator 26.0.3, SVG Export Plug-In . SVG Version: 6.00 Build 0)  -->
<svg version="1.1" id="Layer_1" xmlns="http://www.w3.org/2000/svg" xmlns:xlink="http://www.w3.org/1999/xlink" x="0px" y="0px"
	 viewBox="0 0 80 80" style="enable-background:new 0 0 80 80;" xml:space="preserve">
<style type="text/css">
	.st0{clip-path:url(#SVGID_00000096738687434516718270000011170715833427319708_);}
	.st1{fill:none;stroke:#FFFFFF;stroke-width:2.6505;stroke-linecap:round;stroke-linejoin:round;stroke-miterlimit:10;}
</style>
<g>
	<g>
		<defs>
			<rect id="SVGID_1_" x="6.1" y="7" width="67.9" height="67.9"/>
		</defs>
		<clipPath id="SVGID_00000029038929476804437550000003770613236115262605_">
			<use xlink:href="#SVGID_1_"  style="overflow:visible;"/>
		</clipPath>
		
			<g transform="matrix(1.33333 0 0 -1.33333 0 682.667)" style="clip-path:url(#SVGID_00000029038929476804437550000003770613236115262605_);">
			<path class="st1" d="M20.9,458.6c8.8-3.5,19.3-1.7,26.4,5.4c8.7,8.7,9.5,22.3,2.3,31.9"/>
			<path class="st1" d="M17.3,460.4L17.3,460.4"/>
			<path class="st1" d="M53.6,496.2h-4.3v-4.3"/>
			<path class="st1" d="M39.3,503.9c-8.8,3.6-19.4,1.8-26.6-5.3c-8.7-8.7-9.5-22.3-2.3-31.9"/>
			<path class="st1" d="M42.9,502.1L42.9,502.1"/>
			<path class="st1" d="M6.4,466.2h4.4v4.4"/>
			<path class="st1" d="M27.6,481.3c0-1.3,1.1-2.4,2.4-2.4c1.3,0,2.4,1.1,2.4,2.4s-1.1,2.4-2.4,2.4S27.6,482.6,27.6,481.3z"/>
			<path class="st1" d="M15.4,490.2c-4-6.6-3.2-15.3,2.5-21c6.7-6.7,17.5-6.7,24.2,0s6.7,17.5,0,24.2c-5.7,5.7-14.4,6.5-21,2.5"/>
			<path class="st1" d="M17.9,493.3L17.9,493.3"/>
			<path class="st1" d="M43.3,481.3h-0.6"/>
			<path class="st1" d="M16.7,481.3h0.6"/>
			<path class="st1" d="M30,494.6V494"/>
			<path class="st1" d="M30,468v0.6"/>
			<path class="st1" d="M28.3,483l-3.9,3.9"/>
			<path class="st1" d="M31.7,483l7.3,7.3"/>
		</g>
	</g>
</g>
</svg>
