<?xml version="1.0" encoding="utf-8"?>
<!-- Generator: Adobe Illustrator 26.0.3, SVG Export Plug-In . SVG Version: 6.00 Build 0)  -->
<svg version="1.1" id="Layer_1" xmlns="http://www.w3.org/2000/svg" xmlns:xlink="http://www.w3.org/1999/xlink" x="0px" y="0px"
	 viewBox="0 0 80 80" style="enable-background:new 0 0 80 80;" xml:space="preserve">
<style type="text/css">
	.st0{clip-path:url(#SVGID_00000083078698979019853030000009717195264164845747_);}
	.st1{fill:none;stroke:#02A7FF;stroke-width:3.7877;stroke-linecap:round;stroke-linejoin:round;stroke-miterlimit:13.3333;}
	.st2{clip-path:url(#SVGID_00000056391341891159764440000018225252685519677824_);}
	.st3{fill:none;stroke:#02A7FF;stroke-width:2.5391;stroke-linecap:round;stroke-linejoin:round;stroke-miterlimit:10;}
</style>
<g>
	<g>
		<g>
			<defs>
				<rect id="SVGID_1_" x="4.8" y="580.9" width="96.9" height="96.9"/>
			</defs>
			<clipPath id="SVGID_00000094610491021197784310000006542236069368521131_">
				<use xlink:href="#SVGID_1_"  style="overflow:visible;"/>
			</clipPath>
			
				<g transform="matrix(1.33333 0 0 -1.33333 0 682.667)" style="clip-path:url(#SVGID_00000094610491021197784310000006542236069368521131_);">
				<path class="st1" d="M20.2,457.7c9.5-3.8,20.7-1.9,28.3,5.8c9.3,9.3,10.2,23.9,2.5,34.2"/>
				<path class="st1" d="M16.4,459.6L16.4,459.6"/>
				<path class="st1" d="M55.3,498h-4.7v-4.7"/>
				<path class="st1" d="M39.9,506.3c-9.5,3.9-20.8,2-28.5-5.7c-9.3-9.3-10.2-23.9-2.5-34.2"/>
				<path class="st1" d="M43.8,504.3L43.8,504.3"/>
				<path class="st1" d="M4.7,465.9h4.7v4.7"/>
				<path class="st1" d="M27.4,482c0-1.4,1.1-2.6,2.6-2.6s2.6,1.1,2.6,2.6c0,1.4-1.1,2.6-2.6,2.6S27.4,483.4,27.4,482z"/>
				<path class="st1" d="M14.4,491.5c-4.3-7.1-3.4-16.4,2.7-22.5c7.2-7.2,18.8-7.2,25.9,0c7.2,7.2,7.2,18.8,0,25.9
					c-6.1,6.1-15.4,7-22.5,2.7"/>
				<path class="st1" d="M17,494.9L17,494.9"/>
				<path class="st1" d="M44.3,482h-0.6"/>
				<path class="st1" d="M15.7,482h0.6"/>
				<path class="st1" d="M30,496.3v-0.6"/>
				<path class="st1" d="M30,467.8v0.6"/>
				<path class="st1" d="M28.2,483.8L24,488"/>
				<path class="st1" d="M31.8,483.8l7.8,7.8"/>
			</g>
		</g>
	</g>
</g>
<g>
	<g>
		<defs>
			<rect id="SVGID_00000078738653757549541160000014805372301775829147_" x="8" y="8.1" width="65" height="65"/>
		</defs>
		<clipPath id="SVGID_00000026882929313419972300000010668169979148136889_">
			<use xlink:href="#SVGID_00000078738653757549541160000014805372301775829147_"  style="overflow:visible;"/>
		</clipPath>
		
			<g transform="matrix(1.33333 0 0 -1.33333 0 682.667)" style="clip-path:url(#SVGID_00000026882929313419972300000010668169979148136889_);">
			<path class="st3" d="M21.6,459.8c8.4-3.4,18.5-1.7,25.3,5.2c8.3,8.3,9.1,21.4,2.2,30.6"/>
			<path class="st3" d="M18.2,461.5L18.2,461.5"/>
			<path class="st3" d="M53,495.8h-4.2v-4.2"/>
			<path class="st3" d="M39.3,503.2c-8.5,3.5-18.6,1.8-25.5-5.1c-8.3-8.3-9.1-21.4-2.2-30.6"/>
			<path class="st3" d="M42.7,501.5L42.7,501.5"/>
			<path class="st3" d="M7.8,467.1H12v4.2"/>
			<path class="st3" d="M28.1,481.6c0-1.3,1-2.3,2.3-2.3c1.3,0,2.3,1,2.3,2.3s-1,2.3-2.3,2.3C29.1,483.8,28.1,482.8,28.1,481.6z"/>
			<path class="st3" d="M16.4,490.1c-3.9-6.3-3-14.7,2.4-20.1c6.4-6.4,16.8-6.4,23.2,0s6.4,16.8,0,23.2c-5.5,5.5-13.8,6.3-20.1,2.4"
				/>
			<path class="st3" d="M18.8,493.1L18.8,493.1"/>
			<path class="st3" d="M43.1,481.5h-0.6"/>
			<path class="st3" d="M17.6,481.6h0.6"/>
			<path class="st3" d="M30.4,494.3v-0.6"/>
			<path class="st3" d="M30.4,468.8v0.6"/>
			<path class="st3" d="M28.8,483.2l-3.7,3.7"/>
			<path class="st3" d="M32,483.2l7,7"/>
		</g>
	</g>
</g>
</svg>
