<?xml version="1.0" encoding="utf-8"?>
<!-- Generator: Adobe Illustrator 26.0.3, SVG Export Plug-In . SVG Version: 6.00 Build 0)  -->
<svg version="1.1" id="Layer_1" xmlns="http://www.w3.org/2000/svg" xmlns:xlink="http://www.w3.org/1999/xlink" x="0px" y="0px"
	 viewBox="0 0 80 80" style="enable-background:new 0 0 80 80;" xml:space="preserve">
<style type="text/css">
	.st0{fill:#FFFFFF;}
</style>
<g>
	<path class="st0" d="M19.8,33.3c0,0.8-0.7,1.3-1.4,1.3c-0.8,0-1.3-0.7-1.3-1.4c0-0.8,0.7-1.3,1.4-1.3
		C19.2,31.9,19.8,32.6,19.8,33.3z M74.2,56l-4.1,1.6c-0.4,0.1-0.7,0.2-1.1,0.2c-1.3,0-2.5-0.8-2.9-2l-0.4-0.9l-3.3,1.4
		c0.2,0.9,0,1.9-0.5,2.8c-0.6,1-1.5,1.7-2.6,2.1c0,0-0.1,0-0.1,0c0.4,1.1,0.3,2.3-0.3,3.4c-0.9,1.6-2.6,2.4-4.3,2.2
		c0.1,0.8-0.1,1.6-0.5,2.3c-0.6,1-1.5,1.7-2.6,2.1c-0.7,0.2-1.4,0.2-2.1,0.1c0,0.8-0.2,1.5-0.5,2.2c-0.6,1-1.5,1.8-2.6,2.1
		c-0.4,0.1-0.8,0.2-1.2,0.2c-0.7,0-1.4-0.2-2.1-0.6l-1.1-0.6c-0.6,0.8-1.4,1.4-2.3,1.7c-0.4,0.1-0.9,0.2-1.3,0.2
		c-0.7,0-1.4-0.2-2.1-0.5c-0.9-0.5-1.7-1.3-2-2.3c-1.2,0.5-2.6,0.5-3.8-0.2c-0.9-0.5-1.5-1.2-1.9-2c-1.3,0.7-2.8,0.7-4.2,0
		c-1.7-0.9-2.5-2.8-2.3-4.5c-0.8,0-1.5-0.2-2.2-0.5c-1-0.6-1.8-1.5-2.1-2.6c-0.3-1.1-0.2-2.3,0.3-3.3l1.1-2.1
		c-0.2-0.6-0.4-1.2-0.5-1.9c-0.2-1.1-0.4-1.8-0.9-2c-0.2-0.1-0.7-0.3-2.4-1l-0.4,1c-0.3,0.8-1,1.4-1.7,1.7c-0.4,0.1-0.8,0.2-1.1,0.2
		c-0.4,0-0.9-0.1-1.3-0.3l-4-1.8c-1.6-0.7-2.3-2.6-1.6-4.2l9.2-20.9c0.3-0.8,1-1.4,1.7-1.7c0.8-0.3,1.6-0.3,2.4,0.1l4,1.8
		c0.8,0.3,1.4,1,1.7,1.7c0.3,0.8,0.3,1.6-0.1,2.4L23.5,35l2.6,1.2c0,0,0.1,0,0.1,0c0.8,0.4,1.6,0.5,2.4,0.5
		c-2.8-3.3-4.3-7.5-4.3-11.9V12.6c0-0.5,0.3-0.9,0.7-1.1L40.1,5c0.3-0.1,0.6-0.1,0.9,0l15.1,6.5c0.4,0.2,0.7,0.6,0.7,1.1v12.2
		c0,4.6-1.6,8.9-4.5,12.2c1.6,0.6,2.8,0.9,3.8,0.4l2.3-1.2l-0.6-1.6c-0.6-1.6,0.2-3.5,1.8-4.1l4.1-1.6c1.6-0.6,3.5,0.2,4.1,1.8
		L76,51.9C76.7,53.6,75.9,55.4,74.2,56z M26.6,24.8c0,4.4,1.7,8.4,4.7,11.4c0.7-0.2,1.4-0.3,2.1-0.4c-3.2-2.7-5-6.6-5-11v-9.6
		c0-0.5,0.3-0.9,0.7-1.1l11.1-4.8c0.3-0.1,0.6-0.1,0.9,0l11.1,4.8c0.4,0.2,0.7,0.6,0.7,1.1v9.6c0,4.2-1.7,8-4.7,10.8
		c0.7,0.1,1.3,0.3,1.9,0.6c2.9-3,4.5-7,4.5-11.3V13.3l-14-6l-14,6L26.6,24.8z M44.4,35.4c3.9-2.3,6.1-6.1,6.1-10.6V16l-10-4.3
		l-10,4.3v8.8c0,5.8,3.9,10.6,9.8,12.1C41.8,36.1,43.1,35.6,44.4,35.4z M22.1,32.5c0.1-0.2,0.1-0.4,0-0.7c-0.1-0.2-0.2-0.4-0.4-0.5
		l-4-1.8c-0.4-0.2-0.9,0-1.1,0.4L7.2,50.9c-0.2,0.4,0,0.9,0.4,1.1l4,1.8c0.2,0.1,0.4,0.1,0.7,0c0.2-0.1,0.4-0.2,0.5-0.4L22.1,32.5z
		 M23.2,64l2.6-4.6c0.4-1,0-2.2-0.9-2.7c-1-0.5-2.3-0.2-2.8,0.9l-2,3.7c-0.3,0.5-0.3,1.1-0.2,1.6c0.2,0.5,0.5,1,1,1.2
		C21.6,64.6,22.5,64.5,23.2,64z M28.2,68.4l2.9-5.6c0.2-0.9-0.3-1.8-1.1-2.3c-0.7-0.4-1.6-0.3-2.3,0.2l-3.3,5.7
		c-0.5,1-0.2,2.3,0.9,2.8C26.4,69.8,27.6,69.4,28.2,68.4L28.2,68.4z M34.1,70.7l2.6-5c0.2-0.9-0.3-1.8-1.1-2.3
		c-0.8-0.4-1.8-0.3-2.5,0.4l-2.8,5.4c-0.1,0.8,0.4,1.6,1.1,2C32.3,71.8,33.5,71.5,34.1,70.7L34.1,70.7z M40.1,72.9l1.9-3.6
		c0.4-0.7,0.3-1.6-0.2-2.2c-0.2-0.2-0.4-0.5-0.7-0.6c-0.8-0.4-1.8-0.3-2.5,0.4l-2.5,4.9c-0.1,0.8,0.3,1.7,1.1,2.1
		c0.5,0.3,1.1,0.3,1.6,0.2C39.4,73.7,39.8,73.4,40.1,72.9L40.1,72.9z M46,69.6c-0.1,0-1.5-0.9-1.5-0.9c-0.1,0.6-0.2,1.1-0.5,1.7
		l-1.1,2l1.2,0.7c0.4,0.3,1,0.3,1.5,0.2c0.5-0.1,1-0.5,1.2-1C47.3,71.3,47,70.1,46,69.6L46,69.6z M59.9,56.1
		c-0.2-0.4-0.5-0.7-0.8-0.9L48.2,49c-1.8-1.1-4.2-0.1-6.8,1c-2,0.8-4.2,1.7-6.5,1.7c-2.2,0-4.5-0.9-6.6-3.5
		c-0.5-0.7-0.4-1.6,0.3-2.1c0.1,0,0.1-0.1,0.2-0.1c3.1-1.8,5.7-3.8,7.7-5.8c0.5-0.6,1.1-1,1.6-1.5c-2.4-1-4.4-0.6-6.5-0.1
		c-2.1,0.5-4.2,1-6.4-0.2l-2.5-1.2l-6.2,14.1c1.5,0.7,2.1,0.9,2.3,1c1.5,0.6,2,2.1,2.2,3.3c1.3-1.3,3.4-1.7,5.2-0.7
		c1.3,0.7,2.1,1.9,2.3,3.3c1-0.2,2,0,2.9,0.4c1,0.6,1.8,1.5,2.2,2.7c1.1-0.4,2.4-0.2,3.4,0.3c1,0.6,1.8,1.5,2.2,2.7
		c1.1-0.4,2.4-0.2,3.4,0.3c0.5,0.3,1,0.6,1.3,1.1l5.7,3.2c0.5,0.3,1,0.3,1.5,0.2c0.5-0.1,0.9-0.5,1.2-1c0.5-1,0.2-2.2-0.8-2.7
		c-0.1,0-8-4.6-8-4.6c-0.6-0.3-0.8-1-0.4-1.6c0.3-0.6,1-0.8,1.6-0.4l9.9,5.5c1,0.5,2.2,0.2,2.7-0.8c0.5-1,0.2-2.2-0.8-2.7l0,0
		c-2.3-1.3-4.9-2.8-7.5-4.2c-0.6-0.3-0.7-1-0.4-1.6c0.3-0.6,1-0.7,1.6-0.4c2.6,1.5,5.2,2.9,7.5,4.2c0.5,0.3,1,0.3,1.5,0.2
		c0.5-0.1,1-0.5,1.2-1C60.2,57.4,60.2,56.7,59.9,56.1L59.9,56.1z M64.9,52.7l-5.6-14.4l-2,1.1c-2.2,1.2-4.4,0.3-6.5-0.5
		c-3.5-1.4-7.1-2.8-12.7,2.8c-2,2-4.5,3.9-7.4,5.7c3,3.2,6.2,1.9,9.8,0.4c3-1.2,6-2.4,8.8-0.8l10.9,6.2c0.4,0.3,0.8,0.6,1.2,1
		L64.9,52.7z M73.9,52.8l-8.2-21.3c-0.2-0.4-0.7-0.7-1.1-0.5l-4.1,1.6c-0.4,0.2-0.7,0.7-0.5,1.1L68.2,55c0.2,0.4,0.7,0.7,1.1,0.5
		l4.1-1.6C73.8,53.7,74.1,53.2,73.9,52.8L73.9,52.8z M63.6,33.2c-0.8,0-1.4,0.6-1.4,1.4c0,0.8,0.6,1.4,1.4,1.4s1.4-0.6,1.4-1.4
		C64.9,33.8,64.3,33.2,63.6,33.2z M41.1,30c-0.6,0.6-1.3,0.9-2.1,0.9c-0.8,0-1.6-0.3-2.1-0.9l-4.1-4.1c-1.2-1.2-1.2-3.1,0-4.2
		c0.6-0.6,1.3-0.9,2.1-0.9s1.6,0.3,2.1,0.9l2,2l5.2-5.3c0.6-0.6,1.3-0.9,2.1-0.9h0c0.8,0,1.6,0.3,2.1,0.9c1.2,1.2,1.2,3.1,0,4.2
		c-0.9,0.9-1.8,1.8-2.7,2.8C44.2,26.8,42.6,28.4,41.1,30L41.1,30z M39.4,28.4c1.5-1.5,3.1-3.1,4.6-4.7c0.9-0.9,1.8-1.8,2.7-2.8
		c0.3-0.3,0.3-0.7,0-1c-0.1-0.1-0.3-0.2-0.5-0.2c-0.2,0-0.4,0.1-0.5,0.2l-6.1,6.1c-0.2,0.2-0.5,0.3-0.8,0.3h0
		c-0.3,0-0.6-0.1-0.8-0.3l-2.8-2.8c-0.1-0.1-0.3-0.2-0.5-0.2c-0.2,0-0.4,0.1-0.5,0.2c-0.3,0.3-0.3,0.7,0,1l4.1,4.1
		c0.1,0.1,0.3,0.2,0.5,0.2C39.1,28.6,39.3,28.5,39.4,28.4L39.4,28.4z"/>
</g>
</svg>
