<?xml version="1.0" encoding="utf-8"?>
<!-- Generator: Adobe Illustrator 26.0.3, SVG Export Plug-In . SVG Version: 6.00 Build 0)  -->
<svg version="1.1" id="Layer_1" xmlns="http://www.w3.org/2000/svg" xmlns:xlink="http://www.w3.org/1999/xlink" x="0px" y="0px"
	 viewBox="0 0 80 80" style="enable-background:new 0 0 80 80;" xml:space="preserve">
<style type="text/css">
	.st0{fill:#00A7FF;}
</style>
<g>
	<path class="st0" d="M18.3,32.8c0,0.8-0.7,1.4-1.5,1.4c-0.8,0-1.4-0.7-1.4-1.5c0-0.8,0.7-1.4,1.5-1.4C17.8,31.3,18.4,32,18.3,32.8z
		 M76.5,57.1l-4.4,1.7C71.8,58.9,71.4,59,71,59c-1.4,0-2.6-0.8-3.1-2.2l-0.4-1l-3.6,1.5c0.2,1,0,2.1-0.5,3c-0.6,1.1-1.6,1.9-2.8,2.2
		c0,0-0.1,0-0.1,0c0.4,1.2,0.3,2.5-0.3,3.7c-0.9,1.7-2.8,2.6-4.6,2.3c0.1,0.9-0.1,1.7-0.6,2.5c-0.6,1.1-1.6,1.9-2.8,2.2
		c-0.7,0.2-1.5,0.2-2.2,0.1c0,0.8-0.2,1.6-0.6,2.3c-0.6,1.1-1.6,1.9-2.8,2.2c-0.4,0.1-0.8,0.2-1.2,0.2c-0.8,0-1.5-0.2-2.2-0.6
		l-1.2-0.7c-0.6,0.8-1.5,1.5-2.5,1.8c-0.4,0.1-0.9,0.2-1.4,0.2c-0.8,0-1.5-0.2-2.2-0.6c-1-0.5-1.8-1.4-2.2-2.5
		c-1.3,0.5-2.8,0.5-4.1-0.2c-0.9-0.5-1.6-1.3-2-2.2c-1.3,0.7-3,0.8-4.5,0c-1.8-1-2.7-2.9-2.4-4.9c-0.8,0-1.6-0.2-2.3-0.6
		c-1.1-0.6-1.9-1.6-2.3-2.8c-0.4-1.2-0.2-2.5,0.3-3.6l1.2-2.2c-0.3-0.6-0.4-1.3-0.5-2c-0.2-1.2-0.4-2-0.9-2.2
		c-0.2-0.1-0.7-0.3-2.5-1.1l-0.5,1.1c-0.4,0.8-1,1.5-1.9,1.8c-0.4,0.2-0.8,0.2-1.2,0.2c-0.5,0-0.9-0.1-1.4-0.3l-4.3-1.9
		c-1.7-0.8-2.5-2.7-1.7-4.4l9.9-22.3c0.4-0.8,1-1.5,1.9-1.8c0.8-0.3,1.8-0.3,2.6,0.1l4.3,1.9c0.8,0.4,1.5,1,1.8,1.9
		c0.3,0.8,0.3,1.8-0.1,2.6l-0.7,1.7l2.8,1.3c0,0,0.1,0,0.1,0c0.8,0.5,1.7,0.6,2.6,0.5c-3-3.5-4.6-8-4.6-12.8V10.6
		c0-0.5,0.3-0.9,0.7-1.1l16.2-6.9c0.3-0.1,0.7-0.1,1,0l16.2,6.9c0.5,0.2,0.7,0.6,0.7,1.1v13.1c0,4.9-1.7,9.5-4.8,13.1
		c1.8,0.7,3,1,4.1,0.4l2.4-1.3L59,34.1c-0.7-1.7,0.2-3.7,1.9-4.4l4.4-1.7c1.7-0.7,3.7,0.2,4.4,1.9l8.8,22.7
		C79.1,54.4,78.3,56.4,76.5,57.1z M25.6,23.7c0,4.7,1.8,9,5,12.2c0.7-0.2,1.4-0.3,2.2-0.4c-3.4-2.9-5.4-7.1-5.4-11.8V13.5
		c0-0.5,0.3-0.9,0.7-1.1l11.9-5.1c0.3-0.1,0.7-0.1,1,0l11.9,5.1c0.5,0.2,0.7,0.6,0.7,1.1v10.2c0,4.5-1.8,8.6-5.1,11.5
		c0.7,0.2,1.4,0.4,2.1,0.6c3.1-3.2,4.9-7.5,4.9-12.1V11.4L40.6,5l-14.9,6.4L25.6,23.7z M44.6,35.1c4.2-2.4,6.6-6.5,6.6-11.4v-9.4
		L40.6,9.7l-10.6,4.6v9.4c0,6.2,4.2,11.4,10.5,12.9C41.9,35.7,43.3,35.3,44.6,35.1z M20.8,32c0.1-0.2,0.1-0.5,0-0.7
		c-0.1-0.2-0.3-0.4-0.5-0.5L16,28.9c-0.5-0.2-1,0-1.2,0.5L5,51.6c-0.2,0.5,0,1,0.5,1.2l4.3,1.9c0.2,0.1,0.5,0.1,0.7,0
		c0.2-0.1,0.4-0.3,0.5-0.5L20.8,32z M22,65.6l2.8-4.9c0.5-1.1,0-2.3-1-2.9c-1.1-0.6-2.4-0.2-3,0.9l-2.1,4c-0.3,0.5-0.3,1.1-0.2,1.7
		c0.2,0.6,0.6,1,1.1,1.3C20.3,66.3,21.3,66.2,22,65.6z M27.3,70.3l3.1-6c0.2-1-0.3-2-1.1-2.4c-0.8-0.4-1.7-0.3-2.4,0.2l-3.5,6.1
		c-0.6,1.1-0.2,2.4,0.9,3C25.4,71.8,26.8,71.4,27.3,70.3L27.3,70.3z M33.6,72.8l2.8-5.3c0.2-1-0.3-2-1.1-2.4
		c-0.9-0.5-1.9-0.3-2.6,0.4l-3,5.8c-0.1,0.9,0.4,1.7,1.2,2.1C31.8,73.9,33,73.6,33.6,72.8L33.6,72.8z M40.1,75.1l2-3.8
		c0.4-0.8,0.3-1.7-0.2-2.4c-0.2-0.3-0.4-0.5-0.7-0.6c-0.9-0.5-1.9-0.3-2.6,0.4l-2.7,5.2c-0.1,0.9,0.4,1.8,1.2,2.2
		c0.5,0.3,1.1,0.3,1.7,0.2C39.3,76,39.8,75.6,40.1,75.1L40.1,75.1z M46.4,71.6c-0.1,0-1.6-0.9-1.6-0.9c-0.1,0.6-0.2,1.2-0.5,1.8
		l-1.2,2.2l1.2,0.7c0.5,0.3,1,0.3,1.6,0.2c0.6-0.2,1-0.5,1.3-1C47.8,73.5,47.4,72.1,46.4,71.6L46.4,71.6z M61.3,57.2
		c-0.2-0.4-0.5-0.7-0.9-1l-11.6-6.6c-2-1.1-4.4-0.1-7.3,1c-2.1,0.9-4.5,1.8-7,1.8c-2.4,0-4.8-0.9-7-3.8c-0.6-0.7-0.4-1.7,0.3-2.3
		c0.1,0,0.1-0.1,0.2-0.1c3.3-1.9,6.1-4,8.2-6.2c0.6-0.6,1.2-1.1,1.7-1.6c-2.5-1.1-4.7-0.6-6.9-0.1c-2.2,0.5-4.5,1.1-6.9-0.2
		l-2.7-1.3l-6.7,15.1c1.6,0.7,2.2,1,2.4,1.1c1.6,0.6,2.1,2.2,2.4,3.5c1.4-1.4,3.7-1.8,5.5-0.8c1.4,0.7,2.2,2.1,2.4,3.5
		c1-0.2,2.1,0,3.1,0.5c1.1,0.6,1.9,1.6,2.3,2.8c1.2-0.4,2.5-0.3,3.6,0.3c1.1,0.6,1.9,1.6,2.3,2.8c1.2-0.4,2.5-0.3,3.6,0.3
		c0.5,0.3,1,0.7,1.4,1.2l6.1,3.5c0.5,0.3,1.1,0.3,1.6,0.2c0.6-0.2,1-0.5,1.3-1c0.6-1,0.2-2.3-0.9-2.9c-0.1,0-8.6-4.9-8.6-4.9
		c-0.6-0.3-0.8-1.1-0.5-1.7s1.1-0.8,1.7-0.5l10.5,5.9c1,0.6,2.3,0.2,2.9-0.8c0.6-1,0.2-2.3-0.9-2.9l0,0c-2.5-1.4-5.3-3-8-4.5
		c-0.6-0.3-0.8-1.1-0.5-1.7c0.3-0.6,1.1-0.8,1.7-0.5c2.7,1.6,5.5,3.1,8,4.5c0.5,0.3,1.1,0.3,1.6,0.2c0.6-0.2,1-0.5,1.3-1
		C61.5,58.5,61.6,57.8,61.3,57.2L61.3,57.2z M66.5,53.6l-6-15.4l-2.2,1.2c-2.4,1.2-4.7,0.3-6.9-0.6c-3.7-1.5-7.6-3-13.6,3
		c-2.1,2.2-4.8,4.2-7.9,6.1c3.2,3.4,6.6,2,10.5,0.5c3.2-1.3,6.4-2.6,9.4-0.9l11.6,6.6c0.5,0.3,0.9,0.6,1.2,1L66.5,53.6z M76.2,53.6
		l-8.8-22.7c-0.2-0.5-0.7-0.7-1.2-0.5L61.8,32c-0.5,0.2-0.7,0.7-0.5,1.2L70.1,56c0.2,0.5,0.7,0.7,1.2,0.5l4.4-1.7
		C76.1,54.6,76.4,54.1,76.2,53.6L76.2,53.6z M65.2,32.7c-0.8,0-1.5,0.7-1.5,1.5c0,0.8,0.7,1.5,1.5,1.5s1.5-0.7,1.5-1.5
		C66.6,33.4,66,32.7,65.2,32.7z M41.1,29.3c-0.6,0.6-1.4,0.9-2.3,0.9c-0.9,0-1.7-0.3-2.3-0.9l-4.4-4.4c-1.2-1.2-1.2-3.3,0-4.5
		c0.6-0.6,1.4-0.9,2.3-0.9s1.7,0.3,2.3,0.9l2.1,2.1l5.6-5.7c0.6-0.6,1.4-0.9,2.3-0.9h0c0.8,0,1.7,0.3,2.3,0.9c1.2,1.2,1.3,3.3,0,4.5
		c-1,1-1.9,2-2.9,3C44.4,25.9,42.7,27.6,41.1,29.3L41.1,29.3z M39.3,27.5c1.7-1.7,3.3-3.3,4.9-5c1-1,1.9-2,2.9-3
		c0.3-0.3,0.3-0.8,0-1c-0.1-0.1-0.3-0.2-0.5-0.2c-0.2,0-0.4,0.1-0.5,0.2l-6.5,6.5c-0.2,0.2-0.5,0.4-0.9,0.4h0
		c-0.3,0-0.6-0.1-0.9-0.4l-3-3c-0.1-0.1-0.3-0.2-0.5-0.2c-0.2,0-0.4,0.1-0.5,0.2c-0.3,0.3-0.3,0.8,0,1.1l4.4,4.4
		c0.1,0.1,0.3,0.2,0.5,0.2C39,27.7,39.2,27.7,39.3,27.5L39.3,27.5z"/>
</g>
</svg>
