<?xml version="1.0" encoding="utf-8"?>
<!-- Generator: Adobe Illustrator 26.0.3, SVG Export Plug-In . SVG Version: 6.00 Build 0)  -->
<svg version="1.1" id="Layer_1" xmlns="http://www.w3.org/2000/svg" xmlns:xlink="http://www.w3.org/1999/xlink" x="0px" y="0px"
	 viewBox="0 0 80 80" style="enable-background:new 0 0 80 80;" xml:space="preserve">
<style type="text/css">
	.st0{fill:#FFFFFF;}
</style>
<g>
	<path class="st0" d="M72,5H17.8c-3.7,0-6.7,3-6.7,6.7v51.5H5c-0.5,0-0.9,0.4-0.9,0.9v6c0,3.8,3.1,6.9,6.9,6.9h49
		c3.8,0,6.9-3.1,6.9-6.9V18.9H78c0.5,0,0.9-0.4,0.9-0.9v-6C78.9,8.1,75.8,5,72,5z M11,75c-2.8,0-5-2.3-5-5v-5h47.1v5
		c0,2,0.8,3.8,2.2,5H11z M65,70c0,2.8-2.3,5-5,5s-5-2.3-5-5v-6c0-0.5-0.4-0.9-0.9-0.9H13V11.6c0-2.6,2.2-4.8,4.8-4.8h49.4
		C65.9,8.1,65,9.9,65,11.9L65,70L65,70z M77,17H66.9v-5.1c0-2.8,2.3-5.1,5.1-5.1c2.8,0,5.1,2.3,5.1,5.1V17z M60.3,11.7
		c-2.5-0.6-4.9-1.7-6.6-3.1c-0.3-0.3-0.9-0.3-1.2,0c-1.6,1.4-4,2.5-6.6,3.1c-0.4,0.1-0.7,0.4-0.7,0.8c-0.3,4.2,0.2,7.4,1.7,9.8
		c1.2,2,3.1,3.4,5.8,4.5c0.2,0.1,0.5,0.1,0.7,0c2.7-1.1,4.6-2.5,5.8-4.5c1.5-2.4,2.1-5.6,1.7-9.8C61,12.1,60.7,11.8,60.3,11.7
		L60.3,11.7z M57.7,21.3c-1,1.6-2.4,2.7-4.6,3.6c-2.2-0.9-3.6-2.1-4.6-3.6c-1.2-1.9-1.7-4.6-1.5-8c2.3-0.6,4.4-1.6,6.1-2.9
		c1.7,1.2,3.8,2.2,6.1,2.9C59.4,16.8,58.9,19.4,57.7,21.3z M57.8,14.4c0.4,0.4,0.4,1,0,1.3L53,20.5c-0.4,0.4-1,0.4-1.3,0
		c0,0,0,0,0,0l-2.1-2.1c-0.4-0.4-0.4-1,0-1.3c0.4-0.4,1-0.4,1.3,0l1.5,1.5l4.1-4.1C56.8,14,57.4,14,57.8,14.4L57.8,14.4z M29.4,31.2
		c0.4,0.4,0.4,1,0,1.3l-5.5,5.5c-0.4,0.4-1,0.4-1.3,0c0,0,0,0,0,0l-3.2-3.2c-0.4-0.4-0.4-1,0-1.3c0.4-0.4,1-0.4,1.3,0l2.5,2.5
		l4.9-4.9C28.4,30.9,29,30.9,29.4,31.2C29.4,31.2,29.4,31.2,29.4,31.2L29.4,31.2z M29.4,41.4c0.4,0.4,0.4,1,0,1.3l-5.5,5.5
		c-0.4,0.4-1,0.4-1.3,0c0,0,0,0,0,0l-3.2-3.2c-0.4-0.4-0.4-1,0-1.3c0.4-0.4,1-0.4,1.3,0l2.5,2.5l4.9-4.9
		C28.4,41.1,29,41.1,29.4,41.4C29.4,41.4,29.4,41.4,29.4,41.4L29.4,41.4z M29.4,51.6c0.4,0.4,0.4,1,0,1.3l-5.5,5.5
		c-0.2,0.2-0.4,0.3-0.7,0.3s-0.5-0.1-0.7-0.3l-3.2-3.2c-0.4-0.4-0.4-1,0-1.3c0.4-0.4,1-0.4,1.3,0l2.5,2.5l4.9-4.9
		C28.4,51.3,29,51.3,29.4,51.6C29.4,51.6,29.4,51.6,29.4,51.6L29.4,51.6z M32.6,31.3h17.1c0.5,0,0.9,0.4,0.9,0.9s-0.4,0.9-0.9,0.9
		H32.6c-0.5,0-0.9-0.4-0.9-0.9S32.1,31.3,32.6,31.3L32.6,31.3z M58.5,36.5c0,0.5-0.4,0.9-0.9,0.9h-25c-0.5,0-0.9-0.4-0.9-0.9
		c0-0.5,0.4-0.9,0.9-0.9h25C58.1,35.5,58.5,35.9,58.5,36.5z M31.7,42.7c0-0.5,0.4-0.9,0.9-0.9h17.1c0.5,0,0.9,0.4,0.9,0.9
		c0,0.5-0.4,0.9-0.9,0.9H32.6C32.1,43.6,31.7,43.2,31.7,42.7L31.7,42.7z M58.5,46.9c0,0.5-0.4,0.9-0.9,0.9h-25
		c-0.5,0-0.9-0.4-0.9-0.9s0.4-0.9,0.9-0.9h25C58.1,46,58.5,46.4,58.5,46.9C58.5,46.9,58.5,46.9,58.5,46.9z M31.7,53.2
		c0-0.5,0.4-0.9,0.9-0.9h17.1c0.5,0,0.9,0.4,0.9,0.9s-0.4,0.9-0.9,0.9H32.6C32.1,54.1,31.7,53.7,31.7,53.2L31.7,53.2z M58.5,57.4
		c0,0.5-0.4,0.9-0.9,0.9h-25c-0.5,0-0.9-0.4-0.9-0.9c0-0.5,0.4-0.9,0.9-0.9h25C58.1,56.4,58.5,56.9,58.5,57.4
		C58.5,57.4,58.5,57.4,58.5,57.4z M19,20.5h17.7c0.5,0,0.9,0.4,0.9,0.9c0,0.5-0.4,0.9-0.9,0.9H19c-0.5,0-0.9-0.4-0.9-0.9
		C18.1,21,18.5,20.5,19,20.5z M44,26.9H19c-0.5,0-0.9-0.4-0.9-0.9c0-0.5,0.4-0.9,0.9-0.9h25c0.5,0,0.9,0.4,0.9,0.9
		C44.9,26.5,44.5,26.9,44,26.9z M17.9,17c0-0.5,0.4-0.9,0.9-0.9h10.9c0.5,0,0.9,0.4,0.9,0.9c0,0.5-0.4,0.9-0.9,0.9H18.8
		C18.3,17.9,17.9,17.5,17.9,17z"/>
</g>
</svg>
