<?xml version="1.0" encoding="utf-8"?>
<!-- Generator: Adobe Illustrator 26.0.3, SVG Export Plug-In . SVG Version: 6.00 Build 0)  -->
<svg version="1.1" id="Layer_1" xmlns="http://www.w3.org/2000/svg" xmlns:xlink="http://www.w3.org/1999/xlink" x="0px" y="0px"
	 viewBox="0 0 16 16" style="enable-background:new 0 0 16 16;" xml:space="preserve">
<style type="text/css">
	.st0{fill:#029BFF;}
</style>
<g>
	<path class="st0" d="M14,1.1H3.3c-0.7,0-1.3,0.5-1.3,1.3v10.2H0.8c-0.2,0-0.2,0-0.2,0.2v1.1c0,0.7,0.5,1.3,1.3,1.3h9.8
		c0.7,0,1.3-0.5,1.3-1.3v-10h2.2c0.2,0,0.2,0,0.2-0.2V2.3C15.3,1.6,14.8,1.1,14,1.1z M2.1,14.9c-0.5,0-0.9-0.4-0.9-0.9V13h9.3v0.9
		c0,0.4,0.2,0.7,0.4,0.9H2.1z M12.6,13.8c0,0.5-0.4,0.9-0.9,0.9c-0.5,0-0.9-0.4-0.9-0.9v-1.1c0-0.2,0-0.2-0.2-0.2H2.4V2.3
		c0-0.5,0.4-0.9,0.9-0.9h9.8c-0.2,0.2-0.4,0.5-0.4,1.1L12.6,13.8L12.6,13.8z M14.9,3.4h-2V2.3c0-0.5,0.4-1.1,1.1-1.1
		s1.1,0.4,1.1,1.1v1.1H14.9z M11.7,2.3c-0.5,0-0.9-0.4-1.3-0.5h-0.2C9.9,2,9.3,2.3,8.9,2.3c0,0-0.2,0-0.2,0.2c0,0.9,0,1.5,0.4,2
		c0.2,0.4,0.5,0.7,1.1,0.9h0.2c0.5-0.2,0.9-0.5,1.1-0.9C11.9,4,11.9,3.4,11.7,2.3C11.9,2.5,11.9,2.3,11.7,2.3L11.7,2.3z M11.1,4.3
		c-0.2,0.2-0.4,0.5-0.9,0.7C9.9,4.9,9.5,4.5,9.3,4.3C9.1,4,9.1,3.4,9.1,2.7c0.4-0.2,0.9-0.4,1.1-0.5c0.4,0.2,0.9,0.4,1.3,0.5
		C11.5,3.4,11.5,4,11.1,4.3z M11.1,2.9v0.2l-0.9,1.1H10l0,0L9.7,3.6V3.4h0.2l0.4,0.4l0.7-0.7C10.9,2.9,11.1,2.9,11.1,2.9L11.1,2.9z
		 M5.7,6.1v0.2L4.6,7.6H4.4l0,0L3.7,6.9V6.7h0.2l0.5,0.5l0.9-1.1C5.5,6.1,5.5,6.1,5.7,6.1L5.7,6.1L5.7,6.1z M5.7,8.1v0.2L4.6,9.6
		H4.4l0,0L3.7,9V8.9h0.2l0.5,0.4l0.9-0.9C5.5,8.1,5.5,8.1,5.7,8.1L5.7,8.1L5.7,8.1z M5.7,10.3v0.2l-1.1,1.1c0,0,0,0-0.2,0
		c-0.2,0-0.2,0-0.2,0L3.7,11v-0.2h0.2l0.5,0.4l0.9-0.9C5.5,10.1,5.5,10.1,5.7,10.3L5.7,10.3L5.7,10.3z M6.2,6.3h3.4
		c0.2,0,0.2,0,0.2,0.2s0,0.2-0.2,0.2H6.2C6,6.7,6,6.7,6,6.5S6.2,6.3,6.2,6.3L6.2,6.3z M11.3,7.2c0,0.2,0,0.2-0.2,0.2H6.2
		C6,7.4,6,7.4,6,7.2c0-0.2,0-0.2,0.2-0.2h4.9C11.3,7.1,11.3,7.2,11.3,7.2z M6,8.5c0-0.2,0-0.2,0.2-0.2h3.4c0.2,0,0.2,0,0.2,0.2
		s0,0.2-0.2,0.2H6.2C6.2,8.7,6,8.5,6,8.5L6,8.5z M11.3,9.2c0,0.2,0,0.2-0.2,0.2H6.2C6,9.4,6,9.4,6,9.2C6,9,6,9,6.2,9h4.9
		C11.3,9,11.3,9.2,11.3,9.2L11.3,9.2z M6,10.5c0-0.2,0-0.2,0.2-0.2h3.4c0.2,0,0.2,0,0.2,0.2c0,0.2,0,0.2-0.2,0.2H6.2
		C6.2,10.7,6,10.7,6,10.5L6,10.5z M11.3,11.4c0,0.2,0,0.2-0.2,0.2H6.2c-0.2,0-0.2,0-0.2-0.2c0-0.2,0.2-0.2,0.2-0.2h4.9
		C11.3,11.2,11.3,11.2,11.3,11.4L11.3,11.4z M3.5,4.1H7c0.2,0,0.2,0,0.2,0.2c0,0.2,0,0.2-0.2,0.2H3.5L3.3,4.3
		C3.3,4.1,3.5,4.1,3.5,4.1z M8.6,5.4H3.5c-0.2,0-0.2,0-0.2-0.2s0-0.2,0.2-0.2h4.9c0.2,0,0.2,0,0.2,0.2C8.8,5.2,8.6,5.4,8.6,5.4z
		 M3.3,3.4c0-0.2,0-0.2,0.2-0.2h2.2c0.2,0,0.2,0,0.2,0.2c0,0.2,0,0.2-0.2,0.2H3.5C3.5,3.6,3.3,3.6,3.3,3.4z"/>
</g>
</svg>
