<?xml version="1.0" encoding="utf-8"?>
<!-- Generator: Adobe Illustrator 26.0.3, SVG Export Plug-In . SVG Version: 6.00 Build 0)  -->
<svg version="1.1" id="Layer_1" xmlns="http://www.w3.org/2000/svg" xmlns:xlink="http://www.w3.org/1999/xlink" x="0px" y="0px"
	 viewBox="0 0 80 80" style="enable-background:new 0 0 80 80;" xml:space="preserve">
<style type="text/css">
	.st0{fill:#009BFF;}
</style>
<g>
	<path class="st0" d="M74.1,33h-4.4c-0.1,0-0.1,0-0.1-0.1c-0.7-3.1-2-6.1-3.7-8.8c0-0.1,0-0.1,0-0.2l3.1-3.1c0.4-0.4,0.7-1,0.7-1.6
		c0-0.6-0.2-1.2-0.7-1.6L62.4,11c-0.4-0.4-1-0.7-1.6-0.7c-0.6,0-1.2,0.2-1.6,0.7l-3.1,3.1c0,0-0.1,0.1-0.2,0
		c-2.7-1.7-5.7-2.9-8.8-3.7c-0.1,0-0.1-0.1-0.1-0.1V5.9c0-1.3-1-2.3-2.3-2.3h-9.4c-1.3,0-2.3,1-2.3,2.3v4.4c0,0.1,0,0.1-0.1,0.1
		c-3.1,0.7-6.1,2-8.8,3.7c-0.1,0-0.1,0-0.2,0L20.8,11c-0.4-0.4-1-0.7-1.6-0.7c-0.6,0-1.2,0.2-1.6,0.7L11,17.6
		c-0.4,0.4-0.7,1-0.7,1.6c0,0.6,0.2,1.2,0.7,1.6l3.1,3.1c0,0,0.1,0.1,0,0.2c-1.7,2.7-2.9,5.7-3.7,8.8c0,0.1-0.1,0.1-0.1,0.1H5.9
		c-1.3,0-2.3,1-2.3,2.3v9.4c0,1.3,1,2.3,2.3,2.3h4.4c0.1,0,0.1,0,0.1,0.1c0.7,3.1,2,6.1,3.7,8.8c0,0.1,0,0.1,0,0.2L11,59.2
		c-0.4,0.4-0.7,1-0.7,1.6c0,0.6,0.2,1.2,0.7,1.6l6.6,6.6c0.4,0.4,1,0.7,1.6,0.7c0.6,0,1.2-0.2,1.6-0.7l3.1-3.1c0,0,0.1-0.1,0.2,0
		c2.7,1.7,5.7,2.9,8.8,3.7c0.1,0,0.1,0.1,0.1,0.1v4.4c0,1.3,1,2.3,2.3,2.3h9.4c1.3,0,2.3-1,2.3-2.3v-4.4c0-0.1,0-0.1,0.1-0.1
		c3.1-0.7,6.1-2,8.8-3.7c0.1,0,0.1,0,0.2,0l3.1,3.1c0.4,0.4,1,0.7,1.6,0.7c0.6,0,1.2-0.2,1.6-0.7l1.6-1.6c0.4-0.4,0.4-1.1,0-1.5
		c-0.4-0.4-1.1-0.4-1.5,0l0,0l-1.6,1.6c0,0-0.1,0-0.1,0s-0.1,0-0.1,0l-3.1-3.1c-0.7-0.7-1.9-0.9-2.8-0.3c-2.5,1.6-5.3,2.7-8.2,3.4
		c-1,0.2-1.7,1.2-1.7,2.2v4.4c0,0.1-0.1,0.1-0.1,0.1h-9.4c-0.1,0-0.1-0.1-0.1-0.1v-4.4c0-1.1-0.7-2-1.7-2.2
		c-2.9-0.7-5.7-1.8-8.2-3.4c-0.9-0.6-2.1-0.4-2.8,0.3l-3.1,3.1c0,0-0.1,0-0.1,0s-0.1,0-0.1,0l-6.6-6.6c0,0,0-0.1,0-0.1s0-0.1,0-0.1
		l3.1-3.1c0.7-0.7,0.9-1.9,0.3-2.8c-1.6-2.5-2.7-5.3-3.4-8.2c-0.2-1-1.2-1.7-2.2-1.7H5.9c-0.1,0-0.1-0.1-0.1-0.1v-9.4
		c0-0.1,0.1-0.1,0.1-0.1h4.4c1.1,0,2-0.7,2.2-1.7c0.7-2.9,1.8-5.7,3.4-8.2c0.6-0.9,0.4-2.1-0.3-2.8l-3.1-3.1c0,0,0-0.1,0-0.1
		s0-0.1,0-0.1l6.6-6.6c0,0,0.1,0,0.1,0s0.1,0,0.1,0l3.1,3.1c0.7,0.7,1.9,0.9,2.8,0.3c2.5-1.6,5.3-2.7,8.2-3.4c1-0.2,1.7-1.2,1.7-2.2
		V5.9c0-0.1,0.1-0.1,0.1-0.1h9.4c0.1,0,0.1,0.1,0.1,0.1v4.4c0,1.1,0.7,2,1.7,2.2c2.9,0.7,5.7,1.8,8.2,3.4c0.9,0.6,2.1,0.4,2.8-0.3
		l3.1-3.1c0,0,0.1,0,0.1,0s0.1,0,0.1,0l6.6,6.6c0,0,0,0.1,0,0.1s0,0.1,0,0.1l-3.1,3.1c-0.7,0.7-0.9,1.9-0.3,2.8
		c1.6,2.5,2.7,5.3,3.4,8.2c0.2,1,1.2,1.7,2.2,1.7h4.4c0.1,0,0.1,0.1,0.1,0.1v9.4c0,0.1-0.1,0.1-0.1,0.1h-4.4c-1.1,0-2,0.7-2.2,1.7
		c-0.7,2.9-1.8,5.7-3.4,8.2c-0.6,0.9-0.4,2.1,0.3,2.8l3.1,3.1c0,0,0,0.1,0,0.1s0,0.1,0,0.1l-1.6,1.6c-0.4,0.4-0.4,1.1,0,1.5
		c0.4,0.4,1.1,0.4,1.5,0l1.6-1.6c0.4-0.4,0.7-1,0.7-1.6c0-0.6-0.2-1.2-0.7-1.6l-3.1-3.1c0,0-0.1-0.1,0-0.2c1.7-2.7,2.9-5.7,3.7-8.8
		c0-0.1,0.1-0.1,0.1-0.1h4.4c1.3,0,2.3-1,2.3-2.3v-9.4C76.4,34.1,75.3,33,74.1,33L74.1,33z"/>
	<path class="st0" d="M18.7,35.7c-0.6-0.1-1.1,0.3-1.2,0.9c-0.2,1.1-0.2,2.2-0.2,3.4c0,12.6,10.2,22.8,22.8,22.8S62.8,52.6,62.8,40
		S52.6,17.2,40,17.2c-4.7,0-9.1,1.4-12.9,4c-3.7,2.6-6.6,6.1-8.2,10.3l0,0.1c-0.2,0.5,0.1,1.2,0.6,1.4c0.5,0.2,1.2-0.1,1.4-0.6
		l0-0.1c1.5-3.8,4.1-7,7.5-9.4c3.5-2.4,7.5-3.7,11.7-3.7c11.4,0,20.7,9.3,20.7,20.7S51.4,60.7,40,60.7S19.3,51.4,19.3,40
		c0-1,0.1-2,0.2-3C19.6,36.4,19.2,35.8,18.7,35.7C18.7,35.7,18.7,35.7,18.7,35.7z"/>
	<path class="st0" d="M37,51c0,0,0.1,0,0.1,0c1.2,0,2.4-0.6,3.2-1.5l11.9-12.9c0.8-0.9,1.3-2.1,1.2-3.3c0-1.2-0.6-2.4-1.5-3.2
		c-1.9-1.7-4.8-1.6-6.5,0.3l-8.7,9.4l-2.5-2.4c-1.8-1.8-4.7-1.7-6.5,0.1c-1.8,1.8-1.7,4.7,0.1,6.5l5.9,5.7C34.6,50.6,35.8,51,37,51
		L37,51z M29.3,39.1c0.5-0.5,1.1-0.8,1.8-0.7c0.6,0,1.2,0.2,1.7,0.7l3.3,3.2c0.2,0.2,0.5,0.3,0.8,0.3c0.3,0,0.6-0.1,0.8-0.3
		l9.5-10.2c0.9-1,2.5-1.1,3.5-0.1c0.5,0.4,0.8,1.1,0.8,1.7c0,0.7-0.2,1.3-0.7,1.8L38.8,48.1c-0.5,0.5-1.1,0.8-1.7,0.8
		c-0.7,0-1.3-0.2-1.8-0.7l-5.9-5.7C28.4,41.6,28.4,40,29.3,39.1L29.3,39.1z"/>
</g>
</svg>
