<?xml version="1.0" encoding="utf-8"?>
<!-- Generator: Adobe Illustrator 26.0.3, SVG Export Plug-In . SVG Version: 6.00 Build 0)  -->
<svg version="1.1" id="Layer_1" xmlns="http://www.w3.org/2000/svg" xmlns:xlink="http://www.w3.org/1999/xlink" x="0px" y="0px"
	 viewBox="0 0 80 80" style="enable-background:new 0 0 80 80;" xml:space="preserve">
<style type="text/css">
	.st0{fill:#FFFFFF;}
</style>
<g>
	<path class="st0" d="M74.8,33.5h-4.4c-0.1,0-0.1,0-0.1-0.1c-0.7-3.1-2-6.1-3.7-8.9c0-0.1,0-0.1,0-0.2l3.1-3.1
		c0.4-0.4,0.7-1,0.7-1.6c0-0.6-0.2-1.2-0.7-1.6L63,11.3c-0.4-0.4-1-0.7-1.6-0.7c-0.6,0-1.2,0.2-1.6,0.7l-3.1,3.1c0,0-0.1,0.1-0.2,0
		c-2.8-1.7-5.8-2.9-8.9-3.7c-0.1,0-0.1-0.1-0.1-0.1V6.2c0-1.3-1-2.3-2.3-2.3h-9.4c-1.3,0-2.3,1-2.3,2.3v4.4c0,0.1,0,0.1-0.1,0.1
		c-3.1,0.7-6.1,2-8.9,3.7c-0.1,0-0.1,0-0.2,0l-3.1-3.1c-0.4-0.4-1-0.7-1.6-0.7c-0.6,0-1.2,0.2-1.6,0.7L11.3,18
		c-0.4,0.4-0.7,1-0.7,1.6c0,0.6,0.2,1.2,0.7,1.6l3.1,3.1c0,0,0.1,0.1,0,0.2c-1.7,2.8-2.9,5.8-3.7,8.9c0,0.1-0.1,0.1-0.1,0.1H6.2
		c-1.3,0-2.3,1-2.3,2.3v9.4c0,1.3,1,2.3,2.3,2.3h4.4c0.1,0,0.1,0,0.1,0.1c0.7,3.1,2,6.1,3.7,8.9c0,0.1,0,0.1,0,0.2l-3.1,3.1
		c-0.4,0.4-0.7,1-0.7,1.6c0,0.6,0.2,1.2,0.7,1.6l6.7,6.7c0.4,0.4,1,0.7,1.6,0.7c0.6,0,1.2-0.2,1.6-0.7l3.1-3.1c0,0,0.1-0.1,0.2,0
		c2.8,1.7,5.8,2.9,8.9,3.7c0.1,0,0.1,0.1,0.1,0.1v4.4c0,1.3,1,2.3,2.3,2.3h9.4c1.3,0,2.3-1,2.3-2.3v-4.4c0-0.1,0-0.1,0.1-0.1
		c3.1-0.7,6.1-2,8.9-3.7c0.1,0,0.1,0,0.2,0l3.1,3.1c0.4,0.4,1,0.7,1.6,0.7c0.6,0,1.2-0.2,1.6-0.7l1.6-1.6c0.4-0.4,0.4-1.1,0-1.5
		c-0.4-0.4-1.1-0.4-1.5,0l0,0l-1.6,1.6c0,0-0.1,0-0.1,0c0,0-0.1,0-0.1,0l-3.1-3.1c-0.8-0.8-1.9-0.9-2.8-0.3
		c-2.6,1.6-5.4,2.7-8.3,3.4c-1,0.2-1.8,1.2-1.8,2.2v4.4c0,0.1-0.1,0.1-0.1,0.1h-9.4c-0.1,0-0.1-0.1-0.1-0.1v-4.4
		c0-1.1-0.7-2-1.8-2.2c-2.9-0.7-5.7-1.8-8.3-3.4c-0.9-0.6-2.1-0.4-2.8,0.3l-3.1,3.1c0,0-0.1,0-0.1,0s-0.1,0-0.1,0l-6.7-6.7
		c0,0,0-0.1,0-0.1s0-0.1,0-0.1l3.1-3.1c0.8-0.8,0.9-1.9,0.3-2.8c-1.6-2.6-2.7-5.4-3.4-8.3c-0.2-1-1.2-1.8-2.2-1.8H6.2
		c-0.1,0-0.1-0.1-0.1-0.1v-9.4c0-0.1,0.1-0.1,0.1-0.1h4.4c1.1,0,2-0.7,2.2-1.8c0.7-2.9,1.8-5.7,3.4-8.3c0.6-0.9,0.4-2.1-0.3-2.8
		l-3.1-3.1c0,0,0-0.1,0-0.1s0-0.1,0-0.1l6.7-6.7c0,0,0.1,0,0.1,0c0,0,0.1,0,0.1,0l3.1,3.1c0.8,0.8,1.9,0.9,2.8,0.3
		c2.6-1.6,5.4-2.7,8.3-3.4c1-0.2,1.8-1.2,1.8-2.2V6.2c0-0.1,0.1-0.1,0.1-0.1h9.4c0.1,0,0.1,0.1,0.1,0.1v4.4c0,1.1,0.7,2,1.8,2.2
		c2.9,0.7,5.7,1.8,8.3,3.4c0.9,0.6,2.1,0.4,2.8-0.3l3.1-3.1c0,0,0.1,0,0.1,0s0.1,0,0.1,0l6.7,6.7c0,0,0,0.1,0,0.1s0,0.1,0,0.1
		l-3.1,3.1c-0.8,0.8-0.9,1.9-0.3,2.8c1.6,2.6,2.7,5.4,3.4,8.3c0.2,1,1.2,1.8,2.2,1.8h4.4c0.1,0,0.1,0.1,0.1,0.1v9.4
		c0,0.1-0.1,0.1-0.1,0.1h-4.4c-1.1,0-2,0.7-2.2,1.8c-0.7,2.9-1.8,5.7-3.4,8.3c-0.6,0.9-0.4,2.1,0.3,2.8l3.1,3.1c0,0,0,0.1,0,0.1
		s0,0.1,0,0.1l-1.6,1.6c-0.4,0.4-0.4,1.1,0,1.5c0.4,0.4,1.1,0.4,1.5,0l1.6-1.6c0.4-0.4,0.7-1,0.7-1.6c0-0.6-0.2-1.2-0.7-1.6
		l-3.1-3.1c0,0-0.1-0.1,0-0.2c1.7-2.8,2.9-5.8,3.7-8.9c0-0.1,0.1-0.1,0.1-0.1h4.4c1.3,0,2.3-1,2.3-2.3v-9.4
		C77.1,34.5,76.1,33.5,74.8,33.5L74.8,33.5z"/>
	<path class="st0" d="M19,36.2c-0.6-0.1-1.1,0.3-1.2,0.9c-0.2,1.1-0.2,2.3-0.2,3.4c0,12.7,10.3,22.9,22.9,22.9s22.9-10.3,22.9-22.9
		S53.2,17.6,40.5,17.6c-4.7,0-9.2,1.4-13,4.1c-3.8,2.6-6.6,6.2-8.3,10.4l0,0.1c-0.2,0.5,0.1,1.2,0.6,1.4c0.5,0.2,1.2-0.1,1.4-0.6
		l0-0.1c1.5-3.8,4.1-7.1,7.5-9.4c3.5-2.4,7.6-3.7,11.8-3.7c11.5,0,20.8,9.3,20.8,20.8S52,61.3,40.5,61.3S19.7,52,19.7,40.5
		c0-1,0.1-2.1,0.2-3.1C20,36.8,19.6,36.3,19,36.2C19,36.2,19,36.2,19,36.2z"/>
	<path class="st0" d="M37.5,51.6c0,0,0.1,0,0.1,0c1.2,0,2.4-0.6,3.3-1.5l12-13c0.8-0.9,1.3-2.1,1.2-3.3c0-1.2-0.6-2.4-1.5-3.2
		c-1.9-1.7-4.8-1.6-6.5,0.3l-8.8,9.5L34.8,38c-1.8-1.8-4.8-1.7-6.5,0.1c-1.8,1.8-1.7,4.8,0.1,6.5l5.9,5.7
		C35.1,51.1,36.3,51.6,37.5,51.6L37.5,51.6z M29.8,39.6c0.5-0.5,1.1-0.8,1.8-0.8c0.6,0,1.2,0.2,1.7,0.7l3.3,3.2
		c0.2,0.2,0.5,0.3,0.8,0.3c0.3,0,0.6-0.1,0.8-0.3l9.5-10.3c0.9-1,2.5-1.1,3.5-0.1c0.5,0.4,0.8,1.1,0.8,1.7c0,0.7-0.2,1.3-0.7,1.8
		l-12,13c-0.5,0.5-1.1,0.8-1.7,0.8c-0.7,0-1.3-0.2-1.8-0.7l-5.9-5.7C28.8,42.1,28.8,40.5,29.8,39.6L29.8,39.6z"/>
</g>
</svg>
