<?xml version="1.0" encoding="utf-8"?>
<!-- Generator: Adobe Illustrator 26.0.3, SVG Export Plug-In . SVG Version: 6.00 Build 0)  -->
<svg version="1.1" id="Layer_1" xmlns="http://www.w3.org/2000/svg" xmlns:xlink="http://www.w3.org/1999/xlink" x="0px" y="0px"
	 viewBox="0 0 80 80" style="enable-background:new 0 0 80 80;" xml:space="preserve">
<style type="text/css">
	.st0{fill:#029BFF;}
</style>
<g>
	<path class="st0" d="M68.4,6.5H17.9c-3.4,0-6.2,2.8-6.2,6.2v48H6c-0.5,0-0.9,0.4-0.9,0.9v5.6c0,3.5,2.9,6.4,6.4,6.4h45.7
		c3.5,0,6.4-2.9,6.4-6.4V19.5H74c0.5,0,0.9-0.4,0.9-0.9V13C74.9,9.4,72,6.5,68.4,6.5z M11.5,71.8c-2.6,0-4.7-2.1-4.7-4.7v-4.7h43.9
		v4.7c0,1.8,0.8,3.5,2,4.7H11.5z M61.9,67.1c0,2.6-2.1,4.7-4.7,4.7s-4.7-2.1-4.7-4.7v-5.6c0-0.5-0.4-0.9-0.9-0.9H13.4v-48
		c0-2.5,2-4.5,4.5-4.5H64c-1.3,1.2-2.1,2.9-2.1,4.7L61.9,67.1L61.9,67.1z M73.1,17.7h-9.5V13c0-2.6,2.1-4.7,4.7-4.7
		c2.6,0,4.7,2.1,4.7,4.7V17.7z M57.5,12.7c-2.4-0.6-4.6-1.6-6.1-2.9c-0.3-0.3-0.8-0.3-1.1,0c-1.5,1.3-3.8,2.3-6.1,2.9
		c-0.4,0.1-0.6,0.4-0.7,0.8c-0.3,3.9,0.2,6.9,1.6,9.1c1.2,1.9,2.9,3.2,5.4,4.2c0.2,0.1,0.4,0.1,0.6,0c2.5-1,4.3-2.3,5.4-4.2
		c1.4-2.3,1.9-5.2,1.6-9.1C58.2,13.1,57.9,12.8,57.5,12.7L57.5,12.7z M55.1,21.7c-0.9,1.5-2.3,2.5-4.3,3.4c-2-0.8-3.4-1.9-4.3-3.4
		c-1.1-1.8-1.6-4.3-1.4-7.5c2.1-0.6,4.1-1.5,5.7-2.7c1.5,1.2,3.5,2.1,5.7,2.7C56.7,17.5,56.2,19.9,55.1,21.7z M55.2,15.2
		c0.3,0.3,0.3,0.9,0,1.2l-4.5,4.5c-0.3,0.3-0.9,0.3-1.2,0c0,0,0,0,0,0l-2-2c-0.3-0.3-0.3-0.9,0-1.2c0.3-0.3,0.9-0.3,1.2,0l1.4,1.4
		l3.9-3.9C54.3,14.9,54.8,14.9,55.2,15.2L55.2,15.2z M28.7,31c0.3,0.3,0.3,0.9,0,1.2l-5.2,5.2c-0.3,0.3-0.9,0.3-1.2,0c0,0,0,0,0,0
		l-2.9-2.9c-0.3-0.3-0.3-0.9,0-1.2c0.3-0.3,0.9-0.3,1.2,0l2.3,2.3l4.5-4.5C27.8,30.6,28.4,30.6,28.7,31C28.7,31,28.7,31,28.7,31
		L28.7,31z M28.7,40.5c0.3,0.3,0.3,0.9,0,1.2l-5.2,5.2c-0.3,0.3-0.9,0.3-1.2,0c0,0,0,0,0,0l-2.9-2.9c-0.3-0.3-0.3-0.9,0-1.2
		c0.3-0.3,0.9-0.3,1.2,0l2.3,2.3l4.5-4.5C27.8,40.1,28.4,40.1,28.7,40.5C28.7,40.5,28.7,40.5,28.7,40.5L28.7,40.5z M28.7,50
		c0.3,0.3,0.3,0.9,0,1.2l-5.2,5.2c-0.2,0.2-0.4,0.3-0.6,0.3s-0.5-0.1-0.6-0.3l-2.9-2.9c-0.3-0.3-0.3-0.9,0-1.2
		c0.3-0.3,0.9-0.3,1.2,0l2.3,2.3l4.5-4.5C27.8,49.6,28.4,49.6,28.7,50C28.7,50,28.7,50,28.7,50L28.7,50z M31.7,31h15.9
		c0.5,0,0.9,0.4,0.9,0.9c0,0.5-0.4,0.9-0.9,0.9H31.7c-0.5,0-0.9-0.4-0.9-0.9C30.8,31.4,31.2,31,31.7,31L31.7,31z M55.9,35.8
		c0,0.5-0.4,0.9-0.9,0.9H31.7c-0.5,0-0.9-0.4-0.9-0.9c0-0.5,0.4-0.9,0.9-0.9H55C55.5,35,55.9,35.4,55.9,35.8z M30.8,41.7
		c0-0.5,0.4-0.9,0.9-0.9h15.9c0.5,0,0.9,0.4,0.9,0.9c0,0.5-0.4,0.9-0.9,0.9H31.7C31.2,42.5,30.8,42.1,30.8,41.7L30.8,41.7z
		 M55.9,45.6c0,0.5-0.4,0.9-0.9,0.9H31.7c-0.5,0-0.9-0.4-0.9-0.9c0-0.5,0.4-0.9,0.9-0.9H55C55.5,44.7,55.9,45.1,55.9,45.6
		C55.9,45.6,55.9,45.6,55.9,45.6z M30.8,51.4c0-0.5,0.4-0.9,0.9-0.9h15.9c0.5,0,0.9,0.4,0.9,0.9c0,0.5-0.4,0.9-0.9,0.9H31.7
		C31.2,52.3,30.8,51.9,30.8,51.4L30.8,51.4z M55.9,55.3c0,0.5-0.4,0.9-0.9,0.9H31.7c-0.5,0-0.9-0.4-0.9-0.9c0-0.5,0.4-0.9,0.9-0.9
		H55C55.5,54.5,55.9,54.8,55.9,55.3C55.9,55.3,55.9,55.3,55.9,55.3z M19,21h16.5c0.5,0,0.9,0.4,0.9,0.9s-0.4,0.9-0.9,0.9H19
		c-0.5,0-0.9-0.4-0.9-0.9S18.6,21,19,21z M42.3,26.9H19c-0.5,0-0.9-0.4-0.9-0.9c0-0.5,0.4-0.9,0.9-0.9h23.3c0.5,0,0.9,0.4,0.9,0.9
		C43.2,26.5,42.8,26.9,42.3,26.9z M18,17.7c0-0.5,0.4-0.9,0.9-0.9h10.2c0.5,0,0.9,0.4,0.9,0.9c0,0.5-0.4,0.9-0.9,0.9H18.9
		C18.4,18.5,18,18.2,18,17.7z"/>
</g>
</svg>
