<?xml version="1.0" encoding="utf-8"?>
<!-- Generator: Adobe Illustrator 26.0.3, SVG Export Plug-In . SVG Version: 6.00 Build 0)  -->
<svg version="1.1" id="Layer_1" xmlns="http://www.w3.org/2000/svg" xmlns:xlink="http://www.w3.org/1999/xlink" x="0px" y="0px"
	 viewBox="0 0 80 80" style="enable-background:new 0 0 80 80;" xml:space="preserve">
<style type="text/css">
	.st0{fill:#FFFFFF;}
</style>
<g>
	<path class="st0" d="M68.9,8.5H17.5c-3.5,0-6.3,2.8-6.3,6.3v48.8H5.4c-0.5,0-0.9,0.4-0.9,0.9v5.6c0,3.6,2.9,6.5,6.5,6.5h46.5
		c3.6,0,6.5-2.9,6.5-6.5V21.7h10.5c0.5,0,0.9-0.4,0.9-0.9v-5.7C75.5,11.4,72.5,8.5,68.9,8.5z M11.1,74.9c-2.6,0-4.8-2.1-4.8-4.8
		v-4.8H51v4.8c0,1.9,0.8,3.6,2.1,4.8H11.1z M62.3,70.1c0,2.6-2.1,4.8-4.8,4.8c-2.6,0-4.8-2.1-4.8-4.8v-5.6c0-0.5-0.4-0.9-0.9-0.9H13
		V14.8c0-2.5,2-4.5,4.5-4.5h46.9c-1.3,1.2-2.1,2.9-2.1,4.8L62.3,70.1L62.3,70.1z M73.7,19.9H64v-4.8c0-2.7,2.2-4.8,4.8-4.8
		s4.8,2.2,4.8,4.8V19.9z M57.8,14.8c-2.4-0.6-4.7-1.6-6.2-2.9c-0.3-0.3-0.8-0.3-1.1,0c-1.6,1.3-3.8,2.4-6.2,2.9
		c-0.4,0.1-0.6,0.4-0.7,0.8c-0.3,4,0.2,7,1.6,9.3c1.2,1.9,2.9,3.3,5.5,4.3c0.2,0.1,0.4,0.1,0.7,0c2.6-1,4.3-2.4,5.5-4.3
		c1.4-2.3,2-5.3,1.6-9.3C58.5,15.2,58.2,14.9,57.8,14.8L57.8,14.8z M55.4,24c-0.9,1.5-2.3,2.6-4.3,3.4c-2-0.9-3.4-2-4.3-3.4
		c-1.1-1.8-1.6-4.3-1.4-7.6c2.2-0.6,4.2-1.5,5.8-2.7c1.6,1.2,3.6,2.1,5.8,2.7C57,19.7,56.5,22.2,55.4,24z M55.4,17.4
		c0.3,0.3,0.3,0.9,0,1.2l-4.6,4.6c-0.3,0.3-0.9,0.3-1.2,0c0,0,0,0,0,0l-2-2c-0.3-0.3-0.3-0.9,0-1.2c0.3-0.3,0.9-0.3,1.2,0l1.4,1.4
		l3.9-3.9C54.5,17,55.1,17,55.4,17.4L55.4,17.4z M28.5,33.4c0.3,0.3,0.3,0.9,0,1.2l-5.2,5.2c-0.3,0.3-0.9,0.3-1.2,0c0,0,0,0,0,0
		l-3-3c-0.3-0.3-0.3-0.9,0-1.2c0.3-0.3,0.9-0.3,1.2,0l2.4,2.4l4.6-4.6C27.6,33,28.2,33,28.5,33.4C28.5,33.4,28.5,33.4,28.5,33.4
		L28.5,33.4z M28.5,43c0.3,0.3,0.3,0.9,0,1.2l-5.2,5.2c-0.3,0.3-0.9,0.3-1.2,0c0,0,0,0,0,0l-3-3c-0.3-0.3-0.3-0.9,0-1.2
		c0.3-0.3,0.9-0.3,1.2,0l2.4,2.4l4.6-4.6C27.6,42.7,28.2,42.7,28.5,43C28.5,43,28.5,43,28.5,43L28.5,43z M28.5,52.7
		c0.3,0.3,0.3,0.9,0,1.2l-5.2,5.2c-0.2,0.2-0.4,0.3-0.6,0.3c-0.2,0-0.5-0.1-0.6-0.3l-3-3c-0.3-0.3-0.3-0.9,0-1.2
		c0.3-0.3,0.9-0.3,1.2,0l2.4,2.4l4.6-4.6C27.6,52.4,28.2,52.4,28.5,52.7C28.5,52.7,28.5,52.7,28.5,52.7L28.5,52.7z M31.6,33.5h16.2
		c0.5,0,0.9,0.4,0.9,0.9c0,0.5-0.4,0.9-0.9,0.9H31.6c-0.5,0-0.9-0.4-0.9-0.9C30.7,33.8,31.1,33.5,31.6,33.5L31.6,33.5z M56.2,38.3
		c0,0.5-0.4,0.9-0.9,0.9H31.6c-0.5,0-0.9-0.4-0.9-0.9s0.4-0.9,0.9-0.9h23.7C55.8,37.4,56.2,37.8,56.2,38.3z M30.7,44.3
		c0-0.5,0.4-0.9,0.9-0.9h16.2c0.5,0,0.9,0.4,0.9,0.9s-0.4,0.9-0.9,0.9H31.6C31.1,45.1,30.7,44.7,30.7,44.3L30.7,44.3z M56.2,48.2
		c0,0.5-0.4,0.9-0.9,0.9H31.6c-0.5,0-0.9-0.4-0.9-0.9s0.4-0.9,0.9-0.9h23.7C55.8,47.4,56.2,47.8,56.2,48.2
		C56.2,48.2,56.2,48.2,56.2,48.2z M30.7,54.2c0-0.5,0.4-0.9,0.9-0.9h16.2c0.5,0,0.9,0.4,0.9,0.9c0,0.5-0.4,0.9-0.9,0.9H31.6
		C31.1,55,30.7,54.7,30.7,54.2L30.7,54.2z M56.2,58.2c0,0.5-0.4,0.9-0.9,0.9H31.6c-0.5,0-0.9-0.4-0.9-0.9c0-0.5,0.4-0.9,0.9-0.9
		h23.7C55.8,57.3,56.2,57.7,56.2,58.2C56.2,58.2,56.2,58.2,56.2,58.2z M18.7,23.2h16.8c0.5,0,0.9,0.4,0.9,0.9c0,0.5-0.4,0.9-0.9,0.9
		H18.7c-0.5,0-0.9-0.4-0.9-0.9C17.8,23.6,18.2,23.2,18.7,23.2z M42.4,29.3H18.7c-0.5,0-0.9-0.4-0.9-0.9c0-0.5,0.4-0.9,0.9-0.9h23.7
		c0.5,0,0.9,0.4,0.9,0.9C43.3,28.9,42.9,29.3,42.4,29.3z M17.6,19.9c0-0.5,0.4-0.9,0.9-0.9h10.4c0.5,0,0.9,0.4,0.9,0.9
		c0,0.5-0.4,0.9-0.9,0.9H18.5C18,20.7,17.6,20.3,17.6,19.9z"/>
</g>
</svg>
