<svg xmlns="http://www.w3.org/2000/svg" xmlns:xlink="http://www.w3.org/1999/xlink" width="225.125" height="28.477" viewBox="0 0 225.125 28.477">
  <defs>
    <clipPath id="clip-path">
      <rect id="Rectangle_30" data-name="Rectangle 30" width="225.125" height="28.477" transform="translate(0 0)" fill="none"/>
    </clipPath>
  </defs>
  <g id="Group_31" data-name="Group 31" transform="translate(0 0)">
    <g id="Group_30" data-name="Group 30" clip-path="url(#clip-path)">
      <path id="Path_42" data-name="Path 42" d="M44.921,12.522c.047,1.009.026,2.026.026,2.992V27.943H39.476V12.571a6.218,6.218,0,0,0-1.293-4.164A4.911,4.911,0,0,0,33.19,6.938a.073.073,0,0,1-.047-.133,7.831,7.831,0,0,1,.8-.5,9.13,9.13,0,0,1,4.984-1.144,5.985,5.985,0,0,1,3.38,1.149c2.015,1.53,2.5,3.85,2.612,6.212" fill="#8D8D8D"/>
      <path id="Path_43" data-name="Path 43" d="M18.064,23.378V11.567a6.6,6.6,0,0,0-1-3.756c-1.242-1.96-3.72-2.4-5.978-2.592a.04.04,0,0,0-.032.068,6.589,6.589,0,0,1,1.679,4.8V22.279c0,.612.009,1.864.023,2.48h0c.384,4.257,4.605,4.3,7.272,2.02a.056.056,0,0,0-.026-.1c-.822-.179-1.934-.872-1.934-3.305" fill="#8D8D8D"/>
      <path id="Path_44" data-name="Path 44" d="M6.266,24.937c-2.027-2.467-1.191-5.593.57-7.508a.09.09,0,0,0-.092-.147C4.6,17.952,1.943,19.3,1,20.6A4.811,4.811,0,0,0,2.94,27.935,7.217,7.217,0,0,0,9.424,27a.091.091,0,0,0-.044-.166,4.339,4.339,0,0,1-3.114-1.9" fill="#8D8D8D"/>
      <path id="Path_45" data-name="Path 45" d="M8.076,5.3a.033.033,0,0,0-.022-.058A10.615,10.615,0,0,0,3.9,6.116a4.712,4.712,0,0,0-2.8,4.031l3.853,1.36A8,8,0,0,1,8.076,5.3" fill="#8D8D8D"/>
      <path id="Path_46" data-name="Path 46" d="M25.556,23.378V11.567a6.6,6.6,0,0,1,1-3.756c1.242-1.96,3.72-2.4,5.978-2.592a.04.04,0,0,1,.032.068,6.589,6.589,0,0,0-1.679,4.8V22.279c0,.612-.009,1.864-.023,2.48h0c-.384,4.257-4.6,4.3-7.272,2.02a.056.056,0,0,1,.026-.1c.822-.179,1.934-.872,1.934-3.305" fill="#8D8D8D"/>
      <path id="Path_47" data-name="Path 47" d="M58.755,12.522c.047,1.009.026,2.026.026,2.992V27.943H53.31V12.571a6.218,6.218,0,0,0-1.293-4.164c-1.324-1.542-3.9-1.819-5.833-1.465-.072.013-.106-.092-.046-.134a7.831,7.831,0,0,1,.8-.5,12.017,12.017,0,0,1,5.823-1.147,5.985,5.985,0,0,1,3.38,1.149c2.015,1.53,2.5,3.85,2.612,6.212" fill="#8D8D8D"/>
      <path id="Path_48" data-name="Path 48" d="M65.895,11.508a5.726,5.726,0,0,1,3.558-5.654,6.982,6.982,0,0,1,1.663-.4.139.139,0,0,1,.155.139V27.954H65.895Z" fill="#8D8D8D"/>
      <path id="Path_49" data-name="Path 49" d="M114.862,23.378V11.567a6.59,6.59,0,0,0-1-3.756c-1.241-1.96-3.72-2.4-5.977-2.592a.04.04,0,0,0-.032.068,6.593,6.593,0,0,1,1.678,4.8V22.279c0,.612.009,1.864.023,2.48h0c.385,4.257,4.606,4.3,7.273,2.02a.057.057,0,0,0-.026-.1c-.822-.179-1.934-.872-1.934-3.305" fill="#8D8D8D"/>
      <path id="Path_50" data-name="Path 50" d="M103.063,24.937c-2.027-2.467-1.191-5.593.57-7.508a.09.09,0,0,0-.092-.147c-2.141.67-4.8,2.016-5.739,3.314a4.811,4.811,0,0,0,1.935,7.339A7.217,7.217,0,0,0,106.221,27a.091.091,0,0,0-.044-.166,4.339,4.339,0,0,1-3.114-1.9" fill="#8D8D8D"/>
      <path id="Path_51" data-name="Path 51" d="M104.85,5.3a.033.033,0,0,0-.022-.058,10.625,10.625,0,0,0-4.157.878,4.712,4.712,0,0,0-2.8,4.031l3.853,1.36A8,8,0,0,1,104.85,5.3" fill="#8D8D8D"/>
      <path id="Path_52" data-name="Path 52" d="M176.224,23.378V11.567a6.6,6.6,0,0,0-1-3.756c-1.242-1.96-3.72-2.4-5.978-2.592a.04.04,0,0,0-.032.068,6.59,6.59,0,0,1,1.679,4.8V22.279c0,.612.009,1.864.023,2.48h0c.384,4.257,4.6,4.3,7.272,2.02a.056.056,0,0,0-.026-.1c-.822-.179-1.934-.872-1.934-3.305" fill="#8D8D8D"/>
      <path id="Path_53" data-name="Path 53" d="M164.426,24.937c-2.027-2.467-1.191-5.593.57-7.508a.09.09,0,0,0-.092-.147c-2.141.67-4.8,2.016-5.739,3.314a4.811,4.811,0,0,0,1.935,7.339A7.217,7.217,0,0,0,167.584,27a.091.091,0,0,0-.044-.166,4.339,4.339,0,0,1-3.114-1.9" fill="#8D8D8D"/>
      <path id="Path_54" data-name="Path 54" d="M166.212,5.3a.033.033,0,0,0-.022-.058,10.625,10.625,0,0,0-4.157.878,4.712,4.712,0,0,0-2.8,4.031l3.853,1.36A8,8,0,0,1,166.212,5.3" fill="#8D8D8D"/>
      <path id="Path_55" data-name="Path 55" d="M223.146,23.378V11.567a6.6,6.6,0,0,0-1-3.756c-1.242-1.96-3.72-2.4-5.978-2.592a.04.04,0,0,0-.032.068,6.589,6.589,0,0,1,1.679,4.8V22.279c0,.612.009,1.864.023,2.48h0c.384,4.257,4.6,4.3,7.272,2.02a.056.056,0,0,0-.026-.1c-.822-.179-1.934-.872-1.934-3.305" fill="#8D8D8D"/>
      <path id="Path_56" data-name="Path 56" d="M211.348,24.937c-2.027-2.467-1.191-5.593.57-7.508a.09.09,0,0,0-.092-.147c-2.141.67-4.8,2.016-5.739,3.314a4.811,4.811,0,0,0,1.935,7.339A7.217,7.217,0,0,0,214.506,27a.091.091,0,0,0-.044-.166,4.339,4.339,0,0,1-3.114-1.9" fill="#8D8D8D"/>
      <path id="Path_57" data-name="Path 57" d="M213.21,5.259a.033.033,0,0,0-.022-.058,10.616,10.616,0,0,0-4.157.878,4.711,4.711,0,0,0-2.8,4.031l3.854,1.36a7.994,7.994,0,0,1,3.125-6.211" fill="#8D8D8D"/>
      <path id="Path_58" data-name="Path 58" d="M140.2,11.586a5.826,5.826,0,0,1,3.558-5.72,7.093,7.093,0,0,1,1.818-.41v22.5H140.2Z" fill="#8D8D8D"/>
      <path id="Path_59" data-name="Path 59" d="M148.122,10.616a.033.033,0,0,1-.048-.04,10.631,10.631,0,0,1,2.2-3.633,4.71,4.71,0,0,1,4.729-1.309l.01,4.086a7.993,7.993,0,0,0-6.894.9" fill="#8D8D8D"/>
      <path id="Path_60" data-name="Path 60" d="M79,8.051q0-1.116,0-2.233a7.856,7.856,0,0,0-.276-2.546,2.7,2.7,0,0,0-1.6-1.747.06.06,0,0,1-.021-.1A5.45,5.45,0,0,1,81.51.078a3.316,3.316,0,0,1,1,.36c1.914,1.07,1.945,3.261,1.9,5.193q-.163,7.047-.031,14.1c.035,1.9.136,3.946,1.3,5.447a5.06,5.06,0,0,0,3.972,1.836c.4,0,.534.129.426.316a.3.3,0,0,1-.126.1c-2.675,1.436-6.349,1.511-8.771-.488-1.988-1.641-2.193-3.984-2.19-6.387Z" fill="#8D8D8D"/>
      <path id="Path_61" data-name="Path 61" d="M86.523,10.616a.033.033,0,0,1-.048-.04,10.631,10.631,0,0,1,2.2-3.633,4.71,4.71,0,0,1,4.729-1.309l.01,4.086a7.993,7.993,0,0,0-6.894.9" fill="#8D8D8D"/>
      <path id="Path_62" data-name="Path 62" d="M196.023,11.466l3.853-1.36a4.713,4.713,0,0,0-2.8-4.031A10.643,10.643,0,0,0,192.92,5.2a.033.033,0,0,0-.022.058,8,8,0,0,1,3.125,6.211" fill="#8D8D8D"/>
      <path id="Path_63" data-name="Path 63" d="M199.647,18.779a6.612,6.612,0,0,0-1.909-2.017,24.475,24.475,0,0,0-4.05-2.119,24.769,24.769,0,0,1-4.167-2.158,5.5,5.5,0,0,1-1.893-2.084,4.988,4.988,0,0,1-.5-2.113,5.05,5.05,0,0,1,.928-3,.042.042,0,0,0-.047-.064,9.013,9.013,0,0,0-2.63,1.367,6.08,6.08,0,0,0-2.525,5.142,5.432,5.432,0,0,0,.666,2.777,6.436,6.436,0,0,0,1.924,2.032,26.521,26.521,0,0,0,4.456,2.218,15.89,15.89,0,0,1,4.7,2.67,4.539,4.539,0,0,1,1.486,3.384,4.818,4.818,0,0,1-1.079,3.119.043.043,0,0,0,.047.068c.285-.1.559-.215.824-.339a8.239,8.239,0,0,0,3.346-2.637,6,6,0,0,0,1.085-3.557,5.11,5.11,0,0,0-.662-2.693" fill="#8D8D8D"/>
      <path id="Path_64" data-name="Path 64" d="M189.975,27.944a.033.033,0,0,1-.022.058,10.625,10.625,0,0,1-4.157-.878,4.712,4.712,0,0,1-2.8-4.031l3.853-1.36a8,8,0,0,0,3.125,6.211" fill="#8D8D8D"/>
      <rect id="Rectangle_29" data-name="Rectangle 29" width="5.125" height="5.126" transform="translate(123.697 16.878) rotate(-45)" fill="#8D8D8D"/>
    </g>
  </g>
</svg>
