<svg id="Group_44" data-name="Group 44" xmlns="http://www.w3.org/2000/svg" xmlns:xlink="http://www.w3.org/1999/xlink" width="70" height="70.001" viewBox="0 0 70 70.001">
  <defs>
    <clipPath id="clip-path">
      <rect id="Rectangle_39" data-name="Rectangle 39" width="70" height="70.001" fill="#5f3333"/>
    </clipPath>
  </defs>
  <g id="Group_43" data-name="Group 43" transform="translate(0 0)" clip-path="url(#clip-path)">
    <path id="Path_73" data-name="Path 73" d="M21.055,18.54a.874.874,0,0,0,.874-.874V15.333a.874.874,0,1,0-1.749,0v2.333a.874.874,0,0,0,.874.874" transform="translate(9.135 6.544)" fill="#5f3333"/>
    <path id="Path_74" data-name="Path 74" d="M21.055,23.762a.874.874,0,0,0,.874-.874V20.553a.874.874,0,1,0-1.749,0v2.334a.874.874,0,0,0,.874.874" transform="translate(9.135 8.908)" fill="#5f3333"/>
    <path id="Path_75" data-name="Path 75" d="M21.055,28.982a.874.874,0,0,0,.874-.874V25.773a.874.874,0,0,0-1.749,0v2.334a.874.874,0,0,0,.874.874" transform="translate(9.135 11.27)" fill="#5f3333"/>
    <path id="Path_76" data-name="Path 76" d="M21.055,34.2a.874.874,0,0,0,.874-.874V31a.874.874,0,1,0-1.749,0v2.333a.874.874,0,0,0,.874.874" transform="translate(9.135 13.634)" fill="#5f3333"/>
    <path id="Path_77" data-name="Path 77" d="M21.055,39.424a.874.874,0,0,0,.874-.874V36.215a.874.874,0,0,0-1.749,0V38.55a.874.874,0,0,0,.874.874" transform="translate(9.135 15.997)" fill="#5f3333"/>
    <path id="Path_78" data-name="Path 78" d="M.516,59.57l9.734,4.375c.023.01.048.007.071.016v5.166A.874.874,0,0,0,11.2,70H58.8a.874.874,0,0,0,.874-.874V63.96a.539.539,0,0,0,.07-.015l9.734-4.375a.876.876,0,0,0,.517-.8V12.7C70,5.9,51.383.746,48.8.065a.865.865,0,0,0-.66,0,.871.871,0,0,0-.54.808,12.471,12.471,0,1,1-24.942,0,.874.874,0,0,0-.267-.63A.838.838,0,0,0,21.752,0l-.266.009a.925.925,0,0,0-.19.028C19.115.608,0,5.806,0,12.7V58.772a.874.874,0,0,0,.516.8m21.829,8.682A31.627,31.627,0,0,0,30.636,64.6,49.318,49.318,0,0,0,41.36,68.252ZM35.128,15.1A14.241,14.241,0,0,0,49.3,2.015C57.042,4.17,68.25,8.7,68.25,12.7V58.207l-8.571,3.851V29.022a.875.875,0,0,0-1.75,0V68.246c-12.317-.062-20.553-2.568-25.305-4.678a27.4,27.4,0,0,1-7.249-4.439V11.213A14.171,14.171,0,0,0,35.128,15.1M1.75,12.7c0-4.04,11.453-8.626,19.2-10.754a14.141,14.141,0,0,0,2.68,7.276V59.5a.88.88,0,0,0,.238.6,21.867,21.867,0,0,0,4.959,3.549c-3.266,1.9-8.635,4.03-16.752,4.566v-39.2a.875.875,0,0,0-1.75,0V62.058L1.749,58.207V12.7Z" transform="translate(0 0)" fill="#5f3333"/>
    <path id="Path_79" data-name="Path 79" d="M41.174,18.938l-4.2-1.024L34.707,14.24a.911.911,0,0,0-1.49,0l-2.27,3.674-4.2,1.024a.877.877,0,0,0-.46,1.418l2.793,3.295-.322,4.307a.876.876,0,0,0,1.206.876l4-1.637,4,1.637a.849.849,0,0,0,.331.067.879.879,0,0,0,.874-.943l-.322-4.307,2.792-3.295a.876.876,0,0,0-.46-1.418m-3.9,3.854a.877.877,0,0,0-.2.632l.243,3.251-3.017-1.236a.875.875,0,0,0-.664,0l-3.017,1.236.243-3.251a.877.877,0,0,0-.2-.632L28.543,20.3l3.167-.774a.87.87,0,0,0,.537-.391l1.714-2.773,1.716,2.773a.87.87,0,0,0,.537.391l3.167.774Z" transform="translate(11.805 6.27)" fill="#5f3333"/>
  </g>
</svg>
