<?xml version="1.0" standalone="no"?>
<!DOCTYPE svg PUBLIC "-//W3C//DTD SVG 20010904//EN"
 "http://www.w3.org/TR/2001/REC-SVG-20010904/DTD/svg10.dtd">
<svg version="1.0" xmlns="http://www.w3.org/2000/svg"
 width="200.000000pt" height="200.000000pt" viewBox="0 0 200.000000 200.000000"
 preserveAspectRatio="xMidYMid meet">
<metadata>
Created by potrace 1.14, written by Peter Selinger 2001-2017
</metadata>
<g transform="translate(0.000000,200.000000) scale(0.100000,-0.100000)"
fill="#000000" stroke="none">
<path d="M910 1753 c-259 -45 -462 -203 -566 -440 -35 -82 -37 -127 -9 -187
52 -110 224 -123 293 -22 13 19 32 69 43 112 65 259 285 438 539 439 87 0 129
-5 189 -24 19 -6 36 -9 38 -8 7 8 -159 87 -222 107 -68 21 -242 34 -305 23z"/>
<path d="M1105 1595 c-27 -7 -63 -18 -80 -25 l-30 -12 30 -21 c67 -48 174
-167 224 -248 55 -90 83 -118 140 -137 81 -28 174 3 225 76 37 53 47 141 22
193 -38 78 -116 136 -221 164 -76 21 -245 26 -310 10z"/>
<path d="M289 1075 c-9 -133 23 -277 87 -392 36 -64 54 -79 54 -43 0 34 29 93
63 128 38 39 77 60 129 68 34 6 36 8 27 27 -14 24 -29 72 -36 112 -6 39 -7 39
-35 24 -12 -7 -52 -13 -88 -13 -76 0 -133 25 -174 76 -22 28 -26 30 -27 13z"/>
<path d="M597 776 c-48 -18 -74 -41 -98 -88 -39 -77 -15 -165 62 -227 43 -34
162 -99 224 -122 95 -36 282 -43 398 -15 193 46 370 183 475 369 34 60 26 61
-31 3 -152 -152 -381 -209 -574 -143 -97 33 -151 66 -231 141 -37 35 -77 68
-89 75 -36 19 -95 22 -136 7z"/>
</g>
</svg>
