<svg id="Group_130" data-name="Group 130" xmlns="http://www.w3.org/2000/svg" xmlns:xlink="http://www.w3.org/1999/xlink" width="108.673" height="108.685" viewBox="0 0 108.673 108.685">
  <defs>
    <clipPath id="clip-path">
      <rect id="Rectangle_145" data-name="Rectangle 145" width="108.672" height="108.685" fill="none"/>
    </clipPath>
  </defs>
  <path id="Path_603" data-name="Path 603" d="M54.259,29.057l8.453.037-.039,8.312,16.856-.067V54.7h8.409v7.838H79.529V79.512H37.606V62.537h-8.4V54.7h8.4l-.046-17.255L54.2,37.426Zm-.427-.431,0,.429L53.775,37l-16.214.018h-.43v.43l.045,16.824h-8.4v8.7h8.4V79.941H79.959V62.967h8.409v-8.7H79.959V36.908l-.431,0L63.1,36.975l.037-7.879,0-.43-.43,0-8.453-.037Z" transform="translate(-4.053 -4.031)" fill="#5f3333"/>
  <path id="Path_604" data-name="Path 604" d="M87.92,87.872H29.162V29.032H87.92Zm.43-59.27H28.732V88.3H88.35V28.6Z" transform="translate(-4.046 -4.028)" fill="#5f3333"/>
  <path id="Path_605" data-name="Path 605" d="M94.692,94.643H19.3V19.253h75.4Zm.43-75.82H18.867V95.072H95.121V18.823Z" transform="translate(-2.657 -2.651)" fill="#5f3333"/>
  <path id="Path_606" data-name="Path 606" d="M101.69,101.7H9.553V9.557H101.69Zm.43-92.575h-93v93h93v-93Z" transform="translate(-1.285 -1.285)" fill="#5f3333"/>
  <path id="Path_607" data-name="Path 607" d="M.43.433H108.243V108.255H.43ZM108.243,0H0V108.685H108.673V0Z" transform="translate(0 0)" fill="#5f3333"/>
  <g id="Group_137" data-name="Group 137">
    <g id="Group_136" data-name="Group 136" clip-path="url(#clip-path)">
      <path id="Path_608" data-name="Path 608" d="M51.585.343V4.306H70.466V0" transform="translate(-7.265 0)" fill="none" stroke="#5f3333" stroke-width="0.5"/>
    </g>
  </g>
  <path id="Path_609" data-name="Path 609" d="M54.381,9.481V13.3H69.568V9.388" transform="translate(-7.659 -1.322)" fill="none" stroke="#5f3333" stroke-width="0.5"/>
  <path id="Path_610" data-name="Path 610" d="M57.365,19.125V23.2H67.424V19.026" transform="translate(-8.079 -2.679)" fill="none" stroke="#5f3333" stroke-width="0.5"/>
  <g id="Group_139" data-name="Group 139">
    <g id="Group_138" data-name="Group 138" clip-path="url(#clip-path)">
      <path id="Path_611" data-name="Path 611" d="M125.364,52.057H121.4V70.938h4.306" transform="translate(-17.097 -7.331)" fill="none" stroke="#5f3333" stroke-width="0.5"/>
    </g>
  </g>
  <path id="Path_612" data-name="Path 612" d="M116.29,54.853h-3.82V70.04h3.914" transform="translate(-15.839 -7.725)" fill="none" stroke="#5f3333" stroke-width="0.5"/>
  <path id="Path_613" data-name="Path 613" d="M106.6,57.837h-4.073V67.9H106.7" transform="translate(-14.44 -8.145)" fill="none" stroke="#5f3333" stroke-width="0.5"/>
  <g id="Group_141" data-name="Group 141">
    <g id="Group_140" data-name="Group 140" clip-path="url(#clip-path)">
      <path id="Path_614" data-name="Path 614" d="M.406,70.938H4.369V52.057H.063" transform="translate(-0.009 -7.331)" fill="none" stroke="#5f3333" stroke-width="0.5"/>
    </g>
  </g>
  <path id="Path_615" data-name="Path 615" d="M9.545,68.747h3.82V53.561H9.451" transform="translate(-1.331 -7.543)" fill="none" stroke="#5f3333" stroke-width="0.5"/>
  <path id="Path_616" data-name="Path 616" d="M19.185,66.6H23.1V56.545H19.089" transform="translate(-2.688 -7.963)" fill="none" stroke="#5f3333" stroke-width="0.5"/>
</svg>
