<svg xmlns="http://www.w3.org/2000/svg" xmlns:xlink="http://www.w3.org/1999/xlink" width="226.517" height="77.484" viewBox="0 0 226.517 77.484">
  <defs>
    <clipPath id="clip-path">
      <rect id="Rectangle_121" data-name="Rectangle 121" width="226.517" height="77.484" fill="none" stroke="#5f3333" stroke-width="0.75"/>
    </clipPath>
  </defs>
  <g id="Group_114" data-name="Group 114" transform="translate(0 0)">
    <g id="Group_114-2" data-name="Group 114" transform="translate(0 0)" clip-path="url(#clip-path)">
      <circle id="Ellipse_2" data-name="Ellipse 2" cx="20.773" cy="20.773" r="20.773" transform="translate(136.385 0.534)" fill="none" stroke="#5f3333" stroke-width="0.75"/>
      <path id="Path_461" data-name="Path 461" d="M6.243,48.516,47.922,17.152,63.9,18.926,99.4,1.173,131.356,27.8l15.978-8.876L177.512,42l14.2-3.551,29.823,12.462" transform="translate(6.022 1.33)" fill="none" stroke="#5f3333" stroke-width="0.75"/>
      <line id="Line_48" data-name="Line 48" x1="51.428" y1="34.124" transform="translate(69.921 20.255)" fill="none" stroke="#5f3333" stroke-width="0.75"/>
      <line id="Line_49" data-name="Line 49" x2="6.483" transform="translate(150.175 63.009)" fill="none" stroke="#5f3333" stroke-width="0.75"/>
      <line id="Line_50" data-name="Line 50" x2="6.483" transform="translate(162.259 63.009)" fill="none" stroke="#5f3333" stroke-width="0.75"/>
      <line id="Line_51" data-name="Line 51" x2="6.483" transform="translate(173.652 63.009)" fill="none" stroke="#5f3333" stroke-width="0.75"/>
      <line id="Line_52" data-name="Line 52" x2="6.483" transform="translate(162.259 76.951)" fill="none" stroke="#5f3333" stroke-width="0.75"/>
      <line id="Line_53" data-name="Line 53" x2="6.483" transform="translate(145.003 69.671)" fill="none" stroke="#5f3333" stroke-width="0.75"/>
      <line id="Line_54" data-name="Line 54" x2="6.483" transform="translate(156.015 69.671)" fill="none" stroke="#5f3333" stroke-width="0.75"/>
      <line id="Line_55" data-name="Line 55" x2="6.483" transform="translate(167.372 69.671)" fill="none" stroke="#5f3333" stroke-width="0.75"/>
      <line id="Line_56" data-name="Line 56" x2="6.483" transform="translate(178.385 69.671)" fill="none" stroke="#5f3333" stroke-width="0.75"/>
      <path id="Path_462" data-name="Path 462" d="M22.315,32.561s.431-5.453,8.006-4.886" transform="translate(25.277 31.302)" fill="none" stroke="#5f3333" stroke-width="0.75"/>
      <path id="Path_463" data-name="Path 463" d="M26.794,32.561s-.64-5.453-8.439-4.886" transform="translate(20.791 31.302)" fill="none" stroke="#5f3333" stroke-width="0.75"/>
      <path id="Path_464" data-name="Path 464" d="M22.31,30.5A6.1,6.1,0,0,1,28.2,26.016" transform="translate(25.271 29.469)" fill="none" stroke="#5f3333" stroke-width="0.75"/>
      <line id="Line_57" data-name="Line 57" y1="9.173" transform="translate(47.588 67.949)" fill="none" stroke="#5f3333" stroke-width="0.75"/>
      <line id="Line_58" data-name="Line 58" y1="14.377" transform="translate(47.588 53.572)" fill="none" stroke="#5f3333" stroke-width="0.75"/>
      <path id="Path_465" data-name="Path 465" d="M25.419,30.5a6.521,6.521,0,0,0-5.886-4.487" transform="translate(22.125 29.469)" fill="none" stroke="#5f3333" stroke-width="0.75"/>
      <path id="Path_466" data-name="Path 466" d="M22.293,31.723s3.685-4.984,8.951-.574" transform="translate(25.252 33.221)" fill="none" stroke="#5f3333" stroke-width="0.75"/>
      <path id="Path_467" data-name="Path 467" d="M27.047,31.723s-3.685-4.984-8.951-.574" transform="translate(20.498 33.221)" fill="none" stroke="#5f3333" stroke-width="0.75"/>
      <path id="Path_468" data-name="Path 468" d="M32.583,32.561s.431-5.453,8.006-4.886" transform="translate(36.908 31.302)" fill="none" stroke="#5f3333" stroke-width="0.75"/>
      <path id="Path_469" data-name="Path 469" d="M37.062,32.561s-.64-5.453-8.439-4.886" transform="translate(32.422 31.302)" fill="none" stroke="#5f3333" stroke-width="0.75"/>
      <path id="Path_470" data-name="Path 470" d="M32.578,30.5a6.1,6.1,0,0,1,5.886-4.487" transform="translate(36.902 29.469)" fill="none" stroke="#5f3333" stroke-width="0.75"/>
      <line id="Line_59" data-name="Line 59" y1="9.173" transform="translate(69.486 67.949)" fill="none" stroke="#5f3333" stroke-width="0.75"/>
      <line id="Line_60" data-name="Line 60" y1="14.377" transform="translate(69.486 53.572)" fill="none" stroke="#5f3333" stroke-width="0.75"/>
      <path id="Path_471" data-name="Path 471" d="M35.687,30.5A6.521,6.521,0,0,0,29.8,26.016" transform="translate(33.756 29.469)" fill="none" stroke="#5f3333" stroke-width="0.75"/>
      <path id="Path_472" data-name="Path 472" d="M32.561,31.723s3.685-4.984,8.951-.574" transform="translate(36.883 33.221)" fill="none" stroke="#5f3333" stroke-width="0.75"/>
      <path id="Path_473" data-name="Path 473" d="M37.315,31.723s-3.685-4.984-8.951-.574" transform="translate(32.129 33.221)" fill="none" stroke="#5f3333" stroke-width="0.75"/>
      <path id="Path_474" data-name="Path 474" d="M64.242,32.561s.431-5.453,8.006-4.886" transform="translate(72.768 31.302)" fill="none" stroke="#5f3333" stroke-width="0.75"/>
      <path id="Path_475" data-name="Path 475" d="M68.722,32.561s-.64-5.453-8.439-4.886" transform="translate(68.284 31.302)" fill="none" stroke="#5f3333" stroke-width="0.75"/>
      <path id="Path_476" data-name="Path 476" d="M64.238,30.5a6.1,6.1,0,0,1,5.886-4.487" transform="translate(72.764 29.469)" fill="none" stroke="#5f3333" stroke-width="0.75"/>
      <line id="Line_61" data-name="Line 61" y1="9.173" transform="translate(137.008 67.949)" fill="none" stroke="#5f3333" stroke-width="0.75"/>
      <line id="Line_62" data-name="Line 62" y1="14.377" transform="translate(137.008 53.572)" fill="none" stroke="#5f3333" stroke-width="0.75"/>
      <path id="Path_477" data-name="Path 477" d="M67.347,30.5a6.521,6.521,0,0,0-5.886-4.487" transform="translate(69.618 29.469)" fill="none" stroke="#5f3333" stroke-width="0.75"/>
      <path id="Path_478" data-name="Path 478" d="M64.221,31.723s3.685-4.984,8.951-.574" transform="translate(72.745 33.221)" fill="none" stroke="#5f3333" stroke-width="0.75"/>
      <path id="Path_479" data-name="Path 479" d="M68.975,31.723s-3.685-4.984-8.951-.574" transform="translate(67.991 33.221)" fill="none" stroke="#5f3333" stroke-width="0.75"/>
      <path id="Path_480" data-name="Path 480" d="M90.652,32.561s.431-5.453,8.006-4.886" transform="translate(102.684 31.302)" fill="none" stroke="#5f3333" stroke-width="0.75"/>
      <path id="Path_481" data-name="Path 481" d="M95.131,32.561s-.64-5.453-8.439-4.886" transform="translate(98.198 31.302)" fill="none" stroke="#5f3333" stroke-width="0.75"/>
      <path id="Path_482" data-name="Path 482" d="M90.647,30.5a6.1,6.1,0,0,1,5.886-4.487" transform="translate(102.678 29.469)" fill="none" stroke="#5f3333" stroke-width="0.75"/>
      <line id="Line_63" data-name="Line 63" y1="9.173" transform="translate(193.332 67.949)" fill="none" stroke="#5f3333" stroke-width="0.75"/>
      <line id="Line_64" data-name="Line 64" y1="14.377" transform="translate(193.332 53.572)" fill="none" stroke="#5f3333" stroke-width="0.75"/>
      <path id="Path_483" data-name="Path 483" d="M93.756,30.5a6.521,6.521,0,0,0-5.886-4.487" transform="translate(99.532 29.469)" fill="none" stroke="#5f3333" stroke-width="0.75"/>
      <path id="Path_484" data-name="Path 484" d="M90.63,31.723s3.685-4.984,8.951-.574" transform="translate(102.659 33.221)" fill="none" stroke="#5f3333" stroke-width="0.75"/>
      <path id="Path_485" data-name="Path 485" d="M95.384,31.723s-3.685-4.984-8.951-.574" transform="translate(97.905 33.221)" fill="none" stroke="#5f3333" stroke-width="0.75"/>
      <path id="Path_486" data-name="Path 486" d="M54.173,30.969l3.31-2.979L60.9,30.606" transform="translate(61.363 31.704)" fill="none" stroke="#5f3333" stroke-width="0.75"/>
      <path id="Path_487" data-name="Path 487" d="M48.805,30.969l3.31-2.979,3.421,2.617" transform="translate(55.283 31.704)" fill="none" stroke="#5f3333" stroke-width="0.75"/>
      <path id="Path_488" data-name="Path 488" d="M43.753,30.969l3.31-2.979,3.421,2.617" transform="translate(49.56 31.704)" fill="none" stroke="#5f3333" stroke-width="0.75"/>
      <path id="Path_489" data-name="Path 489" d="M38.88,30.969l3.31-2.979,3.421,2.617" transform="translate(44.04 31.704)" fill="none" stroke="#5f3333" stroke-width="0.75"/>
      <path id="Path_490" data-name="Path 490" d="M9.181,34.115l3.31-2.979,3.421,2.617" transform="translate(10.399 35.268)" fill="none" stroke="#5f3333" stroke-width="0.75"/>
      <path id="Path_491" data-name="Path 491" d="M.167,34.115l3.31-2.979L6.9,33.752" transform="translate(0.189 35.268)" fill="none" stroke="#5f3333" stroke-width="0.75"/>
      <path id="Path_492" data-name="Path 492" d="M14.245,34.115l3.31-2.979,3.421,2.617" transform="translate(16.135 35.268)" fill="none" stroke="#5f3333" stroke-width="0.75"/>
      <path id="Path_493" data-name="Path 493" d="M97.286,34.115l3.31-2.979,3.421,2.617" transform="translate(110.198 35.268)" fill="none" stroke="#5f3333" stroke-width="0.75"/>
      <path id="Path_494" data-name="Path 494" d="M64.756,1.84,61.446,4.82,58.025,2.2" transform="translate(65.726 2.085)" fill="none" stroke="#5f3333" stroke-width="0.75"/>
      <path id="Path_495" data-name="Path 495" d="M11.66,30.969l3.31-2.979,3.421,2.617" transform="translate(13.207 31.704)" fill="none" stroke="#5f3333" stroke-width="0.75"/>
      <path id="Path_496" data-name="Path 496" d="M41.286,34.115l3.31-2.979,3.421,2.617" transform="translate(46.765 35.268)" fill="none" stroke="#5f3333" stroke-width="0.75"/>
      <path id="Path_497" data-name="Path 497" d="M46.529,34.115l3.31-2.979,3.421,2.617" transform="translate(52.704 35.268)" fill="none" stroke="#5f3333" stroke-width="0.75"/>
      <path id="Path_498" data-name="Path 498" d="M39.065,37.384l3.31-2.979L45.8,37.021" transform="translate(44.25 38.971)" fill="none" stroke="#5f3333" stroke-width="0.75"/>
      <path id="Path_499" data-name="Path 499" d="M11.729,37.384l3.31-2.979,3.421,2.617" transform="translate(13.286 38.971)" fill="none" stroke="#5f3333" stroke-width="0.75"/>
      <path id="Path_500" data-name="Path 500" d="M93.295,37.384,96.6,34.4l3.421,2.617" transform="translate(105.677 38.971)" fill="none" stroke="#5f3333" stroke-width="0.75"/>
      <path id="Path_501" data-name="Path 501" d="M101.612,37.384l3.31-2.979,3.421,2.617" transform="translate(115.098 38.971)" fill="none" stroke="#5f3333" stroke-width="0.75"/>
      <path id="Path_502" data-name="Path 502" d="M51.775,34.407l3.31-2.979,3.421,2.617" transform="translate(58.647 35.599)" fill="none" stroke="#5f3333" stroke-width="0.75"/>
      <path id="Path_503" data-name="Path 503" d="M56.832,37.217l3.31-2.979,3.421,2.617" transform="translate(64.375 38.782)" fill="none" stroke="#5f3333" stroke-width="0.75"/>
    </g>
  </g>
</svg>
