<svg xmlns="http://www.w3.org/2000/svg" xmlns:xlink="http://www.w3.org/1999/xlink" width="69.998" height="70" viewBox="0 0 69.998 70">
  <defs>
    <clipPath id="clip-path">
      <rect id="Rectangle_41" data-name="Rectangle 41" width="69.998" height="70" fill="#5f3333"/>
    </clipPath>
  </defs>
  <g id="Group_48" data-name="Group 48" transform="translate(0 0)">
    <g id="Group_47" data-name="Group 47" transform="translate(0 0)" clip-path="url(#clip-path)">
      <path id="Path_81" data-name="Path 81" d="M.874,70H69.123A.875.875,0,0,0,70,69.124V62.052a.874.874,0,0,0-.876-.874H65.435V44.754A2.838,2.838,0,0,0,62.6,41.92H59.846V38.676A5.337,5.337,0,0,0,64.3,33.421c0-2.716-4.2-7.526-4.679-8.067a.875.875,0,0,0-1.308,0c-.479.541-4.681,5.35-4.681,8.067a5.337,5.337,0,0,0,4.459,5.255V41.92H55.338A2.837,2.837,0,0,0,52.5,44.754V61.178H48.718V37.754a2.837,2.837,0,0,0-2.835-2.833H43.128V31.676a5.336,5.336,0,0,0,4.458-5.255c0-2.716-4.2-7.526-4.679-8.066a.875.875,0,0,0-1.308,0c-.479.54-4.681,5.348-4.681,8.066a5.336,5.336,0,0,0,4.459,5.255v3.245H38.621a2.837,2.837,0,0,0-2.833,2.833V61.178H27.065V33.094a.875.875,0,0,0-.876-.876H19.918v-3.4A5.363,5.363,0,0,0,23.707,25.6a6.4,6.4,0,0,0,2.191.41,4.761,4.761,0,0,0,3.424-1.343,4.688,4.688,0,0,0,1.349-3.147,6.249,6.249,0,0,0-.43-2.512,5.166,5.166,0,0,0,3.279-4.6,5.166,5.166,0,0,0-3.3-4.61,5.984,5.984,0,0,0,.326-3.163A4.609,4.609,0,0,0,29.28,4.188a5.283,5.283,0,0,0-5.672-.919A5.174,5.174,0,0,0,19,0a5.176,5.176,0,0,0-4.618,3.3,5.274,5.274,0,0,0-5.618.936A4.779,4.779,0,0,0,7.41,7.657a6.325,6.325,0,0,0,.433,2.236,5.164,5.164,0,0,0-3.276,4.6,5.166,5.166,0,0,0,3.3,4.608,6.327,6.327,0,0,0-.411,2.185,4.615,4.615,0,0,0,4.78,4.767,6.4,6.4,0,0,0,2.244-.431,5.375,5.375,0,0,0,3.692,3.172v3.424H11.8a.873.873,0,0,0-.874.874V61.176H.874A.874.874,0,0,0,0,62.052v7.072A.874.874,0,0,0,.874,70M55.385,33.421c0-1.355,1.989-4.209,3.585-6.138,1.594,1.929,3.584,4.783,3.584,6.138a3.582,3.582,0,0,1-2.708,3.463v-2a.876.876,0,0,0-1.751,0v2a3.582,3.582,0,0,1-2.71-3.463m-16.719-7c0-1.355,1.989-4.209,3.585-6.138,1.594,1.929,3.584,4.783,3.584,6.138a3.581,3.581,0,0,1-2.71,3.463v-2a.875.875,0,1,0-1.75,0v2a3.581,3.581,0,0,1-2.71-3.463M28.085,23.428c-1.391,1.391-4.018,1.026-5.856-.808-1.023-1.02-1.694-3.186-2.012-4.985a3.411,3.411,0,0,0,2.03-2.06c1.814.316,4,.986,5.029,2.013a5.261,5.261,0,0,1,1.646,3.844,2.962,2.962,0,0,1-.836,2M19.041,12.795a1.656,1.656,0,1,1-1.661,1.656,1.66,1.66,0,0,1,1.661-1.656M31.77,14.407a3.489,3.489,0,0,1-2.343,3.047,7.727,7.727,0,0,0-.915-1.1,8.91,8.91,0,0,0-3.587-1.929,8.877,8.877,0,0,0,3.543-1.914,7.724,7.724,0,0,0,.942-1.153,3.539,3.539,0,0,1,2.36,3.052M28.041,5.428a2.825,2.825,0,0,1,.782,1.524,5.04,5.04,0,0,1-1.59,4.316c-1.026,1.023-3.195,1.692-5,2.009a3.4,3.4,0,0,0-2.063-2.027c.316-1.813.987-3.986,2.016-5.014,1.839-1.836,4.465-2.2,5.856-.808M19,1.751a3.492,3.492,0,0,1,3.055,2.334,7.717,7.717,0,0,0-1.1.912,8.9,8.9,0,0,0-1.937,3.587,8.835,8.835,0,0,0-1.921-3.543A7.815,7.815,0,0,0,15.94,4.1,3.544,3.544,0,0,1,19,1.751M10,5.472c1.392-1.391,4.019-1.028,5.858.808,1.025,1.022,1.694,3.181,2.012,4.987a3.4,3.4,0,0,0-2.03,2.059c-1.819-.315-4-.983-5.032-2.013A5.29,5.29,0,0,1,9.157,7.659,3.006,3.006,0,0,1,10,5.472M6.313,14.493a3.484,3.484,0,0,1,2.339-3.044,7.715,7.715,0,0,0,.919,1.1,8.91,8.91,0,0,0,3.587,1.929,8.875,8.875,0,0,0-3.545,1.914,7.851,7.851,0,0,0-.949,1.15,3.487,3.487,0,0,1-2.351-3.05m3.728,8.979A3,3,0,0,1,9.2,21.287a5.289,5.289,0,0,1,1.65-3.655c1.026-1.023,3.2-1.691,5-2.007a3.405,3.405,0,0,0,2.063,2.025c-.316,1.816-.986,3.986-2.016,5.014-1.84,1.836-4.467,2.2-5.858.808m5.99,1.346a7.813,7.813,0,0,0,1.1-.913,8.915,8.915,0,0,0,1.937-3.587,8.846,8.846,0,0,0,1.921,3.543,7.75,7.75,0,0,0,1.148.946,3.486,3.486,0,0,1-3.056,2.342,3.49,3.49,0,0,1-3.053-2.331M54.253,44.754a1.085,1.085,0,0,1,1.085-1.084H62.6a1.085,1.085,0,0,1,1.085,1.084V61.178H54.253Zm-16.719-7a1.085,1.085,0,0,1,1.085-1.084h7.262a1.086,1.086,0,0,1,1.085,1.084V61.178H37.534Zm-12.22,1.625h-5.4v-5.41h5.4Zm-7.146,0H12.68v-5.41h5.487ZM12.68,41.13h5.487V55.808a.875.875,0,0,0,1.75,0V41.13h5.4V61.178H12.68ZM1.75,62.928h66.5V68.25H1.75V62.928" transform="translate(0 0.001)" fill="#5f3333"/>
    </g>
  </g>
</svg>
