<svg id="Artwork_1" data-name="Artwork 1" xmlns="http://www.w3.org/2000/svg" width="26.622" height="26.622" viewBox="0 0 26.622 26.622">
  <g id="Artwork_1-2" data-name="Artwork 1" transform="translate(0 0)">
    <path id="Path_25" data-name="Path 25" d="M13.311,26.622A13.311,13.311,0,1,0,0,13.311,13.311,13.311,0,0,0,13.311,26.622" fill="#8d8d8d"/>
    <path id="Path_26" data-name="Path 26" d="M19.227,8.5H11.084A2.584,2.584,0,0,0,8.5,11.084v8.143a2.584,2.584,0,0,0,2.584,2.584h8.143a2.584,2.584,0,0,0,2.584-2.584V11.084A2.584,2.584,0,0,0,19.227,8.5Zm.7,1.566h.313v2.271H18.053V10.066ZM13.2,13.824a.736.736,0,1,0,.078,0Zm7.282,5.481a1.253,1.253,0,0,1-1.253,1.253H11.084a1.253,1.253,0,0,1-1.253-1.253V13.824h1.958a3.68,3.68,0,1,0,6.734,0H20.48Z" transform="translate(-1.844 -1.844)" fill="#fff"/>
  </g>
</svg>
