<svg id="Group_2" data-name="Group 2" xmlns="http://www.w3.org/2000/svg" xmlns:xlink="http://www.w3.org/1999/xlink" width="318.874" height="70.923" viewBox="0 0 318.874 70.923">
  <defs>
    <clipPath id="clip-path">
      <rect id="Rectangle_5" data-name="Rectangle 5" width="318.874" height="70.923" fill="none"/>
    </clipPath>
  </defs>
  <g id="Group_1" data-name="Group 1" clip-path="url(#clip-path)">
    <path id="Path_1" data-name="Path 1" d="M127.04,27.583c.067,1.429.037,2.87.037,4.238v17.6h-7.75V27.652a8.808,8.808,0,0,0-1.83-5.9c-1.877-2.185-4.337-2.582-7.073-2.081-.1.019-.151-.13-.066-.189a11.231,11.231,0,0,1,1.136-.708,12.925,12.925,0,0,1,7.059-1.62,8.471,8.471,0,0,1,4.788,1.628c2.854,2.167,3.543,5.453,3.7,8.8" transform="translate(-63.412 -9.846)" fill="#fff"/>
    <path id="Path_2" data-name="Path 2" d="M46.726,43.107V26.377A9.354,9.354,0,0,0,45.3,21.057c-1.759-2.776-5.269-3.393-8.468-3.671a.057.057,0,0,0-.045.1,9.337,9.337,0,0,1,2.378,6.795V41.551c-.006.867.013,2.639.031,3.512v0c.544,6.03,6.523,6.1,10.3,2.862a.079.079,0,0,0-.036-.138c-1.165-.254-2.74-1.235-2.74-4.681" transform="translate(-21.14 -9.994)" fill="#fff"/>
    <path id="Path_3" data-name="Path 3" d="M8.876,68.409C6,64.914,7.188,60.486,9.683,57.774a.127.127,0,0,0-.13-.208c-3.033.949-6.8,2.856-8.13,4.694-2.839,3.437-1.175,8.8,2.741,10.4a10.22,10.22,0,0,0,9.185-1.322.129.129,0,0,0-.063-.235c-1.554-.066-2.971-.937-4.411-2.69" transform="translate(0 -33.087)" fill="#fff"/>
    <path id="Path_4" data-name="Path 4" d="M13.544,17.53a.047.047,0,0,0-.031-.082,15.048,15.048,0,0,0-5.887,1.244A6.672,6.672,0,0,0,3.661,24.4l5.457,1.926a11.328,11.328,0,0,1,4.426-8.8" transform="translate(-2.104 -10.03)" fill="#fff"/>
    <path id="Path_5" data-name="Path 5" d="M81.348,43.107V26.377a9.355,9.355,0,0,1,1.422-5.321c1.759-2.776,5.269-3.393,8.468-3.671a.057.057,0,0,1,.045.1A9.337,9.337,0,0,0,88.9,24.277V41.551c.006.867-.013,2.639-.032,3.512v0c-.544,6.03-6.523,6.1-10.3,2.862a.079.079,0,0,1,.036-.138c1.165-.254,2.74-1.235,2.74-4.681" transform="translate(-45.151 -9.994)" fill="#fff"/>
    <path id="Path_6" data-name="Path 6" d="M171.519,27.583c.067,1.429.037,2.87.037,4.238v17.6h-7.749V27.652a8.808,8.808,0,0,0-1.83-5.9c-1.877-2.185-5.525-2.577-8.262-2.076-.1.019-.151-.13-.066-.189a11.155,11.155,0,0,1,1.136-.708,17.016,17.016,0,0,1,8.248-1.625,8.471,8.471,0,0,1,4.788,1.628c2.854,2.167,3.543,5.453,3.7,8.8" transform="translate(-88.297 -9.847)" fill="#fff"/>
    <path id="Path_7" data-name="Path 7" d="M219.527,26.75c0-3.963,2-6.814,5.04-8.008a9.888,9.888,0,0,1,2.355-.562.2.2,0,0,1,.219.2V50.044h-7.615Z" transform="translate(-126.192 -10.45)" fill="#fff"/>
    <path id="Path_8" data-name="Path 8" d="M369.206,43.107V26.377a9.355,9.355,0,0,0-1.422-5.321c-1.759-2.776-5.269-3.393-8.468-3.671a.057.057,0,0,0-.045.1,9.337,9.337,0,0,1,2.378,6.795V41.551c-.006.867.013,2.639.032,3.512v0c.544,6.03,6.523,6.1,10.3,2.862a.08.08,0,0,0-.036-.138c-1.165-.254-2.74-1.235-2.74-4.681" transform="translate(-206.512 -9.994)" fill="#fff"/>
    <path id="Path_9" data-name="Path 9" d="M331.356,68.409c-2.871-3.494-1.687-7.923.807-10.635a.127.127,0,0,0-.13-.208c-3.033.949-6.8,2.856-8.13,4.694-2.839,3.437-1.175,8.8,2.741,10.4a10.22,10.22,0,0,0,9.185-1.322.129.129,0,0,0-.063-.235c-1.554-.066-2.971-.937-4.411-2.69" transform="translate(-185.373 -33.087)" fill="#fff"/>
    <path id="Path_10" data-name="Path 10" d="M335.945,17.53a.047.047,0,0,0-.031-.082,15.048,15.048,0,0,0-5.887,1.244,6.672,6.672,0,0,0-3.965,5.71l5.457,1.926a11.327,11.327,0,0,1,4.426-8.8" transform="translate(-187.432 -10.03)" fill="#fff"/>
    <path id="Path_11" data-name="Path 11" d="M573.633,43.107V26.377a9.354,9.354,0,0,0-1.422-5.321c-1.759-2.776-5.269-3.393-8.468-3.671a.057.057,0,0,0-.045.1,9.337,9.337,0,0,1,2.378,6.795V41.551c-.006.867.013,2.639.032,3.512v0c.544,6.03,6.523,6.1,10.3,2.862a.079.079,0,0,0-.036-.138c-1.165-.254-2.74-1.235-2.74-4.681" transform="translate(-324.024 -9.994)" fill="#fff"/>
    <path id="Path_12" data-name="Path 12" d="M535.783,68.409c-2.871-3.494-1.687-7.923.807-10.635a.127.127,0,0,0-.13-.208c-3.033.949-6.8,2.856-8.13,4.694-2.839,3.437-1.175,8.8,2.741,10.4a10.22,10.22,0,0,0,9.185-1.322.129.129,0,0,0-.063-.235c-1.554-.066-2.971-.937-4.411-2.69" transform="translate(-302.884 -33.087)" fill="#fff"/>
    <path id="Path_13" data-name="Path 13" d="M540.372,17.53a.047.047,0,0,0-.031-.082,15.048,15.048,0,0,0-5.887,1.244,6.672,6.672,0,0,0-3.965,5.71l5.457,1.926a11.327,11.327,0,0,1,4.426-8.8" transform="translate(-304.943 -10.03)" fill="#fff"/>
    <path id="Path_14" data-name="Path 14" d="M729.953,43.107V26.377a9.355,9.355,0,0,0-1.422-5.321c-1.759-2.776-5.269-3.393-8.468-3.671a.057.057,0,0,0-.045.1,9.337,9.337,0,0,1,2.378,6.795V41.551c-.006.867.013,2.639.032,3.512v0c.544,6.03,6.523,6.1,10.3,2.862a.08.08,0,0,0-.036-.138c-1.165-.254-2.74-1.235-2.74-4.681" transform="translate(-413.882 -9.994)" fill="#fff"/>
    <path id="Path_15" data-name="Path 15" d="M692.1,68.409c-2.871-3.494-1.687-7.923.807-10.635a.127.127,0,0,0-.13-.208c-3.033.949-6.8,2.856-8.13,4.694-2.839,3.437-1.175,8.8,2.741,10.4a10.22,10.22,0,0,0,9.185-1.322.129.129,0,0,0-.063-.235c-1.554-.066-2.971-.937-4.411-2.69" transform="translate(-392.742 -33.087)" fill="#fff"/>
    <path id="Path_16" data-name="Path 16" d="M696.942,17.408a.047.047,0,0,0-.031-.082,15.049,15.049,0,0,0-5.887,1.244,6.672,6.672,0,0,0-3.965,5.71l5.457,1.926a11.328,11.328,0,0,1,4.426-8.8" transform="translate(-394.945 -9.96)" fill="#fff"/>
    <path id="Path_17" data-name="Path 17" d="M467.075,26.859c0-3.944,2-6.914,5.04-8.1a10.055,10.055,0,0,1,2.574-.58V50.041h-7.615Z" transform="translate(-268.491 -10.448)" fill="#fff"/>
    <path id="Path_18" data-name="Path 18" d="M493.371,25.477a.047.047,0,0,1-.068-.057,15.049,15.049,0,0,1,3.12-5.145,6.673,6.673,0,0,1,6.7-1.855l.014,5.787a11.326,11.326,0,0,0-9.766,1.27" transform="translate(-283.566 -10.44)" fill="#fff"/>
    <path id="Path_19" data-name="Path 19" d="M259.5,11.4l.005-3.162a11.1,11.1,0,0,0-.391-3.606,3.827,3.827,0,0,0-2.269-2.475.085.085,0,0,1-.03-.147,7.719,7.719,0,0,1,6.245-1.9,4.724,4.724,0,0,1,1.414.509c2.711,1.516,2.755,4.62,2.691,7.356q-.231,9.981-.044,19.967c.05,2.693.193,5.59,1.848,7.714a7.165,7.165,0,0,0,5.625,2.6c.562,0,.757.182.6.448a.422.422,0,0,1-.178.144c-3.789,2.034-8.993,2.141-12.424-.691-2.815-2.324-3.105-5.643-3.1-9.046Z" transform="translate(-147.61 0)" fill="#fff"/>
    <path id="Path_20" data-name="Path 20" d="M288.154,25.477a.047.047,0,0,1-.068-.057,15.049,15.049,0,0,1,3.12-5.145,6.673,6.673,0,0,1,6.7-1.855l.014,5.787a11.326,11.326,0,0,0-9.766,1.27" transform="translate(-165.6 -10.44)" fill="#fff"/>
    <path id="Path_21" data-name="Path 21" d="M647.043,26.193l5.457-1.926a6.673,6.673,0,0,0-3.965-5.71,15.063,15.063,0,0,0-5.887-1.244.047.047,0,0,0-.031.083,11.325,11.325,0,0,1,4.426,8.8" transform="translate(-369.388 -9.952)" fill="#fff"/>
    <path id="Path_22" data-name="Path 22" d="M632.954,36.606a9.384,9.384,0,0,0-2.7-2.858,34.756,34.756,0,0,0-5.738-3,35.145,35.145,0,0,1-5.9-3.056,7.8,7.8,0,0,1-2.681-2.952,7.065,7.065,0,0,1-.713-2.993,7.152,7.152,0,0,1,1.314-4.244.059.059,0,0,0-.067-.091,12.777,12.777,0,0,0-3.726,1.936,8.615,8.615,0,0,0-3.576,7.284,7.7,7.7,0,0,0,.943,3.934,9.122,9.122,0,0,0,2.725,2.877,37.558,37.558,0,0,0,6.312,3.142,22.56,22.56,0,0,1,6.663,3.782,6.432,6.432,0,0,1,2.1,4.794,6.828,6.828,0,0,1-1.528,4.417.061.061,0,0,0,.067.1q.6-.217,1.166-.48a11.668,11.668,0,0,0,4.741-3.735,8.5,8.5,0,0,0,1.536-5.039,7.239,7.239,0,0,0-.937-3.814" transform="translate(-350.168 -10.007)" fill="#fff"/>
    <path id="Path_23" data-name="Path 23" d="M619.535,81.2a.047.047,0,0,1-.031.082,15.048,15.048,0,0,1-5.887-1.244,6.672,6.672,0,0,1-3.965-5.71l5.457-1.926a11.328,11.328,0,0,0,4.426,8.8" transform="translate(-350.449 -41.62)" fill="#fff"/>
    <rect id="Rectangle_2" data-name="Rectangle 2" width="7.259" height="7.26" transform="translate(175.209 23.907) rotate(-45)" fill="#fff"/>
    <path id="Path_24" data-name="Path 24" d="M169.879,140.692l.236,9.215h-1.161l.272-9.777-.072-2.413h.508l7.963,9.323-.236-9.251h1.161l-.29,9.758.073,2.431h-.508Z" transform="translate(-97.12 -79.164)" fill="#fff"/>
    <path id="Path_25" data-name="Path 25" d="M210.663,149.76H208.5l-1.361-3.247-5.006.127-1.125,3.12h-1.251l4.19-10.013.8-2.285h.471Zm-8.235-3.9,4.462.091-2.449-5.768Z" transform="translate(-114.83 -79.018)" fill="#fff"/>
    <path id="Path_26" data-name="Path 26" d="M234.566,140.692l.236,9.215h-1.161l.272-9.777-.073-2.413h.508l7.963,9.323-.236-9.251h1.161l-.29,9.758.073,2.431h-.508Z" transform="translate(-134.305 -79.164)" fill="#fff"/>
    <path id="Path_27" data-name="Path 27" d="M271.609,150h-3.193V137.888h3.193c4.535,0,6.911,2.231,6.911,6.058S276.143,150,271.609,150m.036-11.464-1.324-.091v10.992l1.324-.091c3.265-.253,4.807-2.1,4.807-5.405s-1.542-5.17-4.807-5.406" transform="translate(-154.295 -79.263)" fill="#fff"/>
    <rect id="Rectangle_3" data-name="Rectangle 3" width="1.904" height="12.117" transform="translate(128.58 58.625)" fill="#fff"/>
    <path id="Path_28" data-name="Path 28" d="M335.32,137.888l1.9.091,5.641-.091v1l-5.641-.345v5.279l4.517-.254v1l-4.517-.182V150h-1.9Z" transform="translate(-192.754 -79.263)" fill="#fff"/>
    <path id="Path_29" data-name="Path 29" d="M365.391,149.916c-3.446,0-5.75-2.521-5.75-6.24,0-3.736,2.3-6.258,5.75-6.258,3.465,0,5.768,2.521,5.768,6.258,0,3.718-2.3,6.24-5.768,6.24m0-11.845c-2.267,0-3.682,2.159-3.682,5.6,0,3.429,1.415,5.587,3.682,5.587,2.285,0,3.7-2.158,3.7-5.587,0-3.446-1.415-5.6-3.7-5.6" transform="translate(-206.734 -78.993)" fill="#fff"/>
    <path id="Path_30" data-name="Path 30" d="M400.422,149.916c-3.446,0-5.75-2.521-5.75-6.24,0-3.736,2.3-6.258,5.75-6.258,3.465,0,5.768,2.521,5.768,6.258,0,3.718-2.3,6.24-5.768,6.24m0-11.845c-2.267,0-3.682,2.159-3.682,5.6,0,3.429,1.415,5.587,3.682,5.587,2.285,0,3.7-2.158,3.7-5.587,0-3.446-1.415-5.6-3.7-5.6" transform="translate(-226.871 -78.993)" fill="#fff"/>
    <path id="Path_31" data-name="Path 31" d="M437.879,139.049l-3.828-.472V150h-1.9V138.577l-3.809.472v-1.161l4.752.09,4.789-.09Z" transform="translate(-246.224 -79.263)" fill="#fff"/>
    <path id="Path_32" data-name="Path 32" d="M459.485,150V137.887h1.9v5.732h5.968v-5.732h1.9V150h-1.9v-5.732h-5.968V150Z" transform="translate(-264.128 -79.262)" fill="#fff"/>
    <rect id="Rectangle_4" data-name="Rectangle 4" width="1.904" height="12.117" transform="translate(210.324 58.625)" fill="#fff"/>
    <path id="Path_33" data-name="Path 33" d="M511.37,137.888h1.9v11.463l5.642-.544V150l-5.642-.091-1.9.091Z" transform="translate(-293.953 -79.263)" fill="#fff"/>
    <path id="Path_34" data-name="Path 34" d="M537.782,137.888h1.9v11.463l5.642-.544V150l-5.642-.091-1.9.091Z" transform="translate(-309.135 -79.263)" fill="#fff"/>
    <path id="Path_35" data-name="Path 35" d="M569.792,138.034v1.452a5.429,5.429,0,0,0-3.356-1.415,1.976,1.976,0,0,0-2.231,1.886c0,1.106.653,1.723,3.083,2.92,2.25,1.125,3.138,2.14,3.138,3.592,0,2.14-1.6,3.446-4.226,3.446a8.747,8.747,0,0,1-3.627-.689v-1.433a6.738,6.738,0,0,0,3.664,1.469c1.542,0,2.557-.78,2.557-1.977,0-1.179-.707-1.887-3.048-3.029-2.249-1.088-3.1-2.031-3.1-3.5,0-2,1.614-3.338,4.009-3.338a8.788,8.788,0,0,1,3.138.616" transform="translate(-323.386 -78.993)" fill="#fff"/>
  </g>
</svg>
