<svg xmlns="http://www.w3.org/2000/svg" width="237" height="106" viewBox="0 0 237 106" fill="none"><g clip-path="url(#clip0_105_194)"><path d="M183.947 0.5H52.5527C23.6667 0.5 0.25 24.0051 0.25 53C0.25 81.9949 23.6667 105.5 52.5527 105.5H183.947C212.833 105.5 236.25 81.9949 236.25 53C236.25 24.0051 212.833 0.5 183.947 0.5Z" fill="#1916E7"></path><path d="M77.1732 30.502H53.1267C43.5463 30.502 35.1779 37.0196 32.8052 46.3544C29.9349 57.6099 36.7087 69.083 47.9347 71.9641V79.3654C48.0495 80.4282 48.9297 81.2349 50.014 81.2349C50.2947 81.2349 50.5753 81.1709 50.8305 81.0684C50.8432 81.0684 50.907 81.03 50.907 81.03L64.8374 72.6172H77.1859C88.769 72.6172 98.158 63.1928 98.158 51.566C98.158 39.9391 88.769 30.502 77.1859 30.502H77.1732Z" fill="white"></path><path d="M139.643 39.1706C144.631 39.273 149.236 42.0388 151.647 46.3669L152.081 47.148L159.735 42.6919L159.327 41.9364C155.423 34.676 147.846 30.2712 139.72 30.5529C133.545 30.3096 127.409 32.6529 122.893 37.0065C114.334 46.1236 114.295 60.4523 122.804 69.6334L123.059 69.3901L122.83 69.6206C126.976 73.7565 132.627 76.0742 138.444 76.0742C138.737 76.0742 139.005 76.0742 139.286 76.0614C143.394 76.1254 147.463 75.037 151.035 73.001C154.466 71.1699 157.26 68.3401 159.161 64.8443L159.569 64.0888L151.877 59.6456L151.43 60.3882C148.892 64.6523 144.223 67.3541 139.235 67.4309C135.561 67.559 132.053 66.0736 129.565 63.423C124.322 57.648 124.36 48.9407 129.629 43.1913C132.231 40.5151 135.918 39.0425 139.63 39.1577L139.643 39.1706Z" fill="white"></path><path d="M194.255 51.438C193.017 50.7593 191.168 49.9014 188.285 48.7361L184.011 46.9434C182.2 46.4056 180.898 44.7282 180.835 42.8203C180.835 40.4002 182.876 38.7483 185.912 38.7483C189.394 38.7483 192.66 40.3745 194.727 43.1532L195.122 43.6398L200.875 37.5319L200.595 37.1605C197.253 32.666 191.895 30.1306 186.307 30.4123C182.404 30.2331 178.538 31.5264 175.477 33.9977C172.811 36.2386 171.318 39.5934 171.369 43.0892C171.318 47.8142 174.061 52.1038 178.373 54.0117C180.133 54.9209 181.919 55.7532 183.756 56.4831C185.491 57.1105 187.162 57.7892 188.808 58.5831C190.708 59.2361 192.009 60.9776 192.086 62.9623C192.086 65.6386 189.331 67.6489 185.682 67.6489C181.434 67.5081 177.518 65.1776 175.362 61.477L175.03 60.9136L168.652 66.6886L168.881 67.0599C172.428 72.8349 178.742 76.305 185.516 76.1898C189.764 76.3819 193.936 74.9861 197.214 72.2971H197.176C200.097 69.9154 201.768 66.33 201.743 62.5398C201.679 57.6483 198.732 53.2691 194.267 51.4123L194.255 51.438Z" fill="white"></path></g><defs><clipPath id="clip0_105_194"><rect width="236" height="105" fill="white" transform="translate(0.25 0.5)"></rect></clipPath></defs></svg>