<svg id="Artwork_2" data-name="Artwork 2" xmlns="http://www.w3.org/2000/svg" width="26.622" height="26.622" viewBox="0 0 26.622 26.622">
  <g id="Artwork_2-2" data-name="Artwork 2" transform="translate(0 0)">
    <path id="Path_21" data-name="Path 21" d="M13.311,26.622A13.311,13.311,0,1,0,0,13.311,13.311,13.311,0,0,0,13.311,26.622" fill="#8d8d8d"/>
    <path id="Path_22" data-name="Path 22" d="M12.9,12.882h1.409V11.55a3.6,3.6,0,0,1,.47-2.036A2.427,2.427,0,0,1,16.893,8.5a8.691,8.691,0,0,1,2.506.235l-.313,2.036a4.62,4.62,0,0,0-1.1-.157c-.548,0-1.018.157-1.018.7v1.566h2.192l-.157,1.958H16.893v6.89H14.309V14.917H12.9Z" transform="translate(-2.799 -1.841)" fill="#fff"/>
  </g>
</svg>
