<svg id="Group_150" data-name="Group 150" xmlns="http://www.w3.org/2000/svg" xmlns:xlink="http://www.w3.org/1999/xlink" width="116.683" height="126.5" viewBox="0 0 116.683 126.5">
  <defs>
    <clipPath id="clip-path">
      <rect id="Rectangle_151" data-name="Rectangle 151" width="116.683" height="126.5" fill="none"/>
    </clipPath>
  </defs>
  <g id="Group_150-2" data-name="Group 150" clip-path="url(#clip-path)">
    <path id="Path_687" data-name="Path 687" d="M90.873,94.792c0-15.075,1.7-29.309,7.635-43.183" fill="none" stroke="#5f3333" stroke-width="0.5"/>
    <path id="Path_688" data-name="Path 688" d="M88.8,90.449a130.384,130.384,0,0,1,1.378-20.187,107.115,107.115,0,0,1,3.416-16.081c.963-3.025,2.236-7.853,4.764-9.927" fill="none" stroke="#5f3333" stroke-width="0.5"/>
    <path id="Path_689" data-name="Path 689" d="M82.863,90.594c-.145-4.078,1.2-8.333,2.173-12.266a79.855,79.855,0,0,1,4.081-12.381,57.719,57.719,0,0,1,7.441-12.783c2.27-2.886,4.893-6.559,8.172-8.331" fill="none" stroke="#5f3333" stroke-width="0.5"/>
    <path id="Path_690" data-name="Path 690" d="M77.939,92.332c0-16.524-.152-32.912,3.475-49.091" fill="none" stroke="#5f3333" stroke-width="0.5"/>
    <path id="Path_691" data-name="Path 691" d="M72.291,91.029c-.024-7.907,2.658-16.212,4.946-23.738A159.687,159.687,0,0,1,83.58,50.406c1.811-4.185,4.743-10.353,8.55-13.1" fill="none" stroke="#5f3333" stroke-width="0.5"/>
    <path id="Path_692" data-name="Path 692" d="M114.862,61.078c-9.6-.677-18.785,1.43-25.911,8.175-6.569,6.219-13.436,15.516-14.029,24.854" fill="none" stroke="#5f3333" stroke-width="0.5"/>
    <path id="Path_693" data-name="Path 693" d="M68.642,88.937c-.625-22.357-2.111-31.225-14.768-50.423" fill="none" stroke="#5f3333" stroke-width="0.5"/>
    <path id="Path_694" data-name="Path 694" d="M46.326,34.506A84.969,84.969,0,0,1,65.648,94.65" fill="none" stroke="#5f3333" stroke-width="0.5"/>
    <path id="Path_695" data-name="Path 695" d="M62.873,43.44s11.47,7.821,7.846,49.316" fill="none" stroke="#5f3333" stroke-width="0.5"/>
    <line id="Line_71" data-name="Line 71" x1="10.902" y1="51.643" transform="translate(29.241 39.526)" fill="none" stroke="#5f3333" stroke-width="0.5"/>
    <line id="Line_72" data-name="Line 72" x1="4.687" y1="40.275" transform="translate(37.508 51.221)" fill="none" stroke="#5f3333" stroke-width="0.5"/>
    <line id="Line_73" data-name="Line 73" x1="8.127" y1="36.571" transform="translate(29.82 54.002)" fill="none" stroke="#5f3333" stroke-width="0.5"/>
    <path id="Path_696" data-name="Path 696" d="M41.065,92.37s1.2-28.946-25.946-28.946" fill="none" stroke="#5f3333" stroke-width="0.5"/>
    <path id="Path_697" data-name="Path 697" d="M66.734,29.141s12.418,32.461,9.8,63.615" fill="none" stroke="#5f3333" stroke-width="0.5"/>
    <path id="Path_698" data-name="Path 698" d="M43.844,85.577a186.581,186.581,0,0,0-7-55.657" fill="none" stroke="#5f3333" stroke-width="0.5"/>
    <path id="Path_699" data-name="Path 699" d="M63.3,87.161s-.388-56.034-19.265-71.615" fill="none" stroke="#5f3333" stroke-width="0.5"/>
    <path id="Path_700" data-name="Path 700" d="M42.108,87.908s-3.047-40.162,8.586-56.5" fill="none" stroke="#5f3333" stroke-width="0.5"/>
    <path id="Path_701" data-name="Path 701" d="M87.4,47.456C77.386,59.88,74.179,87.534,74.179,87.534" fill="none" stroke="#5f3333" stroke-width="0.5"/>
    <path id="Path_702" data-name="Path 702" d="M81.66,86.6s6.145-21.375,19.9-27.119" fill="none" stroke="#5f3333" stroke-width="0.5"/>
    <path id="Path_703" data-name="Path 703" d="M47.774,45.148S69.015,62.916,67.412,85.493" fill="none" stroke="#5f3333" stroke-width="0.5"/>
    <path id="Path_704" data-name="Path 704" d="M103.9,51.09S87.772,72.657,85.6,87.518" fill="none" stroke="#5f3333" stroke-width="0.5"/>
    <path id="Path_705" data-name="Path 705" d="M26.335,60.151s7.974,14.317,7.974,27.366" fill="none" stroke="#5f3333" stroke-width="0.5"/>
    <path id="Path_706" data-name="Path 706" d="M22.24,27.988s29.1,11.567,29.982,59.119" fill="none" stroke="#5f3333" stroke-width="0.5"/>
    <path id="Path_707" data-name="Path 707" d="M78.46,45.993s-7.291,30.543-6.9,42.957" fill="none" stroke="#5f3333" stroke-linecap="round" stroke-linejoin="round" stroke-width="0.5"/>
    <line id="Line_74" data-name="Line 74" x1="14.599" y1="6.45" transform="translate(0.25 56.956)" fill="none" stroke="#5f3333" stroke-linecap="round" stroke-linejoin="round" stroke-width="0.5"/>
    <path id="Path_708" data-name="Path 708" d="M12.454,62.346c-6.6-.924-10.312,4.538-10.312,4.538" fill="none" stroke="#5f3333" stroke-linecap="round" stroke-linejoin="round" stroke-width="0.5"/>
    <path id="Path_709" data-name="Path 709" d="M1.351,70.182S8.425,62.043,14.429,63.3" fill="none" stroke="#5f3333" stroke-linecap="round" stroke-linejoin="round" stroke-width="0.5"/>
    <path id="Path_710" data-name="Path 710" d="M3.4,71.238s6.063-9.525,11.97-7.764c0,0-7.211.416-8.182,8.6" fill="none" stroke="#5f3333" stroke-linecap="round" stroke-linejoin="round" stroke-width="0.5"/>
    <path id="Path_711" data-name="Path 711" d="M7.342,49.6s1.819,11.33,6.107,13.247" fill="none" stroke="#5f3333" stroke-linecap="round" stroke-linejoin="round" stroke-width="0.5"/>
    <path id="Path_712" data-name="Path 712" d="M3.813,51.549s2.522,8.122,6.1,9.636" fill="none" stroke="#5f3333" stroke-linecap="round" stroke-linejoin="round" stroke-width="0.5"/>
    <path id="Path_713" data-name="Path 713" d="M13.852,53.617s-4.414,6.915,1,9.789" fill="none" stroke="#5f3333" stroke-linecap="round" stroke-linejoin="round" stroke-width="0.5"/>
    <path id="Path_714" data-name="Path 714" d="M15.416,55.434s-3.824,4.631-.3,7.991" fill="none" stroke="#5f3333" stroke-linecap="round" stroke-linejoin="round" stroke-width="0.5"/>
    <path id="Path_715" data-name="Path 715" d="M3.154,62.824s2.4-3.236,4.766-2.449" fill="none" stroke="#5f3333" stroke-linecap="round" stroke-linejoin="round" stroke-width="0.5"/>
    <line id="Line_75" data-name="Line 75" x1="11.458" y1="11.111" transform="translate(32.387 4.193)" fill="none" stroke="#5f3333" stroke-linecap="round" stroke-linejoin="round" stroke-width="0.5"/>
    <path id="Path_716" data-name="Path 716" d="M41.964,13.483C38.632,7.715,42.3,2.222,42.3,2.222" fill="none" stroke="#5f3333" stroke-linecap="round" stroke-linejoin="round" stroke-width="0.5"/>
    <path id="Path_717" data-name="Path 717" d="M45.061.25s-4.889,9.612-1.475,14.706" fill="none" stroke="#5f3333" stroke-linecap="round" stroke-linejoin="round" stroke-width="0.5"/>
    <path id="Path_718" data-name="Path 718" d="M46.806,1.749s-6.554,9.194-2.7,14.009c0,0-2.321-6.839,4.9-10.81" fill="none" stroke="#5f3333" stroke-linecap="round" stroke-linejoin="round" stroke-width="0.5"/>
    <path id="Path_719" data-name="Path 719" d="M28.233,13.527s11.185-2.566,14.571.689" fill="none" stroke="#5f3333" stroke-linecap="round" stroke-linejoin="round" stroke-width="0.5"/>
    <path id="Path_720" data-name="Path 720" d="M28.713,9.525s8.475-.71,11.222,2.042" fill="none" stroke="#5f3333" stroke-linecap="round" stroke-linejoin="round" stroke-width="0.5"/>
    <path id="Path_721" data-name="Path 721" d="M34.4,18.055s4.753-6.687,9.447-2.75" fill="none" stroke="#5f3333" stroke-linecap="round" stroke-linejoin="round" stroke-width="0.5"/>
    <path id="Path_722" data-name="Path 722" d="M36.669,18.823s2.858-5.282,7.3-3.275" fill="none" stroke="#5f3333" stroke-linecap="round" stroke-linejoin="round" stroke-width="0.5"/>
    <path id="Path_723" data-name="Path 723" d="M38.917,4.683s-2.1,3.443-.481,5.337" fill="none" stroke="#5f3333" stroke-linecap="round" stroke-linejoin="round" stroke-width="0.5"/>
    <path id="Path_724" data-name="Path 724" d="M23.551,63.137s-.225-8.779,6.249-9.067c0,0,2.343-9.371,10.542-9.762" fill="none" stroke="#5f3333" stroke-linecap="round" stroke-linejoin="round" stroke-width="0.5"/>
    <path id="Path_725" data-name="Path 725" d="M21.493,62.389s.526-8.393,7.262-8.206" fill="none" stroke="#5f3333" stroke-linecap="round" stroke-linejoin="round" stroke-width="0.5"/>
    <path id="Path_726" data-name="Path 726" d="M18.5,62.295s1.2-6.785,7.285-7.534" fill="none" stroke="#5f3333" stroke-linecap="round" stroke-linejoin="round" stroke-width="0.5"/>
    <path id="Path_727" data-name="Path 727" d="M29.8,54.07c-7.69-1.489-13.64,4.2-13.64,4.2" fill="none" stroke="#5f3333" stroke-linecap="round" stroke-linejoin="round" stroke-width="0.5"/>
    <path id="Path_728" data-name="Path 728" d="M33.145,45.255s-4.138,2.21-3.679,8.767" fill="none" stroke="#5f3333" stroke-linecap="round" stroke-linejoin="round" stroke-width="0.5"/>
    <path id="Path_729" data-name="Path 729" d="M25.988,47.906s2.408,1.452,3.058,6.039" fill="none" stroke="#5f3333" stroke-linecap="round" stroke-linejoin="round" stroke-width="0.5"/>
    <path id="Path_730" data-name="Path 730" d="M23.236,51.69a4.547,4.547,0,0,1,5.542,2.331" fill="none" stroke="#5f3333" stroke-linecap="round" stroke-linejoin="round" stroke-width="0.5"/>
    <path id="Path_731" data-name="Path 731" d="M29.8,54.07c2.945-5.248,9.245-4.44,9.245-4.44" fill="none" stroke="#5f3333" stroke-linecap="round" stroke-linejoin="round" stroke-width="0.5"/>
    <path id="Path_732" data-name="Path 732" d="M76.473,34.613s-3.659-7.984-9.6-5.395c0,0-6.225-7.386-13.761-4.131" fill="none" stroke="#5f3333" stroke-linecap="round" stroke-linejoin="round" stroke-width="0.5"/>
    <path id="Path_733" data-name="Path 733" d="M77.992,33.036s-4.163-7.307-10.13-4.177" fill="none" stroke="#5f3333" stroke-linecap="round" stroke-linejoin="round" stroke-width="0.5"/>
    <path id="Path_734" data-name="Path 734" d="M80.64,31.635s-4.065-5.565-9.856-3.563" fill="none" stroke="#5f3333" stroke-linecap="round" stroke-linejoin="round" stroke-width="0.5"/>
    <path id="Path_735" data-name="Path 735" d="M66.873,29.217c6.252-4.719,14.1-2.224,14.1-2.224" fill="none" stroke="#5f3333" stroke-linecap="round" stroke-linejoin="round" stroke-width="0.5"/>
    <path id="Path_736" data-name="Path 736" d="M59.993,22.771s4.688.165,7.159,6.256" fill="none" stroke="#5f3333" stroke-linecap="round" stroke-linejoin="round" stroke-width="0.5"/>
    <path id="Path_737" data-name="Path 737" d="M67.587,22s-1.524,2.363-.091,6.768" fill="none" stroke="#5f3333" stroke-linecap="round" stroke-linejoin="round" stroke-width="0.5"/>
    <path id="Path_738" data-name="Path 738" d="M71.722,24.193a4.548,4.548,0,0,0-3.952,4.531" fill="none" stroke="#5f3333" stroke-linecap="round" stroke-linejoin="round" stroke-width="0.5"/>
    <path id="Path_739" data-name="Path 739" d="M66.873,29.217C61.92,25.8,56.618,29.3,56.618,29.3" fill="none" stroke="#5f3333" stroke-linecap="round" stroke-linejoin="round" stroke-width="0.5"/>
    <path id="Path_740" data-name="Path 740" d="M115.192,87.812c4.69,1.116-5.34,15.943-6.549,17.518a50.692,50.692,0,0,1-21.1,16.118c-25.885,10.428-77.4,5.59-85.633-31.727a1.463,1.463,0,0,1,1.182-1.728c6.07-1.961,29.518-2.569,31.863-2.678q20.181-.932,40.393-.4s30.867.758,39.848,2.894" fill="#fff"/>
    <path id="Path_741" data-name="Path 741" d="M115.192,87.812c4.69,1.116-5.34,15.943-6.549,17.518a50.692,50.692,0,0,1-21.1,16.118c-25.885,10.428-77.4,5.59-85.633-31.727a1.463,1.463,0,0,1,1.182-1.728c6.07-1.961,29.518-2.569,31.863-2.678q20.181-.932,40.393-.4S106.211,85.676,115.192,87.812Z" fill="none" stroke="#5f3333" stroke-width="0.5"/>
    <path id="Path_742" data-name="Path 742" d="M27.954,58.6s-.835-3.285,1.494-4.431" fill="none" stroke="#5f3333" stroke-linecap="round" stroke-linejoin="round" stroke-width="0.5"/>
    <path id="Path_743" data-name="Path 743" d="M104.082,32s-9.886.585-12,5.318c0,0,2.3-7.959,8.112-10.561" fill="none" stroke="#5f3333" stroke-linecap="round" stroke-linejoin="round" stroke-width="0.5"/>
    <path id="Path_744" data-name="Path 744" d="M99.882,30.694s-5.1,1.515-6.2,4.613" fill="none" stroke="#5f3333" stroke-linecap="round" stroke-linejoin="round" stroke-width="0.5"/>
    <path id="Path_745" data-name="Path 745" d="M92.081,37.321c5.557-3.219,14.135-2.427,14.135-2.427" fill="none" stroke="#5f3333" stroke-linecap="round" stroke-linejoin="round" stroke-width="0.5"/>
    <path id="Path_746" data-name="Path 746" d="M104.219,33.448s-7.987-.482-11.567,3.03" fill="none" stroke="#5f3333" stroke-linecap="round" stroke-linejoin="round" stroke-width="0.5"/>
    <path id="Path_747" data-name="Path 747" d="M88.108,27.94a13.781,13.781,0,0,1,4.133,8.924" fill="none" stroke="#5f3333" stroke-linecap="round" stroke-linejoin="round" stroke-width="0.5"/>
    <path id="Path_748" data-name="Path 748" d="M86.451,29.134s5.486,3.394,5.763,7.106" fill="none" stroke="#5f3333" stroke-linecap="round" stroke-linejoin="round" stroke-width="0.5"/>
    <path id="Path_749" data-name="Path 749" d="M85.813,30.617s5.983,3.277,6.26,6.712" fill="none" stroke="#5f3333" stroke-linecap="round" stroke-linejoin="round" stroke-width="0.5"/>
    <path id="Path_750" data-name="Path 750" d="M92.268,30.366s.7,1.185-.108,5.438" fill="none" stroke="#5f3333" stroke-linecap="round" stroke-linejoin="round" stroke-width="0.5"/>
    <path id="Path_751" data-name="Path 751" d="M22.5,28.053a13.931,13.931,0,0,1-5.186-8.4" fill="none" stroke="#5f3333" stroke-linecap="round" stroke-linejoin="round" stroke-width="0.5"/>
    <path id="Path_752" data-name="Path 752" d="M22.556,28.088C17.426,27.014,11.1,19.5,11.1,19.5" fill="none" stroke="#5f3333" stroke-linecap="round" stroke-linejoin="round" stroke-width="0.5"/>
    <path id="Path_753" data-name="Path 753" d="M6.094,21.527s8.045,5.054,13.771,5.531" fill="none" stroke="#5f3333" stroke-linecap="round" stroke-linejoin="round" stroke-width="0.5"/>
    <path id="Path_754" data-name="Path 754" d="M5.855,24.628s10.806,3.561,15.271,3.065" fill="none" stroke="#5f3333" stroke-linecap="round" stroke-linejoin="round" stroke-width="0.5"/>
    <path id="Path_755" data-name="Path 755" d="M5.831,29.195s14.294-.5,16.05-1.277" fill="none" stroke="#5f3333" stroke-linecap="round" stroke-linejoin="round" stroke-width="0.5"/>
    <path id="Path_756" data-name="Path 756" d="M8.76,33.775S19.973,30.5,22.369,28.066" fill="none" stroke="#5f3333" stroke-linecap="round" stroke-linejoin="round" stroke-width="0.5"/>
    <path id="Path_757" data-name="Path 757" d="M12.656,37.808s5.488-5.3,9.894-9.668" fill="none" stroke="#5f3333" stroke-linecap="round" stroke-linejoin="round" stroke-width="0.5"/>
    <path id="Path_758" data-name="Path 758" d="M15.089,43.705s4.317-11.382,7.419-15.618" fill="none" stroke="#5f3333" stroke-linecap="round" stroke-linejoin="round" stroke-width="0.5"/>
    <path id="Path_759" data-name="Path 759" d="M22.43,28.186s-1.853,13.79-1.614,17.787" fill="none" stroke="#5f3333" stroke-linecap="round" stroke-linejoin="round" stroke-width="0.5"/>
    <path id="Path_760" data-name="Path 760" d="M22.371,28.931a15.583,15.583,0,0,0,3.518,5.228" fill="none" stroke="#5f3333" stroke-linecap="round" stroke-linejoin="round" stroke-width="0.5"/>
    <path id="Path_761" data-name="Path 761" d="M22.057,31.069c.418,6.086,4.19,8.4,4.19,8.4" fill="none" stroke="#5f3333" stroke-linecap="round" stroke-linejoin="round" stroke-width="0.5"/>
    <path id="Path_762" data-name="Path 762" d="M25.292,41.677s-1.666-4.1-1.666-5.143" fill="none" stroke="#5f3333" stroke-linecap="round" stroke-linejoin="round" stroke-width="0.5"/>
    <path id="Path_763" data-name="Path 763" d="M23.456,44.275a81.222,81.222,0,0,1-.641-9.493" fill="none" stroke="#5f3333" stroke-linecap="round" stroke-linejoin="round" stroke-width="0.5"/>
    <path id="Path_764" data-name="Path 764" d="M104.738,44.818a9.59,9.59,0,0,0,3.569-5.781" fill="none" stroke="#5f3333" stroke-linecap="round" stroke-linejoin="round" stroke-width="0.5"/>
    <path id="Path_765" data-name="Path 765" d="M104.7,44.842c3.53-.739,7.881-5.911,7.881-5.911" fill="none" stroke="#5f3333" stroke-linecap="round" stroke-linejoin="round" stroke-width="0.5"/>
    <path id="Path_766" data-name="Path 766" d="M116.029,40.327s-5.537,3.478-9.477,3.806" fill="none" stroke="#5f3333" stroke-linecap="round" stroke-linejoin="round" stroke-width="0.5"/>
    <path id="Path_767" data-name="Path 767" d="M116.193,42.461s-7.436,2.45-10.508,2.109" fill="none" stroke="#5f3333" stroke-linecap="round" stroke-linejoin="round" stroke-width="0.5"/>
    <path id="Path_768" data-name="Path 768" d="M116.209,45.6s-9.836-.347-11.045-.879" fill="none" stroke="#5f3333" stroke-linecap="round" stroke-linejoin="round" stroke-width="0.5"/>
    <path id="Path_769" data-name="Path 769" d="M114.193,48.756s-7.716-2.253-9.365-3.929" fill="none" stroke="#5f3333" stroke-linecap="round" stroke-linejoin="round" stroke-width="0.5"/>
    <path id="Path_770" data-name="Path 770" d="M111.513,51.531s-3.776-3.649-6.809-6.653" fill="none" stroke="#5f3333" stroke-linecap="round" stroke-linejoin="round" stroke-width="0.5"/>
    <path id="Path_771" data-name="Path 771" d="M109.839,55.589s-2.97-7.832-5.106-10.747" fill="none" stroke="#5f3333" stroke-linecap="round" stroke-linejoin="round" stroke-width="0.5"/>
    <path id="Path_772" data-name="Path 772" d="M104.787,44.909s1.274,9.489,1.11,12.24" fill="none" stroke="#5f3333" stroke-linecap="round" stroke-linejoin="round" stroke-width="0.5"/>
    <path id="Path_773" data-name="Path 773" d="M104.828,45.422a10.727,10.727,0,0,1-2.421,3.6" fill="none" stroke="#5f3333" stroke-linecap="round" stroke-linejoin="round" stroke-width="0.5"/>
    <path id="Path_774" data-name="Path 774" d="M105.044,46.893c-.287,4.188-2.883,5.78-2.883,5.78" fill="none" stroke="#5f3333" stroke-linecap="round" stroke-linejoin="round" stroke-width="0.5"/>
    <path id="Path_775" data-name="Path 775" d="M102.818,54.193a20.59,20.59,0,0,0,1.146-3.539" fill="none" stroke="#5f3333" stroke-linecap="round" stroke-linejoin="round" stroke-width="0.5"/>
    <path id="Path_776" data-name="Path 776" d="M104.081,55.981a55.856,55.856,0,0,0,.441-6.533" fill="none" stroke="#5f3333" stroke-linecap="round" stroke-linejoin="round" stroke-width="0.5"/>
    <path id="Path_777" data-name="Path 777" d="M62.125,30.951s2.516-3.057,4.743-1.227" fill="none" stroke="#5f3333" stroke-linecap="round" stroke-linejoin="round" stroke-width="0.5"/>
    <path id="Path_778" data-name="Path 778" d="M66.784,29.571S59.267,26.1,56.577,32.884" fill="none" stroke="#5f3333" stroke-linecap="round" stroke-linejoin="round" stroke-width="0.5"/>
    <line id="Line_76" data-name="Line 76" y1="12.628" x2="2.604" transform="translate(81.394 30.393)" fill="none" stroke="#5f3333" stroke-linecap="round" stroke-linejoin="round" stroke-width="0.5"/>
    <path id="Path_779" data-name="Path 779" d="M81.823,40.949c-.4-5.367-5.342-7.369-5.342-7.369" fill="none" stroke="#5f3333" stroke-linecap="round" stroke-linejoin="round" stroke-width="0.5"/>
    <path id="Path_780" data-name="Path 780" d="M73.742,33.518s7.633,4.2,7.667,9.153" fill="none" stroke="#5f3333" stroke-linecap="round" stroke-linejoin="round" stroke-width="0.5"/>
    <path id="Path_781" data-name="Path 781" d="M73.257,35.312s8.555,3.163,8.172,8.128c0,0-1.558-5.623-8.185-4.994" fill="none" stroke="#5f3333" stroke-linecap="round" stroke-linejoin="round" stroke-width="0.5"/>
    <path id="Path_782" data-name="Path 782" d="M91.015,34.739s-8.637,3.368-9.42,7.081" fill="none" stroke="#5f3333" stroke-linecap="round" stroke-linejoin="round" stroke-width="0.5"/>
    <path id="Path_783" data-name="Path 783" d="M88.876,32.285s-5.984,3.377-6.568,6.463" fill="none" stroke="#5f3333" stroke-linecap="round" stroke-linejoin="round" stroke-width="0.5"/>
    <path id="Path_784" data-name="Path 784" d="M88.954,40.565s-6.213-2.307-7.56,2.456" fill="none" stroke="#5f3333" stroke-linecap="round" stroke-linejoin="round" stroke-width="0.5"/>
    <path id="Path_785" data-name="Path 785" d="M87.786,42.11s-4.309-2.23-6.361,1.128" fill="none" stroke="#5f3333" stroke-linecap="round" stroke-linejoin="round" stroke-width="0.5"/>
    <path id="Path_786" data-name="Path 786" d="M79.86,33.687s2.965,1.347,2.746,3.346" fill="none" stroke="#5f3333" stroke-linecap="round" stroke-linejoin="round" stroke-width="0.5"/>
    <path id="Path_787" data-name="Path 787" d="M93.362,42.109l-6,5.319,1.773-4.637" fill="none" stroke="#5f3333" stroke-linecap="round" stroke-linejoin="round" stroke-width="0.5"/>
    <path id="Path_788" data-name="Path 788" d="M94.794,44.428a19.441,19.441,0,0,0-7.433,3" fill="none" stroke="#5f3333" stroke-linecap="round" stroke-linejoin="round" stroke-width="0.5"/>
    <path id="Path_789" data-name="Path 789" d="M87.255,47.65c1.172-2.308-.888-4.723-.888-4.723" fill="none" stroke="#5f3333" stroke-linecap="round" stroke-linejoin="round" stroke-width="0.5"/>
    <path id="Path_790" data-name="Path 790" d="M87.36,47.429c.638-3.1-3.727-2.655-3.727-2.655" fill="none" stroke="#5f3333" stroke-linecap="round" stroke-linejoin="round" stroke-width="0.5"/>
    <path id="Path_791" data-name="Path 791" d="M96.345,48.432s-4.829-3.054-8.735-1.065" fill="none" stroke="#5f3333" stroke-linecap="round" stroke-linejoin="round" stroke-width="0.5"/>
    <line id="Line_77" data-name="Line 77" x1="4.669" y2="6.416" transform="translate(87.601 40.704)" fill="none" stroke="#5f3333" stroke-linecap="round" stroke-linejoin="round" stroke-width="0.5"/>
    <path id="Path_792" data-name="Path 792" d="M96.032,45.877s-6.837,0-8.718,1.676" fill="none" stroke="#5f3333" stroke-linecap="round" stroke-linejoin="round" stroke-width="0.5"/>
    <path id="Path_793" data-name="Path 793" d="M34.064,22.2l2.622,7.579-3.608-3.411" fill="none" stroke="#5f3333" stroke-linecap="round" stroke-linejoin="round" stroke-width="0.5"/>
    <path id="Path_794" data-name="Path 794" d="M36.754,21.758a19.445,19.445,0,0,0-.068,8.017" fill="none" stroke="#5f3333" stroke-linecap="round" stroke-linejoin="round" stroke-width="0.5"/>
    <path id="Path_795" data-name="Path 795" d="M36.851,29.957c-1.685-1.965-4.7-.984-4.7-.984" fill="none" stroke="#5f3333" stroke-linecap="round" stroke-linejoin="round" stroke-width="0.5"/>
    <path id="Path_796" data-name="Path 796" d="M36.686,29.774C34.067,28,32.809,32.2,32.809,32.2" fill="none" stroke="#5f3333" stroke-linecap="round" stroke-linejoin="round" stroke-width="0.5"/>
    <path id="Path_797" data-name="Path 797" d="M41.046,21.855s-4.667,3.3-4.323,7.665" fill="none" stroke="#5f3333" stroke-linecap="round" stroke-linejoin="round" stroke-width="0.5"/>
    <line id="Line_78" data-name="Line 78" x2="4.145" y2="6.766" transform="translate(32.348 22.668)" fill="none" stroke="#5f3333" stroke-linecap="round" stroke-linejoin="round" stroke-width="0.5"/>
    <path id="Path_798" data-name="Path 798" d="M38.566,21.168s-2.616,6.317-1.783,8.7" fill="none" stroke="#5f3333" stroke-linecap="round" stroke-linejoin="round" stroke-width="0.5"/>
    <path id="Path_799" data-name="Path 799" d="M46.448,34.629C40.37,31.884,38.462,38.2,38.462,38.2" fill="none" stroke="#5f3333" stroke-linecap="round" stroke-linejoin="round" stroke-width="0.5"/>
    <path id="Path_800" data-name="Path 800" d="M50.912,27.806s-4.616.616-4.439,6.811" fill="none" stroke="#5f3333" stroke-linecap="round" stroke-linejoin="round" stroke-width="0.5"/>
    <path id="Path_801" data-name="Path 801" d="M37.583,33.911a6.547,6.547,0,0,1,7.9.344" fill="none" stroke="#5f3333" stroke-linecap="round" stroke-linejoin="round" stroke-width="0.5"/>
    <path id="Path_802" data-name="Path 802" d="M48.026,25.77s-3.042,3.98-1.591,8.37" fill="none" stroke="#5f3333" stroke-linecap="round" stroke-linejoin="round" stroke-width="0.5"/>
    <path id="Path_803" data-name="Path 803" d="M39.07,29.416s5.758,2.317,7.394,5.211" fill="none" stroke="#5f3333" stroke-linecap="round" stroke-linejoin="round" stroke-width="0.5"/>
    <path id="Path_804" data-name="Path 804" d="M45.89,25.856s-2.532,3.183.082,8.125" fill="none" stroke="#5f3333" stroke-linecap="round" stroke-linejoin="round" stroke-width="0.5"/>
    <path id="Path_805" data-name="Path 805" d="M42.54,26.019s-.614,2.578,2.736,7.153" fill="none" stroke="#5f3333" stroke-linecap="round" stroke-linejoin="round" stroke-width="0.5"/>
    <path id="Path_806" data-name="Path 806" d="M38.8,31.32s5.708.814,7.555,3.136" fill="none" stroke="#5f3333" stroke-linecap="round" stroke-linejoin="round" stroke-width="0.5"/>
    <path id="Path_807" data-name="Path 807" d="M114.044,63.158c.319-.027-2.955-1.472-.367-4.269" fill="none" stroke="#5f3333" stroke-linecap="round" stroke-linejoin="round" stroke-width="0.5"/>
    <path id="Path_808" data-name="Path 808" d="M112.032,63.375c.349-.029-3.239-1.613-.4-4.678" fill="none" stroke="#5f3333" stroke-linecap="round" stroke-linejoin="round" stroke-width="0.5"/>
    <path id="Path_809" data-name="Path 809" d="M109.546,63.753c.346-.018-3.043-1.939.02-5.237" fill="none" stroke="#5f3333" stroke-linecap="round" stroke-linejoin="round" stroke-width="0.5"/>
    <path id="Path_810" data-name="Path 810" d="M103.684,60.633c.276-.162-3.3-.05-2.176-3.691" fill="none" stroke="#5f3333" stroke-linecap="round" stroke-linejoin="round" stroke-width="0.5"/>
    <path id="Path_811" data-name="Path 811" d="M101.963,61.7c.3-.177-3.618-.054-2.385-4.045" fill="none" stroke="#5f3333" stroke-linecap="round" stroke-linejoin="round" stroke-width="0.5"/>
    <path id="Path_812" data-name="Path 812" d="M99.885,63.114c.305-.166-3.582-.433-2.246-4.731" fill="none" stroke="#5f3333" stroke-linecap="round" stroke-linejoin="round" stroke-width="0.5"/>
    <path id="Path_813" data-name="Path 813" d="M100.671,44.456c.178-.266-2.992,1.4-3.568-2.372" fill="none" stroke="#5f3333" stroke-linecap="round" stroke-linejoin="round" stroke-width="0.5"/>
    <path id="Path_814" data-name="Path 814" d="M99.587,46.166c.195-.291-3.279,1.528-3.91-2.6" fill="none" stroke="#5f3333" stroke-linecap="round" stroke-linejoin="round" stroke-width="0.5"/>
    <path id="Path_815" data-name="Path 815" d="M98.334,48.345c.2-.282-3.412,1.172-4.084-3.278" fill="none" stroke="#5f3333" stroke-linecap="round" stroke-linejoin="round" stroke-width="0.5"/>
    <path id="Path_816" data-name="Path 816" d="M80.139,48.679c.079-.31-2.358,2.311-4.154-1.05" fill="none" stroke="#5f3333" stroke-linecap="round" stroke-linejoin="round" stroke-width="0.5"/>
    <path id="Path_817" data-name="Path 817" d="M79.686,50.652c.087-.34-2.584,2.532-4.552-1.151" fill="none" stroke="#5f3333" stroke-linecap="round" stroke-linejoin="round" stroke-width="0.5"/>
    <path id="Path_818" data-name="Path 818" d="M79.229,53.124c.1-.333-2.828,2.241-4.942-1.732" fill="none" stroke="#5f3333" stroke-linecap="round" stroke-linejoin="round" stroke-width="0.5"/>
    <path id="Path_819" data-name="Path 819" d="M48.314,42.617c-.252-.2,1.171,3.087-2.628,3.384" fill="none" stroke="#5f3333" stroke-linecap="round" stroke-linejoin="round" stroke-width="0.5"/>
    <path id="Path_820" data-name="Path 820" d="M49.939,43.823c-.276-.216,1.283,3.383-2.88,3.708" fill="none" stroke="#5f3333" stroke-linecap="round" stroke-linejoin="round" stroke-width="0.5"/>
    <path id="Path_821" data-name="Path 821" d="M52.021,45.233c-.267-.221.917,3.49-3.57,3.832" fill="none" stroke="#5f3333" stroke-linecap="round" stroke-linejoin="round" stroke-width="0.5"/>
    <path id="Path_822" data-name="Path 822" d="M66.07,43.656c-.183-.263.195,3.3-3.519,2.444" fill="none" stroke="#5f3333" stroke-linecap="round" stroke-linejoin="round" stroke-width="0.5"/>
    <path id="Path_823" data-name="Path 823" d="M67.26,45.293c-.2-.288.214,3.612-3.857,2.678" fill="none" stroke="#5f3333" stroke-linecap="round" stroke-linejoin="round" stroke-width="0.5"/>
    <path id="Path_824" data-name="Path 824" d="M68.825,47.26c-.188-.292-.166,3.6-4.551,2.591" fill="none" stroke="#5f3333" stroke-linecap="round" stroke-linejoin="round" stroke-width="0.5"/>
    <path id="Path_825" data-name="Path 825" d="M54.928,36.064c-.182-.262.195,3.3-3.519,2.444" fill="none" stroke="#5f3333" stroke-linecap="round" stroke-linejoin="round" stroke-width="0.5"/>
    <path id="Path_826" data-name="Path 826" d="M56.118,37.7c-.2-.288.214,3.612-3.857,2.678" fill="none" stroke="#5f3333" stroke-linecap="round" stroke-linejoin="round" stroke-width="0.5"/>
    <path id="Path_827" data-name="Path 827" d="M57.683,39.669c-.188-.291-.166,3.6-4.551,2.591" fill="none" stroke="#5f3333" stroke-linecap="round" stroke-linejoin="round" stroke-width="0.5"/>
    <path id="Path_828" data-name="Path 828" d="M49.293,56.808c-.123-.295-.5,3.264-3.952,1.655" fill="none" stroke="#5f3333" stroke-linecap="round" stroke-linejoin="round" stroke-width="0.5"/>
    <path id="Path_829" data-name="Path 829" d="M50.116,58.657c-.136-.324-.546,3.577-4.331,1.814" fill="none" stroke="#5f3333" stroke-linecap="round" stroke-linejoin="round" stroke-width="0.5"/>
    <path id="Path_830" data-name="Path 830" d="M51.235,60.908c-.123-.324-.915,3.49-4.992,1.583" fill="none" stroke="#5f3333" stroke-linecap="round" stroke-linejoin="round" stroke-width="0.5"/>
    <path id="Path_831" data-name="Path 831" d="M31.118,37.87c-.088-.307-.867,3.187-4.115,1.193" fill="none" stroke="#5f3333" stroke-linecap="round" stroke-linejoin="round" stroke-width="0.5"/>
    <path id="Path_832" data-name="Path 832" d="M31.724,39.8c-.1-.337-.95,3.491-4.51,1.307" fill="none" stroke="#5f3333" stroke-linecap="round" stroke-linejoin="round" stroke-width="0.5"/>
    <path id="Path_833" data-name="Path 833" d="M32.579,42.166c-.085-.336-1.308,3.363-5.14,1" fill="none" stroke="#5f3333" stroke-linecap="round" stroke-linejoin="round" stroke-width="0.5"/>
    <path id="Path_834" data-name="Path 834" d="M29.331,60.984c-.12-.3-.532,3.258-3.969,1.613" fill="none" stroke="#5f3333" stroke-linecap="round" stroke-linejoin="round" stroke-width="0.5"/>
    <path id="Path_835" data-name="Path 835" d="M30.134,62.842c-.131-.325-.583,3.571-4.35,1.768" fill="none" stroke="#5f3333" stroke-linecap="round" stroke-linejoin="round" stroke-width="0.5"/>
    <path id="Path_836" data-name="Path 836" d="M31.23,65.105c-.119-.326-.952,3.48-5.008,1.53" fill="none" stroke="#5f3333" stroke-linecap="round" stroke-linejoin="round" stroke-width="0.5"/>
    <path id="Path_837" data-name="Path 837" d="M39.749,52.1c-.051-.316-1.242,3.059-4.229.692" fill="none" stroke="#5f3333" stroke-linecap="round" stroke-linejoin="round" stroke-width="0.5"/>
    <path id="Path_838" data-name="Path 838" d="M40.119,54.086c-.056-.346-1.361,3.352-4.634.758" fill="none" stroke="#5f3333" stroke-linecap="round" stroke-linejoin="round" stroke-width="0.5"/>
    <path id="Path_839" data-name="Path 839" d="M40.686,56.535c-.045-.343-1.7,3.183-5.224.382" fill="none" stroke="#5f3333" stroke-linecap="round" stroke-linejoin="round" stroke-width="0.5"/>
  </g>
</svg>
