<svg id="Group_52" data-name="Group 52" xmlns="http://www.w3.org/2000/svg" xmlns:xlink="http://www.w3.org/1999/xlink" width="80.333" height="70" viewBox="0 0 80.333 70">
  <defs>
    <clipPath id="clip-path">
      <rect id="Rectangle_43" data-name="Rectangle 43" width="80.333" height="70" fill="#5f3333"/>
    </clipPath>
  </defs>
  <g id="Group_51" data-name="Group 51" transform="translate(0 0)" clip-path="url(#clip-path)">
    <path id="Path_87" data-name="Path 87" d="M1.013,70H79.319a1.013,1.013,0,1,0,0-2.027h-15.7V49.739a4.052,4.052,0,0,1,8.1,0,1.013,1.013,0,1,0,2.027,0,6.1,6.1,0,0,0-6.079-6.077,5.752,5.752,0,0,0-1.823.3,8.021,8.021,0,0,1,2.532-1.518,7.786,7.786,0,0,1,6.382.3,1,1,0,1,0,.812-1.823,10.269,10.269,0,0,0-11.548,2.027,8.439,8.439,0,0,1,7.9-5.673,1.013,1.013,0,0,0,0-2.027,10.592,10.592,0,0,0-8.407,4.256V33.025a1.013,1.013,0,0,0-2.027,0v6.382a10.6,10.6,0,0,0-8.409-4.254,1.012,1.012,0,0,0,0,2.025,8.31,8.31,0,0,1,7.9,5.673,10.275,10.275,0,0,0-11.548-2.025,1,1,0,1,0,.81,1.823,8.687,8.687,0,0,1,6.384-.3,8.063,8.063,0,0,1,2.532,1.52,5.752,5.752,0,0,0-1.823-.3,6.1,6.1,0,0,0-6.079,6.077,1.013,1.013,0,1,0,2.027,0,4.052,4.052,0,1,1,8.1,0V67.872H44.877V22.286a5.47,5.47,0,0,1,10.94,0,1.013,1.013,0,1,0,2.027,0,7.48,7.48,0,0,0-7.5-7.5A6.742,6.742,0,0,0,46.9,15.7a10.94,10.94,0,0,1,12.664-2.635,1,1,0,0,0,.81-1.823,13.022,13.022,0,0,0-15.2,3.343A10.863,10.863,0,0,1,55.717,6.18.958.958,0,0,0,56.73,5.166a.956.956,0,0,0-1.013-1.011,12.761,12.761,0,0,0-10.839,5.976V1.013a1.013,1.013,0,1,0-2.027,0v9.117A13,13,0,0,0,32.011,4.155.955.955,0,0,0,31,5.166.956.956,0,0,0,32.011,6.18a10.757,10.757,0,0,1,10.536,8.409,12.987,12.987,0,0,0-15.2-3.343,1,1,0,1,0,.812,1.823A10.971,10.971,0,0,1,40.825,15.7a7.914,7.914,0,0,0-3.444-.913,7.48,7.48,0,0,0-7.5,7.5,1.012,1.012,0,1,0,2.025,0,5.47,5.47,0,0,1,10.94,0V67.973H21.376v-23.1a5.369,5.369,0,0,1,10.738,0,1.012,1.012,0,1,0,2.025,0,7.437,7.437,0,0,0-7.4-7.4,7.833,7.833,0,0,0-3.444.81,10.1,10.1,0,0,1,4.357-2.937,10.49,10.49,0,0,1,8.2.3,1,1,0,0,0,.812-1.823,12.726,12.726,0,0,0-9.828-.406,13.706,13.706,0,0,0-5.267,3.646,10.744,10.744,0,0,1,10.433-8.306,1.013,1.013,0,0,0,0-2.027,12.594,12.594,0,0,0-10.736,5.875V23.6a1.013,1.013,0,0,0-2.027,0v9.014A12.729,12.729,0,0,0,8.51,26.744a1.013,1.013,0,0,0,0,2.027,10.744,10.744,0,0,1,10.433,8.306A12.809,12.809,0,0,0,3.85,33.836a1,1,0,1,0,.81,1.823,10.51,10.51,0,0,1,8.207-.3,10.725,10.725,0,0,1,4.355,2.937,7.82,7.82,0,0,0-3.444-.81,7.437,7.437,0,0,0-7.4,7.4A.958.958,0,0,0,7.4,45.891a.958.958,0,0,0,1.013-1.013,5.369,5.369,0,0,1,10.738,0v23.1H1.013a1.013,1.013,0,1,0,0,2.027" transform="translate(0 0)" fill="#5f3333"/>
  </g>
</svg>
