<svg xmlns="http://www.w3.org/2000/svg" xmlns:xlink="http://www.w3.org/1999/xlink" width="105.62" height="126.548" viewBox="0 0 105.62 126.548">
  <defs>
    <clipPath id="clip-path">
      <rect id="Rectangle_155" data-name="Rectangle 155" width="105.62" height="126.548" transform="translate(0 0)" fill="none"/>
    </clipPath>
  </defs>
  <g id="Group_151" data-name="Group 151" clip-path="url(#clip-path)">
    <path id="Path_840" data-name="Path 840" d="M51.479,3.43a6.766,6.766,0,0,1-2.8-1.119l.008-.7a7.2,7.2,0,0,1,8.26-.035L56.94,2.4a9.292,9.292,0,0,1-2.449.9" fill="#fff"/>
    <path id="Path_841" data-name="Path 841" d="M51.479,3.43a6.766,6.766,0,0,1-2.8-1.119l.008-.7a7.2,7.2,0,0,1,8.26-.035L56.94,2.4a9.292,9.292,0,0,1-2.449.9" fill="none" stroke="#5f3333" stroke-width="0.548"/>
    <path id="Path_842" data-name="Path 842" d="M54.443,48.282V2.188a2.735,2.735,0,0,0-2.926,0V48.282" fill="#fff"/>
    <path id="Path_843" data-name="Path 843" d="M54.443,48.282V2.188a2.735,2.735,0,0,0-2.926,0V48.282" fill="none" stroke="#5f3333" stroke-width="0.548"/>
    <path id="Path_844" data-name="Path 844" d="M45.474,48.4l-.091-2.676s-.6-2.5,8.488-2.227c0,0,5.89.557,6.586,1.948l-.09,3.057" fill="#fff"/>
    <path id="Path_845" data-name="Path 845" d="M45.474,48.4l-.091-2.676s-.6-2.5,8.488-2.227c0,0,5.89.557,6.586,1.948l-.09,3.057" fill="none" stroke="#5f3333" stroke-width="0.548"/>
    <path id="Path_846" data-name="Path 846" d="M45.662,48.926a3.222,3.222,0,0,0,1.472.674,22.858,22.858,0,0,0,12.258.066c1.415-.383,1.282-1.447.053-2.042-2.209-1.069-6.628-1.069-6.628-1.069s-4.275-.214-6.2.713a2.2,2.2,0,0,0-1.128,1,.606.606,0,0,0,.173.66" fill="#fff"/>
    <path id="Path_847" data-name="Path 847" d="M45.662,48.926a3.222,3.222,0,0,0,1.472.674,22.858,22.858,0,0,0,12.258.066c1.415-.383,1.282-1.447.053-2.042-2.209-1.069-6.628-1.069-6.628-1.069s-4.275-.214-6.2.713a2.2,2.2,0,0,0-1.128,1A.606.606,0,0,0,45.662,48.926Z" fill="none" stroke="#5f3333" stroke-width="0.548"/>
    <path id="Path_848" data-name="Path 848" d="M45.527,33.816,45.383,31.2s-.6-2.5,8.488-2.227c0,0,5.89.557,6.586,1.948l-.139,3" fill="#fff"/>
    <path id="Path_849" data-name="Path 849" d="M45.527,33.816,45.383,31.2s-.6-2.5,8.488-2.227c0,0,5.89.557,6.586,1.948l-.139,3" fill="none" stroke="#5f3333" stroke-width="0.548"/>
    <path id="Path_850" data-name="Path 850" d="M45.662,34.4a3.222,3.222,0,0,0,1.472.674,22.858,22.858,0,0,0,12.258.066c1.415-.383,1.282-1.447.053-2.042-2.209-1.069-6.628-1.069-6.628-1.069s-4.275-.214-6.2.713a2.2,2.2,0,0,0-1.128,1,.606.606,0,0,0,.173.66" fill="#fff"/>
    <path id="Path_851" data-name="Path 851" d="M45.662,34.4a3.222,3.222,0,0,0,1.472.674,22.858,22.858,0,0,0,12.258.066c1.415-.383,1.282-1.447.053-2.042-2.209-1.069-6.628-1.069-6.628-1.069s-4.275-.214-6.2.713a2.2,2.2,0,0,0-1.128,1A.606.606,0,0,0,45.662,34.4Z" fill="none" stroke="#5f3333" stroke-width="0.548"/>
    <path id="Path_852" data-name="Path 852" d="M58.014,33.615a10.958,10.958,0,0,0,1.2,5.423,10.588,10.588,0,0,0,12.811,4.008c3.286-1.3,4.88-5.508,4.515-9.585H78.43a12.381,12.381,0,0,1,0,1.981c-.085,1.077-.437,4.88-3,7.446-4.1,4.109-11.194,3.787-15.416.024a12.193,12.193,0,0,1-3.832-9.231,2.783,2.783,0,0,1,1.829-.066" fill="#fff"/>
    <path id="Path_853" data-name="Path 853" d="M58.014,33.615a10.958,10.958,0,0,0,1.2,5.423,10.588,10.588,0,0,0,12.811,4.008c3.286-1.3,4.88-5.508,4.515-9.585H78.43a12.381,12.381,0,0,1,0,1.981c-.085,1.077-.437,4.88-3,7.446-4.1,4.109-11.194,3.787-15.416.024a12.193,12.193,0,0,1-3.832-9.231A2.783,2.783,0,0,1,58.014,33.615Z" fill="none" stroke="#5f3333" stroke-width="0.548"/>
    <path id="Path_854" data-name="Path 854" d="M77.007,24.73s-1-1.079-.077-3.237,1.04-1.618,1.04-1.618a6.4,6.4,0,0,1,1.156,2.89,4.519,4.519,0,0,1-.336,2.027" fill="#fff"/>
    <path id="Path_855" data-name="Path 855" d="M77.007,24.73s-1-1.079-.077-3.237,1.04-1.618,1.04-1.618a6.4,6.4,0,0,1,1.156,2.89,4.519,4.519,0,0,1-.336,2.027" fill="none" stroke="#5f3333" stroke-width="0.548"/>
    <path id="Path_856" data-name="Path 856" d="M76.658,31.4V24.92a2.529,2.529,0,0,1,2.3,0V31.4" fill="#fff"/>
    <path id="Path_857" data-name="Path 857" d="M76.658,31.4V24.92a2.529,2.529,0,0,1,2.3,0V31.4" fill="none" stroke="#5f3333" stroke-width="0.548"/>
    <path id="Path_858" data-name="Path 858" d="M80.422,31.9c.03-.066-.232-.153-.28-.183a1.26,1.26,0,0,0-.43-.183c-.183-.033-.372,0-.554-.04a2.293,2.293,0,0,1-.454-.186,1.323,1.323,0,0,0-.494-.107,3.029,3.029,0,0,0-1.647.268,2.5,2.5,0,0,1-.285.16,1.248,1.248,0,0,1-.586,0,1.18,1.18,0,0,0-.866.321,3.635,3.635,0,0,0,1.911,1.624,4.466,4.466,0,0,0,2.153-.033A3.839,3.839,0,0,0,80.422,31.9" fill="#fff"/>
    <path id="Path_859" data-name="Path 859" d="M80.422,31.9c.03-.066-.232-.153-.28-.183a1.26,1.26,0,0,0-.43-.183c-.183-.033-.372,0-.554-.04a2.293,2.293,0,0,1-.454-.186,1.323,1.323,0,0,0-.494-.107,3.029,3.029,0,0,0-1.647.268,2.5,2.5,0,0,1-.285.16,1.248,1.248,0,0,1-.586,0,1.18,1.18,0,0,0-.866.321,3.635,3.635,0,0,0,1.911,1.624,4.466,4.466,0,0,0,2.153-.033A3.839,3.839,0,0,0,80.422,31.9Z" fill="none" stroke="#5f3333" stroke-width="0.548"/>
    <path id="Path_860" data-name="Path 860" d="M65.5,24.134c0,.167,0,.493,0,.9-.038,3.859-.686,10.067-1.715,12.492a7.427,7.427,0,0,1-2.137,3.036,4.606,4.606,0,0,1-3.459.87A5.118,5.118,0,0,1,55,39.726a7,7,0,0,1-1.446-3.776,18.8,18.8,0,0,1-.067-2.431,2.752,2.752,0,0,1,1.683.014c-.013.235.006.672,0,1.062,0,2.419,1.472,5.449,4.129,4.916,1.963-.4,2.594-2.57,3.055-4.257a32.212,32.212,0,0,0,1.06-6.914l.222-4.377a2.5,2.5,0,0,1,1.853.171" fill="#fff"/>
    <path id="Path_861" data-name="Path 861" d="M65.5,24.134c0,.167,0,.493,0,.9-.038,3.859-.686,10.067-1.715,12.492a7.427,7.427,0,0,1-2.137,3.036,4.606,4.606,0,0,1-3.459.87A5.118,5.118,0,0,1,55,39.726a7,7,0,0,1-1.446-3.776,18.8,18.8,0,0,1-.067-2.431,2.752,2.752,0,0,1,1.683.014c-.013.235.006.672,0,1.062,0,2.419,1.472,5.449,4.129,4.916,1.963-.4,2.594-2.57,3.055-4.257a32.212,32.212,0,0,0,1.06-6.914l.222-4.377A2.5,2.5,0,0,1,65.5,24.134Z" fill="none" stroke="#5f3333" stroke-width="0.548"/>
    <path id="Path_862" data-name="Path 862" d="M63.921,15.584s-1-1.079-.077-3.237,1.04-1.618,1.04-1.618a6.4,6.4,0,0,1,1.156,2.89,4.519,4.519,0,0,1-.336,2.027" fill="#fff"/>
    <path id="Path_863" data-name="Path 863" d="M63.921,15.584s-1-1.079-.077-3.237,1.04-1.618,1.04-1.618a6.4,6.4,0,0,1,1.156,2.89,4.519,4.519,0,0,1-.336,2.027" fill="none" stroke="#5f3333" stroke-width="0.548"/>
    <path id="Path_864" data-name="Path 864" d="M63.572,22.25V15.773a2.529,2.529,0,0,1,2.3,0V22.25" fill="#fff"/>
    <path id="Path_865" data-name="Path 865" d="M63.572,22.25V15.773a2.529,2.529,0,0,1,2.3,0V22.25" fill="none" stroke="#5f3333" stroke-width="0.548"/>
    <path id="Path_866" data-name="Path 866" d="M67.336,22.753c.03-.066-.232-.153-.28-.183a1.26,1.26,0,0,0-.43-.183c-.183-.033-.372,0-.554-.04a2.294,2.294,0,0,1-.454-.186,1.323,1.323,0,0,0-.494-.107,3.029,3.029,0,0,0-1.647.268,2.5,2.5,0,0,1-.285.16,1.248,1.248,0,0,1-.586,0,1.18,1.18,0,0,0-.866.321,3.635,3.635,0,0,0,1.911,1.624A4.466,4.466,0,0,0,65.8,24.4a3.839,3.839,0,0,0,1.532-1.643" fill="#fff"/>
    <path id="Path_867" data-name="Path 867" d="M67.336,22.753c.03-.066-.232-.153-.28-.183a1.26,1.26,0,0,0-.43-.183c-.183-.033-.372,0-.554-.04a2.294,2.294,0,0,1-.454-.186,1.323,1.323,0,0,0-.494-.107,3.029,3.029,0,0,0-1.647.268,2.5,2.5,0,0,1-.285.16,1.248,1.248,0,0,1-.586,0,1.18,1.18,0,0,0-.866.321,3.635,3.635,0,0,0,1.911,1.624A4.466,4.466,0,0,0,65.8,24.4,3.839,3.839,0,0,0,67.336,22.753Z" fill="none" stroke="#5f3333" stroke-width="0.548"/>
    <path id="Path_868" data-name="Path 868" d="M47,48.812c-.539,10.563-1.94,19.186-9.162,24.36-.467.334-8.947,5.453-17.892,1.832-6.048-2.448-9.038-7.62-10.24-9.7A26.115,26.115,0,0,1,6.361,55.064,70.135,70.135,0,0,1,5.9,44.84H3.658c.129,8.2.556,16.967,5.3,24a22.939,22.939,0,0,0,9.506,8,21.914,21.914,0,0,0,20.159-1.36C46.645,70.34,48.6,60.029,48.673,48.869Z" fill="#fff"/>
    <path id="Path_869" data-name="Path 869" d="M47,48.812c-.539,10.563-1.94,19.186-9.162,24.36-.467.334-8.947,5.453-17.892,1.832-6.048-2.448-9.038-7.62-10.24-9.7A26.115,26.115,0,0,1,6.361,55.064,70.135,70.135,0,0,1,5.9,44.84H3.658c.129,8.2.556,16.967,5.3,24a22.939,22.939,0,0,0,9.506,8,21.914,21.914,0,0,0,20.159-1.36C46.645,70.34,48.6,60.029,48.673,48.869Z" fill="none" stroke="#5f3333" stroke-width="0.548"/>
    <path id="Path_870" data-name="Path 870" d="M3.47,32.562s-1.437-1.547-.111-4.641S4.851,25.6,4.851,25.6a9.187,9.187,0,0,1,1.658,4.144,6.5,6.5,0,0,1-.482,2.908" fill="#fff"/>
    <path id="Path_871" data-name="Path 871" d="M3.47,32.562s-1.437-1.547-.111-4.641S4.851,25.6,4.851,25.6a9.187,9.187,0,0,1,1.658,4.144,6.5,6.5,0,0,1-.482,2.908" fill="none" stroke="#5f3333" stroke-width="0.548"/>
    <path id="Path_872" data-name="Path 872" d="M2.97,42.121V32.833a3.622,3.622,0,0,1,3.3,0v9.288" fill="#fff"/>
    <path id="Path_873" data-name="Path 873" d="M2.97,42.121V32.833a3.622,3.622,0,0,1,3.3,0v9.288" fill="none" stroke="#5f3333" stroke-width="0.548"/>
    <path id="Path_874" data-name="Path 874" d="M8.367,42.842c.043-.094-.332-.22-.4-.263a1.8,1.8,0,0,0-.618-.262c-.262-.047-.532,0-.794-.058a3.218,3.218,0,0,1-.65-.266,1.952,1.952,0,0,0-.708-.154,4.34,4.34,0,0,0-2.363.385,3.654,3.654,0,0,1-.409.23,1.806,1.806,0,0,1-.84,0,1.694,1.694,0,0,0-1.242.461,5.221,5.221,0,0,0,2.74,2.329A6.409,6.409,0,0,0,6.17,45.2a5.5,5.5,0,0,0,2.2-2.356" fill="#fff"/>
    <path id="Path_875" data-name="Path 875" d="M8.367,42.842c.043-.094-.332-.22-.4-.263a1.8,1.8,0,0,0-.618-.262c-.262-.047-.532,0-.794-.058a3.218,3.218,0,0,1-.65-.266,1.952,1.952,0,0,0-.708-.154,4.34,4.34,0,0,0-2.363.385,3.654,3.654,0,0,1-.409.23,1.806,1.806,0,0,1-.84,0,1.694,1.694,0,0,0-1.242.461,5.221,5.221,0,0,0,2.74,2.329A6.409,6.409,0,0,0,6.17,45.2,5.5,5.5,0,0,0,8.367,42.842Z" fill="none" stroke="#5f3333" stroke-width="0.548"/>
    <path id="Path_876" data-name="Path 876" d="M51.265,48.283c0,7.968.425,16.641-2.5,24.185-1.977,5.1-5.837,9.956-11.787,11.015-4.378.779-9.831.425-13.1-3.045C17.508,73.677,18.73,62.466,19,53.626c.565.022,1.508.156,2.073.177.151,4.976-.385,10.034.23,15a22.186,22.186,0,0,0,1.642,6.474,10.4,10.4,0,0,0,4.1,4.97c3.883,2.243,9.053,1.924,12.865-.026,10.32-5.281,9.438-24,9.518-27.762.031-1.479.015-3.131.026-4.122Z" fill="#fff"/>
    <path id="Path_877" data-name="Path 877" d="M51.265,48.283c0,7.968.425,16.641-2.5,24.185-1.977,5.1-5.837,9.956-11.787,11.015-4.378.779-9.831.425-13.1-3.045C17.508,73.677,18.73,62.466,19,53.626c.565.022,1.508.156,2.073.177.151,4.976-.385,10.034.23,15a22.186,22.186,0,0,0,1.642,6.474,10.4,10.4,0,0,0,4.1,4.97c3.883,2.243,9.053,1.924,12.865-.026,10.32-5.281,9.438-24,9.518-27.762.031-1.479.015-3.131.026-4.122Z" fill="none" stroke="#5f3333" stroke-width="0.548"/>
    <path id="Path_878" data-name="Path 878" d="M58.623,48.812c.539,10.563,1.94,19.186,9.162,24.36.467.334,8.947,5.453,17.892,1.832,6.048-2.448,9.038-7.62,10.24-9.7a26.115,26.115,0,0,0,3.341-10.239,69.994,69.994,0,0,0,.461-10.224h2.242c-.129,8.2-.556,16.967-5.3,24a22.939,22.939,0,0,1-9.506,8,21.914,21.914,0,0,1-20.159-1.36c-8.018-5.136-9.975-15.447-10.046-26.607Z" fill="#fff"/>
    <path id="Path_879" data-name="Path 879" d="M58.623,48.812c.539,10.563,1.94,19.186,9.162,24.36.467.334,8.947,5.453,17.892,1.832,6.048-2.448,9.038-7.62,10.24-9.7a26.115,26.115,0,0,0,3.341-10.239,69.994,69.994,0,0,0,.461-10.224h2.242c-.129,8.2-.556,16.967-5.3,24a22.939,22.939,0,0,1-9.506,8,21.914,21.914,0,0,1-20.159-1.36c-8.018-5.136-9.975-15.447-10.046-26.607Z" fill="none" stroke="#5f3333" stroke-width="0.548"/>
    <path id="Path_880" data-name="Path 880" d="M102.15,32.562s1.437-1.547.111-4.641-1.492-2.321-1.492-2.321a9.187,9.187,0,0,0-1.658,4.144,6.5,6.5,0,0,0,.482,2.908" fill="#fff"/>
    <path id="Path_881" data-name="Path 881" d="M102.15,32.562s1.437-1.547.111-4.641-1.492-2.321-1.492-2.321a9.187,9.187,0,0,0-1.658,4.144,6.5,6.5,0,0,0,.482,2.908" fill="none" stroke="#5f3333" stroke-width="0.548"/>
    <path id="Path_882" data-name="Path 882" d="M102.65,42.121V32.833a3.624,3.624,0,0,0-3.3,0v9.288" fill="#fff"/>
    <path id="Path_883" data-name="Path 883" d="M102.65,42.121V32.833a3.624,3.624,0,0,0-3.3,0v9.288" fill="none" stroke="#5f3333" stroke-width="0.548"/>
    <path id="Path_884" data-name="Path 884" d="M97.253,42.842c-.043-.094.332-.22.4-.263a1.8,1.8,0,0,1,.618-.262c.262-.047.532,0,.794-.058a3.219,3.219,0,0,0,.65-.266,1.952,1.952,0,0,1,.708-.154,4.34,4.34,0,0,1,2.363.385,3.654,3.654,0,0,0,.409.23,1.806,1.806,0,0,0,.84,0,1.694,1.694,0,0,1,1.242.461,5.221,5.221,0,0,1-2.74,2.329A6.409,6.409,0,0,1,99.45,45.2a5.5,5.5,0,0,1-2.2-2.356" fill="#fff"/>
    <path id="Path_885" data-name="Path 885" d="M97.253,42.842c-.043-.094.332-.22.4-.263a1.8,1.8,0,0,1,.618-.262c.262-.047.532,0,.794-.058a3.219,3.219,0,0,0,.65-.266,1.952,1.952,0,0,1,.708-.154,4.34,4.34,0,0,1,2.363.385,3.654,3.654,0,0,0,.409.23,1.806,1.806,0,0,0,.84,0,1.694,1.694,0,0,1,1.242.461,5.221,5.221,0,0,1-2.74,2.329A6.409,6.409,0,0,1,99.45,45.2,5.5,5.5,0,0,1,97.253,42.842Z" fill="none" stroke="#5f3333" stroke-width="0.548"/>
    <path id="Path_886" data-name="Path 886" d="M19.107,42.21S17.67,40.663,19,37.569s1.492-2.321,1.492-2.321a9.187,9.187,0,0,1,1.658,4.144,6.5,6.5,0,0,1-.482,2.908" fill="#fff"/>
    <path id="Path_887" data-name="Path 887" d="M19.107,42.21S17.67,40.663,19,37.569s1.492-2.321,1.492-2.321a9.187,9.187,0,0,1,1.658,4.144,6.5,6.5,0,0,1-.482,2.908" fill="none" stroke="#5f3333" stroke-width="0.548"/>
    <path id="Path_888" data-name="Path 888" d="M18.607,51.77V42.482a3.624,3.624,0,0,1,3.3,0V51.77" fill="#fff"/>
    <path id="Path_889" data-name="Path 889" d="M18.607,51.77V42.482a3.624,3.624,0,0,1,3.3,0V51.77" fill="none" stroke="#5f3333" stroke-width="0.548"/>
    <path id="Path_890" data-name="Path 890" d="M24,52.49c.043-.094-.332-.22-.4-.263a1.8,1.8,0,0,0-.618-.262c-.262-.047-.532,0-.794-.058a3.218,3.218,0,0,1-.65-.266,1.952,1.952,0,0,0-.708-.154,4.34,4.34,0,0,0-2.363.385,3.655,3.655,0,0,1-.409.23,1.806,1.806,0,0,1-.84,0,1.694,1.694,0,0,0-1.242.461,5.221,5.221,0,0,0,2.74,2.329,6.409,6.409,0,0,0,3.088-.048A5.5,5.5,0,0,0,24,52.49" fill="#fff"/>
    <path id="Path_891" data-name="Path 891" d="M24,52.49c.043-.094-.332-.22-.4-.263a1.8,1.8,0,0,0-.618-.262c-.262-.047-.532,0-.794-.058a3.218,3.218,0,0,1-.65-.266,1.952,1.952,0,0,0-.708-.154,4.34,4.34,0,0,0-2.363.385,3.655,3.655,0,0,1-.409.23,1.806,1.806,0,0,1-.84,0,1.694,1.694,0,0,0-1.242.461,5.221,5.221,0,0,0,2.74,2.329,6.409,6.409,0,0,0,3.088-.048A5.5,5.5,0,0,0,24,52.49Z" fill="none" stroke="#5f3333" stroke-width="0.548"/>
    <path id="Path_892" data-name="Path 892" d="M54.106,48.283c.1,8.118-.425,16.641,2.5,24.185,1.977,5.1,5.837,9.956,11.787,11.015,4.378.779,9.831.425,13.1-3.045,6.369-6.761,5.147-17.972,4.878-26.812-.565.022-1.508.156-2.073.177-.151,4.976.385,10.034-.23,15a22.186,22.186,0,0,1-1.642,6.474,10.4,10.4,0,0,1-4.1,4.97c-3.883,2.243-9.053,1.924-12.865-.026-10.32-5.281-9.438-24-9.518-27.762-.031-1.479-.015-3.131-.026-4.122Z" fill="#fff"/>
    <path id="Path_893" data-name="Path 893" d="M54.106,48.283c.1,8.118-.425,16.641,2.5,24.185,1.977,5.1,5.837,9.956,11.787,11.015,4.378.779,9.831.425,13.1-3.045,6.369-6.761,5.147-17.972,4.878-26.812-.565.022-1.508.156-2.073.177-.151,4.976.385,10.034-.23,15a22.186,22.186,0,0,1-1.642,6.474,10.4,10.4,0,0,1-4.1,4.97c-3.883,2.243-9.053,1.924-12.865-.026-10.32-5.281-9.438-24-9.518-27.762-.031-1.479-.015-3.131-.026-4.122Z" fill="none" stroke="#5f3333" stroke-width="0.548"/>
    <path id="Path_894" data-name="Path 894" d="M86.263,42.21s1.437-1.547.111-4.641-1.492-2.321-1.492-2.321a9.187,9.187,0,0,0-1.658,4.144,6.5,6.5,0,0,0,.482,2.908" fill="#fff"/>
    <path id="Path_895" data-name="Path 895" d="M86.263,42.21s1.437-1.547.111-4.641-1.492-2.321-1.492-2.321a9.187,9.187,0,0,0-1.658,4.144,6.5,6.5,0,0,0,.482,2.908" fill="none" stroke="#5f3333" stroke-width="0.548"/>
    <path id="Path_896" data-name="Path 896" d="M86.764,51.77V42.482a3.624,3.624,0,0,0-3.3,0V51.77" fill="#fff"/>
    <path id="Path_897" data-name="Path 897" d="M86.764,51.77V42.482a3.624,3.624,0,0,0-3.3,0V51.77" fill="none" stroke="#5f3333" stroke-width="0.548"/>
    <path id="Path_898" data-name="Path 898" d="M81.366,52.49c-.043-.094.332-.22.4-.263a1.8,1.8,0,0,1,.618-.262c.262-.047.532,0,.794-.058a3.218,3.218,0,0,0,.65-.266,1.952,1.952,0,0,1,.708-.154,4.34,4.34,0,0,1,2.363.385,3.656,3.656,0,0,0,.409.23,1.806,1.806,0,0,0,.84,0,1.694,1.694,0,0,1,1.242.461,5.221,5.221,0,0,1-2.74,2.329,6.409,6.409,0,0,1-3.088-.048,5.5,5.5,0,0,1-2.2-2.356" fill="#fff"/>
    <path id="Path_899" data-name="Path 899" d="M81.366,52.49c-.043-.094.332-.22.4-.263a1.8,1.8,0,0,1,.618-.262c.262-.047.532,0,.794-.058a3.218,3.218,0,0,0,.65-.266,1.952,1.952,0,0,1,.708-.154,4.34,4.34,0,0,1,2.363.385,3.656,3.656,0,0,0,.409.23,1.806,1.806,0,0,0,.84,0,1.694,1.694,0,0,1,1.242.461,5.221,5.221,0,0,1-2.74,2.329,6.409,6.409,0,0,1-3.088-.048A5.5,5.5,0,0,1,81.366,52.49Z" fill="none" stroke="#5f3333" stroke-width="0.548"/>
    <path id="Path_900" data-name="Path 900" d="M47.995,33.615a10.958,10.958,0,0,1-1.2,5.423,10.588,10.588,0,0,1-12.811,4.008c-3.286-1.3-4.88-5.508-4.515-9.585H27.579a12.381,12.381,0,0,0,0,1.981c.085,1.077.437,4.88,3,7.446,4.1,4.109,11.194,3.787,15.416.024a12.193,12.193,0,0,0,3.832-9.231,2.783,2.783,0,0,0-1.829-.066" fill="#fff"/>
    <path id="Path_901" data-name="Path 901" d="M47.995,33.615a10.958,10.958,0,0,1-1.2,5.423,10.588,10.588,0,0,1-12.811,4.008c-3.286-1.3-4.88-5.508-4.515-9.585H27.579a12.381,12.381,0,0,0,0,1.981c.085,1.077.437,4.88,3,7.446,4.1,4.109,11.194,3.787,15.416.024a12.193,12.193,0,0,0,3.832-9.231A2.783,2.783,0,0,0,47.995,33.615Z" fill="none" stroke="#5f3333" stroke-width="0.548"/>
    <path id="Path_902" data-name="Path 902" d="M29,24.73s1-1.079.077-3.237-1.04-1.618-1.04-1.618a6.4,6.4,0,0,0-1.156,2.89,4.519,4.519,0,0,0,.336,2.027" fill="#fff"/>
    <path id="Path_903" data-name="Path 903" d="M29,24.73s1-1.079.077-3.237-1.04-1.618-1.04-1.618a6.4,6.4,0,0,0-1.156,2.89,4.519,4.519,0,0,0,.336,2.027" fill="none" stroke="#5f3333" stroke-width="0.548"/>
    <path id="Path_904" data-name="Path 904" d="M29.351,31.4V24.92a2.529,2.529,0,0,0-2.3,0V31.4" fill="#fff"/>
    <path id="Path_905" data-name="Path 905" d="M29.351,31.4V24.92a2.529,2.529,0,0,0-2.3,0V31.4" fill="none" stroke="#5f3333" stroke-width="0.548"/>
    <path id="Path_906" data-name="Path 906" d="M25.587,31.9c-.03-.066.232-.153.28-.183a1.26,1.26,0,0,1,.43-.183c.183-.033.372,0,.554-.04a2.293,2.293,0,0,0,.454-.186A1.323,1.323,0,0,1,27.8,31.2a3.029,3.029,0,0,1,1.647.268,2.5,2.5,0,0,0,.285.16,1.248,1.248,0,0,0,.586,0,1.18,1.18,0,0,1,.866.321,3.635,3.635,0,0,1-1.911,1.624,4.466,4.466,0,0,1-2.153-.033A3.839,3.839,0,0,1,25.587,31.9" fill="#fff"/>
    <path id="Path_907" data-name="Path 907" d="M25.587,31.9c-.03-.066.232-.153.28-.183a1.26,1.26,0,0,1,.43-.183c.183-.033.372,0,.554-.04a2.293,2.293,0,0,0,.454-.186A1.323,1.323,0,0,1,27.8,31.2a3.029,3.029,0,0,1,1.647.268,2.5,2.5,0,0,0,.285.16,1.248,1.248,0,0,0,.586,0,1.18,1.18,0,0,1,.866.321,3.635,3.635,0,0,1-1.911,1.624,4.466,4.466,0,0,1-2.153-.033A3.839,3.839,0,0,1,25.587,31.9Z" fill="none" stroke="#5f3333" stroke-width="0.548"/>
    <path id="Path_908" data-name="Path 908" d="M40.7,24.471c0,.167,0,.156,0,.564.038,3.859.686,10.067,1.715,12.492a7.42,7.42,0,0,0,2.137,3.036,4.607,4.607,0,0,0,3.459.871,5.124,5.124,0,0,0,3.183-1.708,7,7,0,0,0,1.446-3.775,18.8,18.8,0,0,0,.067-2.431,2.524,2.524,0,0,0-1.683.014c.013.234-.006.671-.005,1.061,0,2.419-1.472,5.45-4.129,4.916-1.964-.4-2.594-2.569-3.055-4.257a32.15,32.15,0,0,1-1.06-6.914l-.222-3.906" fill="#fff"/>
    <path id="Path_909" data-name="Path 909" d="M40.7,24.471c0,.167,0,.156,0,.564.038,3.859.686,10.067,1.715,12.492a7.42,7.42,0,0,0,2.137,3.036,4.607,4.607,0,0,0,3.459.871,5.124,5.124,0,0,0,3.183-1.708,7,7,0,0,0,1.446-3.775,18.8,18.8,0,0,0,.067-2.431,2.524,2.524,0,0,0-1.683.014c.013.234-.006.671-.005,1.061,0,2.419-1.472,5.45-4.129,4.916-1.964-.4-2.594-2.569-3.055-4.257a32.15,32.15,0,0,1-1.06-6.914l-.222-3.906" fill="none" stroke="#5f3333" stroke-width="0.548"/>
    <path id="Path_910" data-name="Path 910" d="M42.277,15.584s1-1.079.077-3.237-1.04-1.618-1.04-1.618a6.4,6.4,0,0,0-1.156,2.89,4.519,4.519,0,0,0,.336,2.027" fill="#fff"/>
    <path id="Path_911" data-name="Path 911" d="M42.277,15.584s1-1.079.077-3.237-1.04-1.618-1.04-1.618a6.4,6.4,0,0,0-1.156,2.89,4.519,4.519,0,0,0,.336,2.027" fill="none" stroke="#5f3333" stroke-width="0.548"/>
    <path id="Path_912" data-name="Path 912" d="M42.626,22.25V15.773a2.529,2.529,0,0,0-2.3,0V22.25" fill="#fff"/>
    <path id="Path_913" data-name="Path 913" d="M42.626,22.25V15.773a2.529,2.529,0,0,0-2.3,0V22.25" fill="none" stroke="#5f3333" stroke-width="0.548"/>
    <path id="Path_914" data-name="Path 914" d="M38.861,22.753c-.03-.066.232-.153.28-.183a1.26,1.26,0,0,1,.43-.183c.183-.033.372,0,.554-.04a2.293,2.293,0,0,0,.454-.186,1.323,1.323,0,0,1,.494-.107,3.029,3.029,0,0,1,1.647.268,2.5,2.5,0,0,0,.285.16,1.248,1.248,0,0,0,.586,0,1.18,1.18,0,0,1,.866.321,3.635,3.635,0,0,1-1.911,1.624,4.466,4.466,0,0,1-2.153-.033,3.839,3.839,0,0,1-1.532-1.643" fill="#fff"/>
    <path id="Path_915" data-name="Path 915" d="M38.861,22.753c-.03-.066.232-.153.28-.183a1.26,1.26,0,0,1,.43-.183c.183-.033.372,0,.554-.04a2.293,2.293,0,0,0,.454-.186,1.323,1.323,0,0,1,.494-.107,3.029,3.029,0,0,1,1.647.268,2.5,2.5,0,0,0,.285.16,1.248,1.248,0,0,0,.586,0,1.18,1.18,0,0,1,.866.321,3.635,3.635,0,0,1-1.911,1.624,4.466,4.466,0,0,1-2.153-.033A3.839,3.839,0,0,1,38.861,22.753Z" fill="none" stroke="#5f3333" stroke-width="0.548"/>
    <rect id="Rectangle_152" data-name="Rectangle 152" width="67.441" height="4.753" transform="translate(19.089 97.713)" fill="none" stroke="#5f3333" stroke-width="0.548"/>
    <rect id="Rectangle_153" data-name="Rectangle 153" width="5.15" height="23.808" transform="translate(32.321 102.466)" fill="none" stroke="#5f3333" stroke-width="0.548"/>
    <rect id="Rectangle_154" data-name="Rectangle 154" width="5.15" height="23.808" transform="translate(67.516 102.466)" fill="none" stroke="#5f3333" stroke-width="0.548"/>
  </g>
</svg>
