<svg id="Group_50" data-name="Group 50" xmlns="http://www.w3.org/2000/svg" xmlns:xlink="http://www.w3.org/1999/xlink" width="75" height="75" viewBox="0 0 75 75">
  <defs>
    <clipPath id="clip-path">
      <rect id="Rectangle_42" data-name="Rectangle 42" width="75" height="75" fill="#5f3333"/>
    </clipPath>
  </defs>
  <g id="Group_49" data-name="Group 49" transform="translate(0 0)" clip-path="url(#clip-path)">
    <path id="Path_82" data-name="Path 82" d="M70.574,26.048H54.991V4.426A4.431,4.431,0,0,0,50.564,0H4.426A4.43,4.43,0,0,0,0,4.426V35a4.431,4.431,0,0,0,3.983,4.405l8.136,9.224a.938.938,0,0,0,1.641-.62V39.432h6.248V61.054a4.432,4.432,0,0,0,4.428,4.426h36.8v8.582a.937.937,0,0,0,1.64.62l8.136-9.224A4.434,4.434,0,0,0,75,61.054V30.476a4.432,4.432,0,0,0-4.426-4.428M12.822,37.557a.937.937,0,0,0-.938.938v7.039l-6.756-7.66a.938.938,0,0,0-.7-.316A2.554,2.554,0,0,1,1.875,35V4.426A2.554,2.554,0,0,1,4.426,1.875H50.564a2.554,2.554,0,0,1,2.551,2.551V26.048H24.436a4.407,4.407,0,0,0-3.129,1.3H13.389a.937.937,0,1,0,0,1.874h6.823a4.349,4.349,0,0,0-.2,1.255v7.081Zm60.3,23.5A2.554,2.554,0,0,1,70.574,63.6a.937.937,0,0,0-.7.318l-6.754,7.66v-7.04a.938.938,0,0,0-.938-.938H24.436a2.554,2.554,0,0,1-2.553-2.551V30.476a2.555,2.555,0,0,1,2.553-2.553H70.574a2.555,2.555,0,0,1,2.551,2.553Z" transform="translate(0 0)" fill="#5f3333"/>
    <path id="Path_83" data-name="Path 83" d="M9.132,8.869H37.345a.938.938,0,1,0,0-1.875H9.132a.938.938,0,1,0,0,1.875" transform="translate(4.257 3.634)" fill="#5f3333"/>
    <path id="Path_84" data-name="Path 84" d="M9.132,14.371H37.345a.938.938,0,1,0,0-1.875H9.132a.938.938,0,1,0,0,1.875" transform="translate(4.257 6.492)" fill="#5f3333"/>
    <path id="Path_85" data-name="Path 85" d="M37.994,26.127V23.642h3.193a.938.938,0,1,0,0-1.875h-8.26a.938.938,0,1,0,0,1.875h3.193v2.481a16.913,16.913,0,0,0-16.008,16.9v2.293a.937.937,0,0,0,.938.938H53.065A.937.937,0,0,0,54,45.315V43.343A17.2,17.2,0,0,0,37.994,26.127M52.128,44.378H21.986V43.022A15.067,15.067,0,0,1,37.367,27.961,15.31,15.31,0,0,1,52.128,43.343Z" transform="translate(10.448 11.309)" fill="#5f3333"/>
    <path id="Path_86" data-name="Path 86" d="M35.565,29.6a.938.938,0,0,0-1.079,1.535,7.013,7.013,0,0,1,2.586,3.379.936.936,0,0,0,.881.62.97.97,0,0,0,.318-.055.942.942,0,0,0,.567-1.2A8.9,8.9,0,0,0,35.565,29.6" transform="translate(17.71 15.291)" fill="#5f3333"/>
  </g>
</svg>
