<svg id="Group_89" data-name="Group 89" xmlns="http://www.w3.org/2000/svg" xmlns:xlink="http://www.w3.org/1999/xlink" width="122.266" height="125.122" viewBox="0 0 122.266 125.122">
  <defs>
    <clipPath id="clip-path">
      <rect id="Rectangle_67" data-name="Rectangle 67" width="122.266" height="125.122" transform="translate(0 0)" fill="none" stroke="#5f3333" stroke-width="0.5"/>
    </clipPath>
  </defs>
  <g id="Group_88" data-name="Group 88" clip-path="url(#clip-path)">
    <path id="Path_99" data-name="Path 99" d="M12.79,48.741c-.173,0-.286.683-.283.786.022.715.845,1,.933,1.636,1.145-.048,2.318,0,3.469,0a23.325,23.325,0,0,1,3.351.007.935.935,0,0,1,.273-1.057c.543-.448.682-.758.268-1.388Z" fill="none" stroke="#5f3333" stroke-width="0.5"/>
    <path id="Path_100" data-name="Path 100" d="M13.441,51.163l-.006.983,6.876.043.006-1.016S13.488,51.117,13.441,51.163Z" fill="none" stroke="#5f3333" stroke-width="0.5"/>
    <path id="Path_101" data-name="Path 101" d="M13.435,52.146s-1.129,2.171.13,3.191l6.96.044s1.315-1.817-.214-3.192" fill="none" stroke="#5f3333" stroke-width="0.5"/>
    <path id="Path_102" data-name="Path 102" d="M13.565,55.337s-.742.754,0,1.054l7.138.045s.726-.577-.174-1.055" fill="none" stroke="#5f3333" stroke-width="0.5"/>
    <path id="Path_103" data-name="Path 103" d="M13.56,56.391a9.992,9.992,0,0,1-.034,1.407l-.012,53.881,2.9.722,3.677.014,2.868-.676s-2.508-54.31-2.257-55.3" fill="none" stroke="#5f3333" stroke-width="0.5"/>
    <path id="Path_104" data-name="Path 104" d="M16.406,56.658l.219,42.58a3.724,3.724,0,0,0-2.3-3.383,6.983,6.983,0,0,0-.792,3.411" fill="none" stroke="#5f3333" stroke-width="0.5"/>
    <path id="Path_105" data-name="Path 105" d="M18.345,56.722,19.3,99.071s.165-2.872,2.08-3.353a3.437,3.437,0,0,1,.954,2.369" fill="none" stroke="#5f3333" stroke-width="0.5"/>
    <path id="Path_106" data-name="Path 106" d="M13.638,103.28l2.884.6,3.208.02,2.764-.689" fill="none" stroke="#5f3333" stroke-width="0.5"/>
    <path id="Path_107" data-name="Path 107" d="M13.628,104.817l2.884.6,3.208.02,2.764-.689" fill="none" stroke="#5f3333" stroke-width="0.5"/>
    <path id="Path_108" data-name="Path 108" d="M13.514,111.679a1.093,1.093,0,0,0-.051,1.527l2.9.658,3.918.048,2.887-.877s.661-.61-.215-1.3" fill="none" stroke="#5f3333" stroke-width="0.5"/>
    <path id="Path_109" data-name="Path 109" d="M13.567,109.392l-.977-.006-1.951,5.885,15.486.147-2.346-5.668-.88-.006" fill="none" stroke="#5f3333" stroke-width="0.5"/>
    <path id="Path_110" data-name="Path 110" d="M10.532,117.344s-1.753,2.561-1.5,4.527l18.99.12s.05-3.31-1.79-4.548" fill="none" stroke="#5f3333" stroke-width="0.5"/>
    <path id="Path_111" data-name="Path 111" d="M9.028,121.871l.016,2.811,18.931.119.017-2.811" fill="none" stroke="#5f3333" stroke-width="0.5"/>
    <path id="Path_112" data-name="Path 112" d="M23.17,113.035l3.069,2.537-.012,1.87-15.695-.1-.005-1.9,2.936-2.232" fill="none" stroke="#5f3333" stroke-width="0.5"/>
    <path id="Path_113" data-name="Path 113" d="M10.84,40.468l.35,8.161,10.688,0,.322-8.163Z" fill="none" stroke="#5f3333" stroke-width="0.5"/>
    <path id="Path_114" data-name="Path 114" d="M5.685,47.042l0,.7,3.75.093,0-.486a5.94,5.94,0,0,1,.753.064c.013-.157-.019-.57-.017-.749-.7-.369-1.527-1.19-.582-1.676,2.429-1.25,1.179-4.061-1.294-4.385-1.154-.151-2.949.439-3.262,1.7a2.184,2.184,0,0,0,1.084,2.455c.021.01,0,.024.021.03a1.345,1.345,0,0,1-.443,1.034,4.016,4.016,0,0,1-.933.473l0,.743Z" fill="none" stroke="#5f3333" stroke-width="0.5"/>
    <path id="Path_115" data-name="Path 115" d="M6.168,47.834l-.005.8,3.121.02.005-.822" fill="none" stroke="#5f3333" stroke-width="0.5"/>
    <path id="Path_116" data-name="Path 116" d="M23.188,47.153l0,.7,3.75.093,0-.486a5.94,5.94,0,0,1,.753.064c.013-.157-.019-.57-.017-.749-.7-.369-1.527-1.19-.582-1.676,2.429-1.25,1.179-4.061-1.294-4.385-1.154-.151-2.949.439-3.262,1.7a2.184,2.184,0,0,0,1.084,2.455c.021.01,0,.024.021.03a1.345,1.345,0,0,1-.443,1.034,4.016,4.016,0,0,1-.933.473l0,.743Z" fill="none" stroke="#5f3333" stroke-width="0.5"/>
    <path id="Path_117" data-name="Path 117" d="M23.671,47.944l-.005.8,3.121.02,0-.822" fill="none" stroke="#5f3333" stroke-width="0.5"/>
    <path id="Path_118" data-name="Path 118" d="M39.011,46.059c-.118,0-.2.462-.2.533.006.488.564.691.616,1.127.781-.018,1.58.03,2.365.046a16.025,16.025,0,0,1,2.286.047.637.637,0,0,1,.2-.717c.376-.3.475-.508.2-.943Z" fill="none" stroke="#5f3333" stroke-width="0.5"/>
    <path id="Path_119" data-name="Path 119" d="M39.424,47.719l-.017.67,4.689.117.017-.693S39.456,47.688,39.424,47.719Z" fill="none" stroke="#5f3333" stroke-width="0.5"/>
    <path id="Path_120" data-name="Path 120" d="M39.407,48.389s-.8,1.466.048,2.178l4.746.118a1.655,1.655,0,0,0-.1-2.179" fill="none" stroke="#5f3333" stroke-width="0.5"/>
    <path id="Path_121" data-name="Path 121" d="M39.456,50.567s-.516.5-.017.718l4.868.122s.5-.384-.1-.722" fill="none" stroke="#5f3333" stroke-width="0.5"/>
    <path id="Path_122" data-name="Path 122" d="M39.439,51.286a6.832,6.832,0,0,1-.041.959l-.692,36.747,1.966.529,2.508.056,1.964-.424s-1.021-37.072-.837-37.746" fill="none" stroke="#5f3333" stroke-width="0.5"/>
    <path id="Path_123" data-name="Path 123" d="M41.377,51.505l-.391,29.043a2.541,2.541,0,0,0-1.527-2.337,4.766,4.766,0,0,0-.582,2.316" fill="none" stroke="#5f3333" stroke-width="0.5"/>
    <path id="Path_124" data-name="Path 124" d="M42.7,51.573l.117,28.894s.148-1.956,1.461-2.26a2.343,2.343,0,0,1,.621,1.627" fill="none" stroke="#5f3333" stroke-width="0.5"/>
    <path id="Path_125" data-name="Path 125" d="M38.9,83.266l1.959.443,2.188.054,1.894-.434" fill="none" stroke="#5f3333" stroke-width="0.5"/>
    <path id="Path_126" data-name="Path 126" d="M38.871,84.314l1.959.443,2.188.054,1.894-.434" fill="none" stroke="#5f3333" stroke-width="0.5"/>
    <path id="Path_127" data-name="Path 127" d="M38.706,88.992a.745.745,0,0,0-.054,1.041l1.97.485,2.672.083,1.98-.562s.459-.407-.13-.887" fill="none" stroke="#5f3333" stroke-width="0.5"/>
    <path id="Path_128" data-name="Path 128" d="M38.771,87.433l-.666-.017L36.7,91.406l10.56.3-1.528-3.9-.6-.015" fill="none" stroke="#5f3333" stroke-width="0.5"/>
    <path id="Path_129" data-name="Path 129" d="M36.6,92.818a5.692,5.692,0,0,0-1.083,3.068l12.95.323s.075-2.257-1.164-3.124" fill="none" stroke="#5f3333" stroke-width="0.5"/>
    <path id="Path_130" data-name="Path 130" d="M35.518,95.886,35.493,97.8l12.91.322.047-1.917" fill="none" stroke="#5f3333" stroke-width="0.5"/>
    <path id="Path_131" data-name="Path 131" d="M45.274,90.04l2.061,1.769L47.3,93.085l-10.7-.267.021-1.3,2.03-1.484" fill="none" stroke="#5f3333" stroke-width="0.5"/>
    <path id="Path_132" data-name="Path 132" d="M37.761,40.444l.16,5.519,7.29.137.4-5.635Z" fill="none" stroke="#5f3333" stroke-width="0.5"/>
    <path id="Path_133" data-name="Path 133" d="M34.187,44.81l-.012.476,2.557.111c0-.11.005-.221.008-.331a3.891,3.891,0,0,1,.513.053c.01-.107-.006-.389,0-.511-.47-.261-1.026-.831-.375-1.151,1.672-.821.856-2.754-.827-3.007-.785-.117-2.017.262-2.246,1.118a1.488,1.488,0,0,0,.708,1.688c.014.008,0,.017.014.021a.918.918,0,0,1-.315.7,2.734,2.734,0,0,1-.642.31l-.013.507Z" fill="none" stroke="#5f3333" stroke-width="0.5"/>
    <path id="Path_134" data-name="Path 134" d="M34.506,45.356l-.014.546,2.129.053.014-.56" fill="none" stroke="#5f3333" stroke-width="0.5"/>
    <path id="Path_135" data-name="Path 135" d="M46.123,45.108l-.012.476,2.557.111c0-.11.005-.221.008-.331a3.891,3.891,0,0,1,.513.053c.01-.107-.006-.389,0-.511-.47-.261-1.026-.831-.375-1.151,1.672-.821.856-2.754-.827-3.007-.785-.117-2.017.262-2.246,1.118a1.488,1.488,0,0,0,.708,1.688c.014.008,0,.017.014.021a.918.918,0,0,1-.315.7,2.734,2.734,0,0,1-.642.31l-.013.507Z" fill="none" stroke="#5f3333" stroke-width="0.5"/>
    <path id="Path_136" data-name="Path 136" d="M46.442,45.653l-.014.546,2.129.053.014-.56" fill="none" stroke="#5f3333" stroke-width="0.5"/>
    <path id="Path_137" data-name="Path 137" d="M78.951,46.059c-.118,0-.2.462-.2.533.006.488.564.691.616,1.127.781-.018,1.58.03,2.365.046a16.025,16.025,0,0,1,2.286.047.637.637,0,0,1,.2-.717c.376-.3.475-.508.2-.943Z" fill="none" stroke="#5f3333" stroke-width="0.5"/>
    <path id="Path_138" data-name="Path 138" d="M79.364,47.719l-.017.67,4.689.117.017-.693S79.4,47.688,79.364,47.719Z" fill="none" stroke="#5f3333" stroke-width="0.5"/>
    <path id="Path_139" data-name="Path 139" d="M79.347,48.389s-.8,1.466.048,2.178l4.746.118a1.656,1.656,0,0,0-.1-2.179" fill="none" stroke="#5f3333" stroke-width="0.5"/>
    <path id="Path_140" data-name="Path 140" d="M79.4,50.567s-.516.5-.017.718l4.868.122s.5-.384-.105-.722" fill="none" stroke="#5f3333" stroke-width="0.5"/>
    <path id="Path_141" data-name="Path 141" d="M79.379,51.286a6.832,6.832,0,0,1-.041.959l-.692,36.747,1.966.529,2.508.056,1.964-.424s-1.021-37.072-.837-37.746" fill="none" stroke="#5f3333" stroke-width="0.5"/>
    <path id="Path_142" data-name="Path 142" d="M81.317,51.505l-.391,29.043A2.541,2.541,0,0,0,79.4,78.211a4.766,4.766,0,0,0-.582,2.316" fill="none" stroke="#5f3333" stroke-width="0.5"/>
    <path id="Path_143" data-name="Path 143" d="M82.638,51.573l.117,28.894s.148-1.956,1.461-2.26a2.343,2.343,0,0,1,.621,1.627" fill="none" stroke="#5f3333" stroke-width="0.5"/>
    <path id="Path_144" data-name="Path 144" d="M78.837,83.266l1.959.443,2.188.054,1.894-.434" fill="none" stroke="#5f3333" stroke-width="0.5"/>
    <path id="Path_145" data-name="Path 145" d="M78.811,84.314l1.959.443,2.188.054,1.894-.434" fill="none" stroke="#5f3333" stroke-width="0.5"/>
    <path id="Path_146" data-name="Path 146" d="M78.646,88.992a.745.745,0,0,0-.054,1.041l1.97.485,2.672.083,1.98-.562s.459-.407-.13-.887" fill="none" stroke="#5f3333" stroke-width="0.5"/>
    <path id="Path_147" data-name="Path 147" d="M78.712,87.433l-.666-.017-1.406,3.99,10.56.3-1.528-3.9-.6-.015" fill="none" stroke="#5f3333" stroke-width="0.5"/>
    <path id="Path_148" data-name="Path 148" d="M76.54,92.818a5.692,5.692,0,0,0-1.083,3.068l12.95.323s.075-2.257-1.164-3.124" fill="none" stroke="#5f3333" stroke-width="0.5"/>
    <path id="Path_149" data-name="Path 149" d="M75.458,95.886,75.433,97.8l12.91.322.047-1.917" fill="none" stroke="#5f3333" stroke-width="0.5"/>
    <path id="Path_150" data-name="Path 150" d="M85.215,90.04l2.061,1.769-.032,1.276-10.7-.267.021-1.3,2.03-1.484" fill="none" stroke="#5f3333" stroke-width="0.5"/>
    <path id="Path_151" data-name="Path 151" d="M77.693,40.471l.168,5.492,7.289.137.374-5.629Z" fill="none" stroke="#5f3333" stroke-width="0.5"/>
    <path id="Path_152" data-name="Path 152" d="M74.127,44.81l-.012.476,2.557.111c0-.11.005-.221.008-.331a3.891,3.891,0,0,1,.513.053c.01-.107-.006-.389,0-.511-.47-.261-1.026-.831-.375-1.151,1.672-.821.856-2.754-.827-3.007-.785-.117-2.017.262-2.246,1.118a1.488,1.488,0,0,0,.708,1.688c.014.008,0,.017.014.021a.918.918,0,0,1-.315.7,2.734,2.734,0,0,1-.642.31l-.013.507Z" fill="none" stroke="#5f3333" stroke-width="0.5"/>
    <path id="Path_153" data-name="Path 153" d="M74.446,45.356l-.014.546,2.129.053.014-.56" fill="none" stroke="#5f3333" stroke-width="0.5"/>
    <path id="Path_154" data-name="Path 154" d="M86.063,45.108l-.012.476,2.557.111c0-.11,0-.221.008-.331a3.891,3.891,0,0,1,.513.053c.01-.107-.006-.389,0-.511-.47-.261-1.026-.831-.375-1.151,1.672-.821.856-2.754-.827-3.007-.785-.117-2.017.262-2.246,1.118a1.488,1.488,0,0,0,.708,1.688c.014.008,0,.017.014.021a.918.918,0,0,1-.315.7,2.734,2.734,0,0,1-.642.31l-.013.507Z" fill="none" stroke="#5f3333" stroke-width="0.5"/>
    <path id="Path_155" data-name="Path 155" d="M86.382,45.653l-.014.546,2.129.053.014-.56" fill="none" stroke="#5f3333" stroke-width="0.5"/>
    <path id="Path_156" data-name="Path 156" d="M102.236,48.72c-.173,0-.29.681-.287.785.017.715.839,1,.923,1.641,1.145-.041,2.317.014,3.468.023a23.468,23.468,0,0,1,3.352.027.931.931,0,0,1,.278-1.054c.546-.446.687-.755.277-1.387Z" fill="none" stroke="#5f3333" stroke-width="0.5"/>
    <path id="Path_157" data-name="Path 157" d="M102.872,51.146l-.012.983,6.876.084.012-1.016S102.919,51.1,102.872,51.146Z" fill="none" stroke="#5f3333" stroke-width="0.5"/>
    <path id="Path_158" data-name="Path 158" d="M102.86,52.129s-1.142,2.164.111,3.192l6.959.085s1.327-1.809-.194-3.193" fill="none" stroke="#5f3333" stroke-width="0.5"/>
    <path id="Path_159" data-name="Path 159" d="M102.972,55.321s-.746.749-.012,1.054l7.138.087s.73-.572-.167-1.056" fill="none" stroke="#5f3333" stroke-width="0.5"/>
    <path id="Path_160" data-name="Path 160" d="M102.96,56.374a9.933,9.933,0,0,1-.043,1.406l-.332,53.881,2.891.739,3.677.036,2.872-.659s-2.184-54.324-1.927-55.316" fill="none" stroke="#5f3333" stroke-width="0.5"/>
    <path id="Path_161" data-name="Path 161" d="M105.805,56.659l-.034,42.581a3.726,3.726,0,0,0-2.282-3.4,6.983,6.983,0,0,0-.811,3.406" fill="none" stroke="#5f3333" stroke-width="0.5"/>
    <path id="Path_162" data-name="Path 162" d="M107.743,56.734l.707,42.354s.182-2.871,2.1-3.341a3.434,3.434,0,0,1,.941,2.375" fill="none" stroke="#5f3333" stroke-width="0.5"/>
    <path id="Path_163" data-name="Path 163" d="M102.759,103.264l2.88.613,3.208.039,2.768-.672" fill="none" stroke="#5f3333" stroke-width="0.5"/>
    <path id="Path_164" data-name="Path 164" d="M102.741,104.8l2.88.613,3.208.039,2.768-.672" fill="none" stroke="#5f3333" stroke-width="0.5"/>
    <path id="Path_165" data-name="Path 165" d="M102.585,111.661a1.092,1.092,0,0,0-.06,1.527l2.9.675,3.917.071,2.893-.859s.664-.607-.208-1.3" fill="none" stroke="#5f3333" stroke-width="0.5"/>
    <path id="Path_166" data-name="Path 166" d="M102.652,109.375l-.977-.012-1.986,5.874,15.485.238-2.313-5.682-.879-.01" fill="none" stroke="#5f3333" stroke-width="0.5"/>
    <path id="Path_167" data-name="Path 167" d="M99.57,117.308s-1.768,2.55-1.53,4.518l18.988.233s.069-3.31-1.763-4.559" fill="none" stroke="#5f3333" stroke-width="0.5"/>
    <path id="Path_168" data-name="Path 168" d="M98.039,121.826v2.811l18.93.232.034-2.811" fill="none" stroke="#5f3333" stroke-width="0.5"/>
    <path id="Path_169" data-name="Path 169" d="M112.233,113.075l3.054,2.556-.023,1.869-15.695-.192.007-1.906,2.949-2.213" fill="none" stroke="#5f3333" stroke-width="0.5"/>
    <path id="Path_170" data-name="Path 170" d="M100.29,40.448l.347,8.15,10.689.067.472-8.226Z" fill="none" stroke="#5f3333" stroke-width="0.5"/>
    <path id="Path_171" data-name="Path 171" d="M95.141,46.979l-.009.7,3.75.115.006-.486a6.346,6.346,0,0,1,.753.068c.013-.156-.015-.57-.013-.748-.695-.374-1.52-1.2-.572-1.68,2.437-1.235,1.2-4.054-1.268-4.392-1.153-.158-2.951.421-3.271,1.68A2.183,2.183,0,0,0,95.586,44.7c.02.01,0,.024.021.03a1.346,1.346,0,0,1-.45,1.031,3.969,3.969,0,0,1-.935.467l-.009.743Z" fill="none" stroke="#5f3333" stroke-width="0.5"/>
    <path id="Path_172" data-name="Path 172" d="M95.619,47.773l-.01.8,3.121.038.01-.821" fill="none" stroke="#5f3333" stroke-width="0.5"/>
    <path id="Path_173" data-name="Path 173" d="M112.644,47.194l-.009.7,3.75.115.006-.486a6.346,6.346,0,0,1,.753.068c.013-.156-.015-.57-.013-.748-.695-.374-1.52-1.2-.572-1.68,2.437-1.235,1.2-4.054-1.268-4.392-1.153-.158-2.951.421-3.271,1.68a2.182,2.182,0,0,0,1.069,2.461c.02.011,0,.025.021.031a1.346,1.346,0,0,1-.45,1.031,3.969,3.969,0,0,1-.935.467l-.009.743Z" fill="none" stroke="#5f3333" stroke-width="0.5"/>
    <path id="Path_174" data-name="Path 174" d="M113.122,47.988l-.01.8,3.121.038.01-.821" fill="none" stroke="#5f3333" stroke-width="0.5"/>
    <rect id="Rectangle_66" data-name="Rectangle 66" width="121.762" height="8.897" transform="translate(0.25 31.54)" fill="none" stroke="#5f3333" stroke-width="0.5"/>
    <path id="Path_175" data-name="Path 175" d="M99.64,27.057H18.891l-8.213-4.106V21.646l95.534.755v1.672Z" fill="none" stroke="#5f3333" stroke-width="0.5"/>
    <path id="Path_176" data-name="Path 176" d="M12.357,21.582a5.728,5.728,0,0,0,2.47-1.986,3.635,3.635,0,0,1,2.469-1.5H99.16a5.252,5.252,0,0,1,3.342,2.457c1.088,2.021,2.565,1.788,2.565,1.788" fill="none" stroke="#5f3333" stroke-width="0.5"/>
    <path id="Path_177" data-name="Path 177" d="M20.915,18.056V15.9H96.048v2.277" fill="none" stroke="#5f3333" stroke-width="0.5"/>
    <path id="Path_178" data-name="Path 178" d="M21.859,15.9V15.07H95.044v.883" fill="none" stroke="#5f3333" stroke-width="0.5"/>
    <path id="Path_179" data-name="Path 179" d="M19.117,29.6V26H25.2v3.781" fill="#fff" stroke="#5f3333" stroke-width="0.5"/>
    <path id="Path_180" data-name="Path 180" d="M19.117,29.6V26H25.2v3.781" fill="none" stroke="#5f3333" stroke-width="0.5"/>
    <path id="Path_181" data-name="Path 181" d="M94.162,29.6V26h6.081v3.781" fill="#fff" stroke="#5f3333" stroke-width="0.5"/>
    <path id="Path_182" data-name="Path 182" d="M94.162,29.6V26h6.081v3.781" fill="none" stroke="#5f3333" stroke-width="0.5"/>
    <path id="Path_183" data-name="Path 183" d="M.25,31.54s1.043-.124,1.81-1.784H119.611a3.542,3.542,0,0,0,2.4,1.784" fill="none" stroke="#5f3333" stroke-width="0.5"/>
    <path id="Path_184" data-name="Path 184" d="M36.282,13.14l-2.223-.02-2.93-4.745H85.014l-3.386,4.859H78.452" fill="none" stroke="#5f3333" stroke-width="0.5"/>
    <path id="Path_185" data-name="Path 185" d="M36.186,14.263l-4.511-.039-4.556-6.28V6.513H88.845V8.046l-4.394,5.928H78.477" fill="none" stroke="#5f3333" stroke-width="0.5"/>
    <path id="Path_186" data-name="Path 186" d="M28.831,6.552a3.925,3.925,0,0,0,1.988-1.459,6.633,6.633,0,0,1,2.195-1.866H82.341A4.689,4.689,0,0,1,85.4,5.114c.936,1.575,1.72,1.389,1.72,1.389" fill="none" stroke="#5f3333" stroke-width="0.5"/>
    <path id="Path_187" data-name="Path 187" d="M36.526,3.2V1.057H79.8V3.2" fill="none" stroke="#5f3333" stroke-width="0.5"/>
    <path id="Path_188" data-name="Path 188" d="M37.669,1.013V.25H78.455v.878" fill="none" stroke="#5f3333" stroke-width="0.5"/>
    <path id="Path_189" data-name="Path 189" d="M36.263,8.475l.07,6.5H78.367l.194-6.5" fill="none" stroke="#5f3333" stroke-width="0.5"/>
  </g>
</svg>
