<svg xmlns="http://www.w3.org/2000/svg" xmlns:xlink="http://www.w3.org/1999/xlink" width="72.713" height="75" viewBox="0 0 72.713 75">
  <defs>
    <clipPath id="clip-path">
      <rect id="Rectangle_40" data-name="Rectangle 40" width="72.713" height="75" fill="#5f3333"/>
    </clipPath>
  </defs>
  <g id="Group_46" data-name="Group 46" transform="translate(0 0)">
    <g id="Group_45" data-name="Group 45" transform="translate(0 0.001)" clip-path="url(#clip-path)">
      <path id="Path_80" data-name="Path 80" d="M71.916,26.625H59.86a7.394,7.394,0,0,0,2.953-5.887.772.772,0,0,0-.769-.769H59.86a7.4,7.4,0,0,0,2.953-5.888.773.773,0,0,0-.769-.769H59.86a7.4,7.4,0,0,0,2.953-5.888.773.773,0,0,0-.769-.769H59.86A7.394,7.394,0,0,0,62.813.769.772.772,0,0,0,62.044,0H48.732a.771.771,0,0,0-.769.769,7.38,7.38,0,0,0,2.953,5.887H48.732a.772.772,0,0,0-.769.769,7.381,7.381,0,0,0,2.953,5.888H48.732a.772.772,0,0,0-.769.769,7.383,7.383,0,0,0,2.953,5.888H48.732a.771.771,0,0,0-.769.769,7.38,7.38,0,0,0,2.953,5.887H32.635a5.965,5.965,0,0,0-.582-5.326,10.236,10.236,0,0,0,.478-1.274h.629a1.978,1.978,0,0,0,0-3.957h-.1A11.855,11.855,0,0,0,23.3,4.874l.487-2a.785.785,0,0,0-.141-.656.755.755,0,0,0-.6-.29H19.416a.772.772,0,0,0-.6.29.744.744,0,0,0-.14.656l.487,2A11.865,11.865,0,0,0,9.4,16.068H9.291a1.978,1.978,0,0,0,0,3.957h.627A9.726,9.726,0,0,0,10.4,21.3a5.965,5.965,0,0,0-.582,5.326H.769A.772.772,0,0,0,0,27.393V63.478a.761.761,0,0,0,1.256.582,7.616,7.616,0,0,1,4.05-1.726v11.9A.772.772,0,0,0,6.075,75H9.327a.782.782,0,0,0,.742-.552l2.643-9.085a6.41,6.41,0,0,0,2.147.891.036.036,0,0,1,.029.009c.084.02.168.038.262.057h.029a6.466,6.466,0,0,0,5.663-1.792,7.741,7.741,0,0,1,10.95,0,6.477,6.477,0,0,0,9.15,0,7.741,7.741,0,0,1,10.95,0,6.432,6.432,0,0,0,4.575,1.894,7.082,7.082,0,0,0,1.088-.1h.009l.272-.057c.009,0,.009,0,.018-.009A6.385,6.385,0,0,0,60,65.363l2.645,9.085a.763.763,0,0,0,.74.552h3.254a.772.772,0,0,0,.769-.769V62.344a7.637,7.637,0,0,1,4.05,1.726.761.761,0,0,0,1.256-.581V27.393a.818.818,0,0,0-.8-.769M49.547,1.537H61.229a5.893,5.893,0,0,1-5.842,5.118,5.9,5.9,0,0,1-5.84-5.118m0,6.655H61.229a5.892,5.892,0,0,1-11.682,0m0,6.657H61.229a5.892,5.892,0,0,1-11.682,0m0,6.657H61.229a5.892,5.892,0,0,1-11.682,0M22.059,3.469l-.29,1.219H20.69l-.3-1.219Zm-.833,2.756a10.319,10.319,0,0,1,10.293,9.852H10.931A10.319,10.319,0,0,1,21.225,6.225M9.291,18.487a.445.445,0,0,1-.441-.441.453.453,0,0,1,.441-.441H33.169a.446.446,0,0,1,.441.441.452.452,0,0,1-.441.441Zm3.656,4.191a10.057,10.057,0,0,1-1.435-2.654H30.938A10.014,10.014,0,0,1,29.5,22.679Zm16.341,3.946H13.171a4.361,4.361,0,0,1,.806-2.419H28.49a4.509,4.509,0,0,1,.8,2.419M12.234,24.13a5.78,5.78,0,0,0-.618,2.494h-.15a4.433,4.433,0,0,1-.206-3.693c.226.337.46.675.722.993a.661.661,0,0,0,.253.206m18.244-.206a11.655,11.655,0,0,0,.722-.993,4.427,4.427,0,0,1-.206,3.693h-.15a5.759,5.759,0,0,0-.618-2.494.722.722,0,0,0,.253-.206M8.747,73.463H6.834V62.325a7.71,7.71,0,0,1,4.575,1.987Zm57.095,0H63.929l-2.663-9.168a7.72,7.72,0,0,1,4.575-1.978Zm5.306-11.456a9.294,9.294,0,0,0-5.784-1.19v-13.4a.769.769,0,0,0-1.537,0V61.125a9.371,9.371,0,0,0-1.885.815V43.154a.769.769,0,1,0-1.537,0V63.028c-.168.141-.337.263-.5.423a.412.412,0,0,0-.056.065,4.871,4.871,0,0,1-1.566,1.012V48.966a.769.769,0,1,0-1.537,0V64.856a4.9,4.9,0,0,1-3.815-1.405,9.107,9.107,0,0,0-4.069-2.372V47.418a.769.769,0,0,0-1.537,0V60.779c-.319-.029-.638-.048-.957-.048s-.627.02-.928.048V43.154a.769.769,0,1,0-1.537,0V61.069a9.4,9.4,0,0,0-2.1.871V48.966a.769.769,0,1,0-1.537,0V63.028c-.149.132-.308.263-.45.412a4.938,4.938,0,0,1-6.974,0c-.15-.14-.3-.28-.45-.412V47.418a.769.769,0,0,0-1.537,0V61.94a9.371,9.371,0,0,0-1.885-.815V43.154a.769.769,0,0,0-1.537,0V60.806a9.3,9.3,0,0,0-1.143-.075c-.319,0-.638.02-.957.048V48.966a.769.769,0,1,0-1.537,0v12.1a9.3,9.3,0,0,0-4.068,2.371,4.905,4.905,0,0,1-3.817,1.416V47.418a.769.769,0,0,0-1.537,0V64.528a4.962,4.962,0,0,1-1.622-1.077c-.084-.084-.178-.141-.262-.226V43.154a.769.769,0,1,0-1.537,0V62.082a9.205,9.205,0,0,0-2.12-.957V48.966a.769.769,0,1,0-1.537,0v11.85A9.288,9.288,0,0,0,1.509,62V28.162h69.62V62.007Z" transform="translate(0 -0.001)" fill="#5f3333"/>
    </g>
  </g>
</svg>
